ply
format ascii 1.0
comment VCGLIB generated
element vertex 473
property float x
property float y
property float z
property float nx
property float ny
property float nz
property float texture_u
property float texture_v
element face 768
property list uchar int vertex_indices
end_header
-177.4356 63.72407 245.366 0.1601955 0.9619033 -0.2215389 0.272438 0.500000
-122.0854 57.19607 266.3817 0.4130162 0.1313549 -0.9012011 0.260274 0.439128
-171.708 57.19607 237.4455 0.5809062 0.1313559 -0.8033018 0.260274 0.500000
-126.1577 63.72406 275.2673 0.1138971 0.9619 -0.2485476 0.272438 0.439128
-70.03168 63.72406 294.5903 0.06320555 0.9619055 -0.2659755 0.272438 0.378255
-67.77106 57.19606 285.0809 0.2292588 0.1313542 -0.9644618 0.260274 0.378255
-176.8592 47.39491 244.5689 0.4362101 -0.6676979 -0.6032416 0.246623 0.500000
-214.732 57.19608 199.3845 0.726456 0.1313563 -0.6745422 0.260274 0.560872
-10.85234 57.19606 292.8246 0.0367149 0.1313552 -0.9906552 0.260274 0.317383
-69.80419 47.3949 293.6333 0.1721588 -0.6676989 -0.7242511 0.246623 0.378255
-11.21434 63.72406 302.5923 0.01010221 0.9619021 -0.2732077 0.272438 0.317383
48.03397 63.72406 298.9659 -0.0433678 0.9618998 -0.269941 0.272438 0.256511
46.48343 57.19606 289.3152 -0.1572348 0.1313852 -0.9787825 0.260274 0.256511
102.0328 57.19606 274.6877 -0.3451693 0.131354 -0.9293032 0.260274 0.195639
47.87793 47.3949 297.9947 -0.1180771 -0.6676905 -0.7350151 0.246623 0.256511
105.4363 63.72406 283.8504 -0.09518871 0.9618993 -0.2562986 0.272438 0.195639
158.7869 63.72407 257.8267 -0.143348 0.9619021 -0.2327999 0.272438 0.134766
153.6612 57.19607 249.504 -0.5198374 0.1313559 -0.844106 0.260274 0.134766
199.3845 57.19607 214.732 -0.6745422 0.1313563 -0.726456 0.260274 0.073894
158.2711 47.39491 256.9891 -0.3903744 -0.6677053 -0.6338592 0.246623 0.134766
206.0353 63.72407 221.8948 -0.186015 0.961908 -0.2003284 0.272438 0.073894
245.3659 63.72408 177.4357 -0.2056664 0.9615583 -0.1819531 0.272438 0.013022
237.4455 57.19608 171.7081 -0.7425612 0.1307437 -0.6568934 0.260274 0.013022
244.5689 47.39492 176.8593 -0.5587751 -0.6658974 -0.4943187 0.246623 0.013022
215.2471 63.72407 231.8157 0.2740292 0.9153216 0.2951175 0.285978 0.073894
110.1504 63.72406 296.5413 0.1402043 0.9153258 0.3775201 0.285978 0.195639
-11.71573 63.72406 316.1211 -0.01489333 0.9153314 0.402426 0.285978 0.317383
50.18155 63.72406 312.3326 0.06387641 0.9153312 0.3976038 0.285978 0.256511
50.76244 60.06216 315.9481 0.1470745 0.374476 0.9154981 0.291053 0.256511
-11.85135 60.06216 319.7805 -0.0343341 0.374474 0.9266016 0.291053 0.317383
-74.0097 60.06216 311.3239 -0.2144314 0.3744766 0.9021012 0.291053 0.378255
-73.16278 63.72406 307.7613 -0.09311344 0.9153252 0.3918031 0.285978 0.378255
-131.7982 63.72406 287.5744 -0.1677628 0.9153262 0.3661061 0.285978 0.439128
-133.3239 60.06216 290.9034 -0.386319 0.3744775 0.842926 0.291053 0.439128
-187.5145 60.06217 259.3035 -0.5433417 0.3744763 0.7513636 0.291053 0.500000
-185.3687 63.72407 256.3362 -0.2359726 0.915325 0.326339 0.285978 0.500000
-133.3239 -0.275945 290.9034 -0.4166198 0 0.9090809 0.350000 0.439128
-187.5145 -0.275941 259.3035 -0.5859771 0 0.8103276 0.350000 0.500000
-231.8156 63.72407 215.2471 -0.2951175 0.9153216 0.2740292 0.285978 0.560872
-221.8948 63.72408 206.0353 0.2003582 0.961902 -0.1860139 0.272438 0.560872
-257.8266 63.72408 158.7869 0.2327999 0.9619021 -0.143348 0.272438 0.621745
-249.504 57.19608 153.6613 0.8441026 0.1313854 -0.5198353 0.260274 0.621745
-274.6876 57.19609 102.0329 0.9293032 0.131354 -0.3451693 0.260274 0.682617
-283.8503 63.72409 105.4364 0.2562986 0.9618993 -0.09518871 0.272438 0.682617
-298.9659 63.72409 48.03397 0.269941 0.9618998 -0.0433678 0.272438 0.743489
-289.3152 57.19609 46.48343 0.9787863 0.1313557 -0.1572354 0.260274 0.743489
-292.8246 57.1961 -10.85233 0.9906553 0.1313552 0.0367149 0.260274 0.804361
-302.5923 63.7241 -11.21433 0.2732077 0.9619021 0.01010221 0.272438 0.804361
-294.5902 63.72411 -70.03169 0.2659755 0.9619055 0.06320555 0.272438 0.865234
-285.0808 57.19611 -67.77107 0.9644618 0.1313542 0.2292588 0.260274 0.865234
-266.3816 57.19612 -122.0854 0.9011976 0.1313844 0.4130146 0.260274 0.926106
-275.2672 63.72412 -126.1578 0.2485476 0.9619 0.1138971 0.272438 0.926106
-245.3659 63.72412 -177.4356 0.2372219 0.9615548 0.1383411 0.272438 0.986978
-237.4455 57.19613 -171.708 0.8564454 0.1307417 0.4994076 0.260274 0.986978
-244.5689 47.39496 -176.8593 0.6444804 -0.6659051 0.3757865 0.246623 0.986978
-293.6333 47.39495 -69.8042 0.7242511 -0.6676989 0.1721588 0.246623 0.865234
-297.9947 47.39493 47.87793 0.7350152 -0.6676905 -0.1180771 0.246623 0.743489
-256.9891 47.39492 158.2711 0.6338771 -0.6676926 -0.390367 0.246623 0.621745
-296.5412 63.72409 110.1504 -0.3775201 0.9153258 0.1402043 0.285978 0.682617
-316.1211 63.7241 -11.71574 -0.402426 0.9153314 -0.01489333 0.285978 0.804361
-287.5744 63.72412 -131.7982 -0.3661061 0.9153262 -0.1677628 0.285978 0.926106
-256.3362 63.72413 -185.3687 -0.3492945 0.9146065 -0.2036871 0.285978 0.986978
-259.3035 60.06223 -187.5146 -0.8015367 0.3729194 -0.4674078 0.291053 0.986978
-290.9033 60.06222 -133.3239 -0.842926 0.3744776 -0.3863191 0.291053 0.926106
-290.9033 -0.275888 -133.3239 -0.9090809 0 -0.4166198 0.350000 0.926106
-259.3035 -0.275881 -187.5146 -0.8638697 0 -0.5037154 0.350000 0.986978
-311.3239 60.06221 -74.0097 -0.9021012 0.3744766 -0.2144314 0.291053 0.865234
-307.7613 63.72411 -73.16279 -0.3918031 0.9153252 -0.09311344 0.285978 0.865234
-311.3239 -0.275896 -74.00971 -0.9728888 0 -0.2312737 0.350000 0.865234
-319.7805 -0.275904 -11.85136 -0.9993145 0 -0.03701961 0.350000 0.804361
-319.7805 60.0622 -11.85136 -0.9266016 0.374474 -0.0343341 0.291053 0.804361
-315.9481 60.06219 50.76246 -0.9154981 0.374476 0.1470745 0.291053 0.743489
-312.3325 63.72409 50.18156 -0.3976299 0.9153199 0.06387562 0.285978 0.743489
-315.9481 -0.275913 50.76245 -0.987342 0 0.1586061 0.350000 0.743489
-299.9739 -0.275921 111.4255 -0.9374233 0 0.348192 0.350000 0.682617
-299.9739 60.06219 111.4255 -0.8692144 0.3744691 0.3228611 0.291053 0.682617
-272.472 60.06218 167.8065 -0.7895278 0.3744686 0.4862295 0.291053 0.621745
-269.354 63.72408 165.8862 -0.3429118 0.9153264 0.2111616 0.285978 0.621745
-272.472 -0.275928 167.8065 -0.8514842 0 0.5243802 0.350000 0.621745
-234.4991 -0.275935 217.7388 -0.7328078 0 0.6804358 0.350000 0.560872
-234.4991 60.06217 217.7388 -0.6794847 0.3744734 0.6309282 0.291053 0.560872
-187.5145 -60.61405 259.3035 -0.5433417 -0.3744763 0.7513636 0.408947 0.500000
-234.4991 -60.61404 217.7388 -0.6794847 -0.3744734 0.6309282 0.408947 0.560872
-272.472 -60.61404 167.8065 -0.7895278 -0.3744686 0.4862295 0.408947 0.621745
-315.9481 -60.61402 50.76244 -0.9154981 -0.374476 0.1470745 0.408947 0.743489
-133.3239 -60.61405 290.9034 -0.386319 -0.3744775 0.842926 0.408947 0.439128
-131.7982 -64.27596 287.5744 -0.1677628 -0.9153262 0.3661061 0.414022 0.439128
-185.3687 -64.27596 256.3362 -0.2359726 -0.915325 0.326339 0.414022 0.500000
-177.4356 -64.27595 245.3659 0.1601955 -0.9619033 -0.2215389 0.427562 0.500000
-126.1577 -64.27596 275.2673 0.1138971 -0.9619 -0.2485476 0.427562 0.439128
-70.03168 -64.27596 294.5903 0.06320555 -0.9619055 -0.2659755 0.427562 0.378255
-122.0854 -57.74795 266.3817 0.4130162 -0.1313549 -0.9012011 0.439727 0.439128
-171.708 -57.74794 237.4455 0.5809062 -0.1313559 -0.8033018 0.439727 0.500000
-214.732 -57.74794 199.3845 0.726456 -0.1313563 -0.6745422 0.439727 0.560872
-176.8592 -47.94678 244.5689 0.4362101 0.6676979 -0.6032416 0.453377 0.500000
-125.7479 -47.94679 274.3731 0.3101682 0.6677017 -0.6767349 0.453377 0.439128
-69.80419 -47.94679 293.6333 0.1721588 0.6676989 -0.7242511 0.453377 0.378255
-67.77106 -57.74795 285.0809 0.2292588 -0.1313542 -0.9644618 0.439727 0.378255
-10.85234 -57.74795 292.8246 0.0367149 -0.1313552 -0.9906552 0.439727 0.317383
-11.17792 -47.94679 301.6094 0.02755832 0.6676918 -0.7439276 0.453377 0.317383
47.87793 -47.94679 297.9947 -0.1180771 0.6676905 -0.7350151 0.453377 0.256511
46.48343 -57.74795 289.3152 -0.1572354 -0.1313557 -0.9787863 0.439727 0.256511
48.03397 -64.27596 298.9659 -0.0433678 -0.9618998 -0.269941 0.427562 0.256511
102.0328 -57.74795 274.6877 -0.3451693 -0.131354 -0.9293032 0.439727 0.195639
105.0938 -47.94679 282.9283 -0.2591994 0.6676978 -0.6978505 0.453377 0.195639
158.2711 -47.94678 256.9891 -0.3903744 0.6677053 -0.6338592 0.453377 0.134766
153.6612 -57.74795 249.504 -0.5198374 -0.1313559 -0.844106 0.439727 0.134766
158.7869 -64.27596 257.8267 -0.143348 -0.9619021 -0.2327999 0.427562 0.134766
199.3845 -57.74794 214.732 -0.6745422 -0.1313563 -0.726456 0.439727 0.073894
205.366 -47.94678 221.174 -0.5065286 0.6677006 -0.5455316 0.453377 0.073894
244.5689 -47.94677 176.8593 -0.5587751 0.6658974 -0.4943187 0.453377 0.013022
237.4455 -57.74794 171.708 -0.7425612 -0.1307437 -0.6568934 0.439727 0.013022
245.3659 -64.27594 177.4356 -0.2056664 -0.9615583 -0.1819531 0.427562 0.013022
206.0353 -64.27595 221.8948 -0.1860139 -0.961902 -0.2003582 0.427562 0.073894
215.2471 -64.27595 231.8157 0.2740292 -0.9153216 0.2951175 0.414022 0.073894
256.3362 -64.27594 185.3687 0.3028457 -0.9146113 0.2679005 0.414022 0.013022
105.4363 -64.27596 283.8504 -0.09518871 -0.9618993 -0.2562986 0.427562 0.195639
110.1504 -64.27596 296.5413 0.1402043 -0.9153258 0.3775201 0.414022 0.195639
165.8862 -64.27596 269.354 0.2111616 -0.9153264 0.3429118 0.414022 0.134766
167.8065 -60.61405 272.472 0.4862295 -0.3744686 0.7895278 0.408947 0.134766
111.4255 -60.61406 299.974 0.3228611 -0.3744691 0.8692144 0.408947 0.195639
50.76244 -60.61406 315.9481 0.1470745 -0.374476 0.9154981 0.408947 0.256511
111.4255 -0.275946 299.974 0.348192 0 0.9374233 0.350000 0.195639
167.8065 -0.275943 272.472 0.5243802 0 0.8514842 0.350000 0.134766
167.8065 60.06216 272.472 0.4862295 0.3744686 0.7895278 0.291053 0.134766
111.4255 60.06216 299.974 0.3228611 0.3744691 0.8692144 0.291053 0.195639
50.76244 -0.275948 315.9481 0.1586061 0 0.987342 0.350000 0.256511
-11.85135 -0.275949 319.7805 -0.03701961 0 0.9993145 0.350000 0.317383
-74.0097 -0.275948 311.3239 -0.2312737 0 0.9728888 0.350000 0.378255
165.8862 63.72407 269.354 0.2111616 0.9153264 0.3429118 0.285978 0.134766
217.7388 -0.275937 234.4991 0.6804358 0 0.7328078 0.350000 0.073894
217.7388 60.06217 234.4991 0.6309282 0.3744734 0.6794847 0.291053 0.073894
259.3035 60.06218 187.5146 0.6949527 0.3729444 0.6147789 0.291053 0.013022
256.3362 63.72408 185.3688 0.3028457 0.9146113 0.2679005 0.285978 0.013022
259.3035 -0.275931 187.5146 0.7489998 0 0.6625702 0.350000 0.013022
259.3035 -60.61404 187.5146 0.6949527 -0.3729444 0.6147789 0.408947 0.013022
-74.0097 -60.61406 311.3239 -0.2144314 -0.3744766 0.9021012 0.408947 0.378255
-73.16278 -64.27596 307.7613 -0.09314319 -0.9153227 0.391802 0.414022 0.378255
-11.71573 -64.27596 316.1211 -0.01489333 -0.9153314 0.402426 0.414022 0.317383
-11.21434 -64.27596 302.5923 0.01010221 -0.9619021 -0.2732077 0.427562 0.317383
50.18155 -64.27596 312.3326 0.06387641 -0.9153312 0.3976038 0.414022 0.256511
-11.85135 -60.61406 319.7805 -0.0343341 -0.374474 0.9266016 0.408947 0.317383
217.7388 -60.61404 234.4991 0.6309282 -0.3744734 0.6794847 0.408947 0.073894
245.3659 63.72408 177.4357 -0.2372229 0.9615588 -0.1383117 0.042438 0.986823
266.3816 57.19609 122.0854 -0.9011976 0.1313844 -0.4130146 0.030274 0.925970
237.4455 57.19608 171.7081 -0.8564454 0.1307417 -0.4994076 0.030274 0.986823
275.2672 63.72409 126.1578 -0.2485476 0.9619 -0.1138971 0.042438 0.925970
294.5902 63.72409 70.03171 -0.2659755 0.9619055 -0.06320555 0.042438 0.865117
285.0808 57.19609 67.77109 -0.9644618 0.1313542 -0.2292588 0.030274 0.865117
244.5689 47.39492 176.8593 -0.6444804 -0.6659051 -0.3757865 0.016623 0.986823
292.8246 57.1961 10.85235 -0.9906553 0.1313552 -0.0367149 0.030274 0.804264
293.6333 47.39493 69.80421 -0.7242511 -0.6676989 -0.1721588 0.016623 0.865117
302.5923 63.7241 11.21435 -0.2732077 0.9619021 -0.01010221 0.042438 0.804264
298.9659 63.72411 -48.03395 -0.269941 0.9618998 0.0433678 0.042438 0.743412
289.3152 57.19611 -46.48341 -0.9787825 0.1313852 0.1572348 0.030274 0.743412
274.6876 57.19612 -102.0329 -0.9293032 0.131354 0.3451693 0.030274 0.682559
297.9947 47.39495 -47.87791 -0.7350152 -0.6676905 0.1180771 0.016623 0.743412
283.8503 63.72412 -105.4363 -0.2562986 0.9618993 0.09518871 0.042438 0.682559
257.8266 63.72412 -158.7869 -0.2327999 0.9619021 0.143348 0.042438 0.621706
249.504 57.19612 -153.6612 -0.844106 0.1313559 0.5198374 0.030274 0.621706
214.732 57.19613 -199.3845 -0.726456 0.1313563 0.6745422 0.030274 0.560853
256.9891 47.39496 -158.2711 -0.6338592 -0.6677053 0.3903744 0.016623 0.621706
221.8948 63.72413 -206.0353 -0.2003582 0.961902 0.1860139 0.042438 0.560853
177.4356 63.72414 -245.3659 -0.1601955 0.9619033 0.2215389 0.042438 0.500000
171.708 57.19613 -237.4455 -0.5809062 0.1313559 0.8033018 0.030274 0.500000
122.0854 57.19614 -266.3817 -0.4130162 0.1313549 0.9012011 0.030274 0.439147
176.8592 47.39497 -244.5689 -0.4362101 -0.6676979 0.6032416 0.016623 0.500000
126.1577 63.72414 -275.2673 -0.1138971 0.9619 0.2485476 0.042438 0.439147
70.03168 63.72414 -294.5903 -0.06320555 0.9619055 0.2659755 0.042438 0.378294
67.77106 57.19614 -285.0809 -0.2292588 0.1313542 0.9644618 0.030274 0.378294
10.85234 57.19614 -292.8246 -0.0367149 0.1313552 0.9906552 0.030274 0.317441
69.80419 47.39498 -293.6333 -0.1721588 -0.6676989 0.7242511 0.016623 0.378294
11.21434 63.72414 -302.5923 -0.01010221 0.9619021 0.2732077 0.042438 0.317441
-48.03397 63.72414 -298.9659 0.0433678 0.9618998 0.269941 0.042438 0.256588
-46.48343 57.19614 -289.3152 0.1572354 0.1313557 0.9787863 0.030274 0.256588
-102.0328 57.19614 -274.6877 0.3451693 0.131354 0.9293032 0.030274 0.195736
-47.87793 47.39498 -297.9947 0.1180771 -0.6676905 0.7350151 0.016623 0.256588
-105.4363 63.72414 -283.8504 0.09518871 0.9618993 0.2562986 0.042438 0.195736
-158.7869 63.72414 -257.8267 0.143348 0.9619021 0.2327999 0.042438 0.134883
-153.6612 57.19614 -249.504 0.5198374 0.1313559 0.844106 0.030274 0.134883
-199.3845 57.19613 -214.732 0.6745422 0.1313563 0.726456 0.030274 0.074030
-158.2711 47.39497 -256.9891 0.3903744 -0.6677053 0.6338592 0.016623 0.134883
-206.0353 63.72413 -221.8948 0.186015 0.961908 0.2003284 0.042438 0.074030
-245.3659 63.72412 -177.4356 0.2056664 0.9615583 0.1819531 0.042438 0.013177
-237.4455 57.19613 -171.708 0.7425612 0.1307437 0.6568934 0.030274 0.013177
-244.5689 47.39496 -176.8593 0.5587751 -0.6658974 0.4943187 0.016623 0.013177
-215.2471 63.72413 -231.8157 -0.2740292 0.9153216 -0.2951175 0.055978 0.074030
-110.1504 63.72414 -296.5413 -0.1402043 0.9153258 -0.3775201 0.055978 0.195736
11.71573 63.72414 -316.1211 0.01489333 0.9153314 -0.402426 0.055978 0.317441
-50.18155 63.72414 -312.3326 -0.06387641 0.9153312 -0.3976038 0.055978 0.256588
-50.76244 60.06224 -315.9481 -0.1470745 0.374476 -0.9154981 0.061053 0.256588
11.85135 60.06224 -319.7805 0.0343341 0.374474 -0.9266016 0.061053 0.317441
74.0097 60.06224 -311.3239 0.2144314 0.3744766 -0.9021012 0.061053 0.378294
73.16278 63.72414 -307.7613 0.09311344 0.9153252 -0.3918031 0.055978 0.378294
131.7982 63.72414 -287.5744 0.1677628 0.9153262 -0.3661061 0.055978 0.439147
133.3239 60.06224 -290.9034 0.386319 0.3744775 -0.842926 0.061053 0.439147
187.5145 60.06224 -259.3035 0.5433417 0.3744763 -0.7513636 0.061053 0.500000
185.3687 63.72414 -256.3362 0.2359726 0.915325 -0.326339 0.055978 0.500000
231.8156 63.72413 -215.2471 0.2951175 0.9153216 -0.2740292 0.055978 0.560853
234.4991 60.06223 -217.7388 0.6794847 0.3744734 -0.6309282 0.061053 0.560853
272.472 60.06223 -167.8065 0.7895278 0.3744686 -0.4862295 0.061053 0.621706
269.354 63.72412 -165.8862 0.3429118 0.9153264 -0.2111616 0.055978 0.621706
296.5412 63.72412 -110.1504 0.3775201 0.9153258 -0.1402043 0.055978 0.682559
299.9739 60.06222 -111.4255 0.8692144 0.3744691 -0.3228611 0.061053 0.682559
315.9481 60.06221 -50.76244 0.9154981 0.374476 -0.1470745 0.061053 0.743412
312.3325 63.72411 -50.18154 0.3976299 0.9153199 -0.06387562 0.055978 0.743412
316.1211 63.7241 11.71575 0.402426 0.9153314 0.01489333 0.055978 0.804264
319.7805 60.0622 11.85137 0.9265908 0.3745006 0.0343337 0.061053 0.804264
311.3239 60.06219 74.00972 0.9021012 0.3744766 0.2144314 0.061053 0.865117
307.7613 63.72409 73.1628 0.3918031 0.9153252 0.09311344 0.055978 0.865117
287.5744 63.72408 131.7983 0.3661061 0.9153262 0.1677628 0.055978 0.925970
290.9033 60.06218 133.3239 0.842926 0.3744776 0.3863191 0.061053 0.925970
259.3035 60.06218 187.5146 0.8015367 0.3729194 0.4674078 0.061053 0.986823
256.3362 63.72408 185.3688 0.3492945 0.9146065 0.2036871 0.055978 0.986823
290.9033 -0.275924 133.3239 0.9090809 0 0.4166198 0.120000 0.925970
259.3035 -0.275931 187.5146 0.8638697 0 0.5037154 0.120000 0.986823
319.7805 -0.275907 11.85136 0.9993145 0 0.03701961 0.120000 0.804264
311.3239 -0.275916 74.00971 0.9728888 0 0.2312737 0.120000 0.865117
315.9481 -0.275899 -50.76245 0.987342 0 -0.1586061 0.120000 0.743412
299.9739 -0.275891 -111.4255 0.9374233 0 -0.348192 0.120000 0.682559
272.472 -0.275883 -167.8065 0.8514842 0 -0.5243802 0.120000 0.621706
234.4991 -0.275877 -217.7388 0.7328078 0 -0.6804358 0.120000 0.560853
187.5145 -0.275871 -259.3035 0.5859771 0 -0.8103276 0.120000 0.500000
133.3239 -0.275867 -290.9034 0.4166198 0 -0.9090809 0.120000 0.439147
74.0097 -0.275864 -311.3239 0.2312737 0 -0.9728888 0.120000 0.378294
11.85135 -0.275863 -319.7805 0.03701961 0 -0.9993145 0.120000 0.317441
-50.76244 -0.275863 -315.9481 -0.1586061 0 -0.987342 0.120000 0.256588
-111.4255 -0.275866 -299.974 -0.348192 0 -0.9374233 0.120000 0.195736
-111.4255 60.06224 -299.974 -0.3228611 0.3744691 -0.8692144 0.061053 0.195736
-167.8065 60.06224 -272.472 -0.4862295 0.3744686 -0.7895278 0.061053 0.134883
-165.8862 63.72414 -269.354 -0.2111616 0.9153264 -0.3429118 0.055978 0.134883
-167.8065 -0.275869 -272.472 -0.5243802 0 -0.8514842 0.120000 0.134883
-217.7388 -0.275874 -234.4991 -0.6804358 0 -0.7328078 0.120000 0.074030
-217.7388 60.06223 -234.4991 -0.6309282 0.3744734 -0.6794847 0.061053 0.074030
-259.3035 60.06223 -187.5146 -0.6949527 0.3729444 -0.6147789 0.061053 0.013177
-256.3362 63.72413 -185.3687 -0.3028457 0.9146113 -0.2679005 0.055978 0.013177
-259.3035 -0.275881 -187.5146 -0.7489867 0 -0.662585 0.120000 0.013177
-259.3035 -60.61399 -187.5146 -0.6949527 -0.3729444 -0.6147789 0.178948 0.013177
-167.8065 -60.61398 -272.472 -0.4862295 -0.3744686 -0.7895278 0.178948 0.134883
-111.4255 -60.61397 -299.974 -0.3228611 -0.3744691 -0.8692144 0.178948 0.195736
-50.76244 -60.61397 -315.9481 -0.1470745 -0.374476 -0.9154981 0.178948 0.256588
11.85135 -60.61397 -319.7805 0.0343341 -0.374474 -0.9266016 0.178948 0.317441
74.0097 -60.61397 -311.3239 0.2144314 -0.3744766 -0.9021012 0.178948 0.378294
133.3239 -60.61398 -290.9034 0.386319 -0.3744775 -0.842926 0.178948 0.439147
187.5145 -60.61398 -259.3035 0.5433417 -0.3744763 -0.7513636 0.178948 0.500000
234.4991 -60.61398 -217.7388 0.6794847 -0.3744734 -0.6309282 0.178948 0.560853
272.472 -60.61399 -167.8065 0.7895278 -0.3744686 -0.4862295 0.178948 0.621706
299.9739 -60.614 -111.4255 0.8692144 -0.3744691 -0.3228611 0.178948 0.682559
315.9481 -60.61401 -50.76246 0.9154981 -0.374476 -0.1470745 0.178948 0.743412
319.7805 -60.61401 11.85136 0.9266016 -0.374474 0.0343341 0.178948 0.804264
311.3239 -60.61403 74.0097 0.9021012 -0.3744766 0.2144314 0.178948 0.865117
290.9033 -60.61403 133.3239 0.842926 -0.3744776 0.3863191 0.178948 0.925970
259.3035 -60.61404 187.5146 0.8015367 -0.3729194 0.4674078 0.178948 0.986823
287.5744 -64.27593 131.7982 0.3661061 -0.9153262 0.1677628 0.184022 0.925970
256.3362 -64.27594 185.3687 0.3492945 -0.9146065 0.2036871 0.184022 0.986823
245.3659 -64.27594 177.4356 -0.2372219 -0.9615548 -0.1383411 0.197562 0.986823
275.2672 -64.27593 126.1578 -0.2485476 -0.9619 -0.1138971 0.197562 0.925970
294.5902 -64.27592 70.03169 -0.2659755 -0.9619055 -0.06320555 0.197562 0.865117
266.3816 -57.74793 122.0854 -0.9011976 -0.1313844 -0.4130146 0.209727 0.925970
237.4455 -57.74794 171.708 -0.8564454 -0.1307417 -0.4994076 0.209727 0.986823
244.5689 -47.94677 176.8593 -0.6444804 0.6659051 -0.3757865 0.223377 0.986823
274.373 -47.94677 125.748 -0.6767517 0.6676877 -0.3101617 0.223377 0.925970
293.6333 -47.94676 69.8042 -0.7242511 0.6676989 -0.1721588 0.223377 0.865117
285.0808 -57.74792 67.77107 -0.9644618 -0.1313542 -0.2292588 0.209727 0.865117
292.8246 -57.74791 10.85233 -0.9906553 -0.1313552 -0.0367149 0.209727 0.804264
301.6093 -47.94675 11.17791 -0.7439277 0.6676918 -0.02755832 0.223377 0.804264
297.9947 -47.94674 -47.87793 -0.7350152 0.6676905 0.1180771 0.223377 0.743412
289.3152 -57.74791 -46.48343 -0.9787863 -0.1313557 0.1572354 0.209727 0.743412
298.9659 -64.27591 -48.03397 -0.269941 -0.9618998 0.0433678 0.197562 0.743412
274.6876 -57.7479 -102.0329 -0.9293032 -0.131354 0.3451693 0.209727 0.682559
282.9283 -47.94674 -105.0939 -0.6978505 0.6676978 0.2591994 0.223377 0.682559
256.9891 -47.94673 -158.2711 -0.6338771 0.6676926 0.390367 0.223377 0.621706
249.504 -57.74789 -153.6613 -0.8441026 -0.1313854 0.5198353 0.209727 0.621706
257.8266 -64.27589 -158.7869 -0.2327999 -0.9619021 0.143348 0.197562 0.621706
214.732 -57.74789 -199.3845 -0.726456 -0.1313563 0.6745422 0.209727 0.560853
221.174 -47.94672 -205.366 -0.5455316 0.6677006 0.5065286 0.223377 0.560853
176.8592 -47.94672 -244.5689 -0.4362101 0.6676979 0.6032416 0.223377 0.500000
171.708 -57.74788 -237.4455 -0.5809062 -0.1313559 0.8033018 0.209727 0.500000
177.4356 -64.27589 -245.366 -0.1601955 -0.9619033 0.2215389 0.197562 0.500000
122.0854 -57.74788 -266.3817 -0.4130162 -0.1313549 0.9012011 0.209727 0.439147
125.7479 -47.94671 -274.3731 -0.3101682 0.6677017 0.6767349 0.223377 0.439147
69.80419 -47.94671 -293.6333 -0.1721588 0.6676989 0.7242511 0.223377 0.378294
67.77106 -57.74788 -285.0809 -0.2292588 -0.1313542 0.9644618 0.209727 0.378294
70.03168 -64.27588 -294.5903 -0.06320555 -0.9619055 0.2659755 0.197562 0.378294
10.85234 -57.74788 -292.8246 -0.0367149 -0.1313552 0.9906552 0.209727 0.317441
11.17792 -47.94671 -301.6094 -0.02755832 0.6676918 0.7439276 0.223377 0.317441
-47.87793 -47.94671 -297.9947 0.1180771 0.6676905 0.7350151 0.223377 0.256588
-46.48343 -57.74788 -289.3152 0.1572354 -0.1313557 0.9787863 0.209727 0.256588
-48.03397 -64.27588 -298.9659 0.0433678 -0.9618998 0.269941 0.197562 0.256588
-102.0328 -57.74788 -274.6877 0.3451693 -0.131354 0.9293032 0.209727 0.195736
-105.0938 -47.94671 -282.9283 0.2591994 0.6676978 0.6978505 0.223377 0.195736
-158.2711 -47.94672 -256.9891 0.3903744 0.6677053 0.6338592 0.223377 0.134883
-153.6612 -57.74788 -249.504 0.5198374 -0.1313559 0.844106 0.209727 0.134883
-158.7869 -64.27588 -257.8267 0.143348 -0.9619021 0.2327999 0.197562 0.134883
-199.3845 -57.74788 -214.732 0.6745422 -0.1313563 0.726456 0.209727 0.074030
-205.366 -47.94672 -221.174 0.5065286 0.6677006 0.5455316 0.223377 0.074030
-244.5689 -47.94673 -176.8593 0.5587751 0.6658974 0.4943187 0.223377 0.013177
-237.4455 -57.74789 -171.7081 0.7425612 -0.1307437 0.6568934 0.209727 0.013177
-245.3659 -64.27589 -177.4357 0.2056664 -0.9615583 0.1819531 0.197562 0.013177
-206.0353 -64.27589 -221.8948 0.186015 -0.961908 0.2003284 0.197562 0.074030
-215.2471 -64.27589 -231.8157 -0.2740292 -0.9153216 -0.2951175 0.184022 0.074030
-256.3362 -64.27589 -185.3688 -0.3028457 -0.9146113 -0.2679005 0.184022 0.013177
-105.4363 -64.27588 -283.8504 0.09518871 -0.9618993 0.2562986 0.197562 0.195736
-110.1504 -64.27588 -296.5413 -0.1402043 -0.9153258 -0.3775201 0.184022 0.195736
-165.8862 -64.27588 -269.354 -0.2111616 -0.9153264 -0.3429118 0.184022 0.134883
-50.18155 -64.27587 -312.3326 -0.06387641 -0.9153312 -0.3976038 0.184022 0.256588
11.71573 -64.27587 -316.1211 0.01489333 -0.9153314 -0.402426 0.184022 0.317441
11.21434 -64.27588 -302.5923 -0.01010221 -0.9619021 0.2732077 0.197562 0.317441
73.16278 -64.27588 -307.7613 0.09311344 -0.9153252 -0.3918031 0.184022 0.378294
131.7982 -64.27588 -287.5744 0.1677628 -0.9153262 -0.3661061 0.184022 0.439147
126.1577 -64.27588 -275.2673 -0.1138971 -0.9619 0.2485476 0.197562 0.439147
185.3687 -64.27588 -256.3362 0.2359726 -0.915325 -0.326339 0.184022 0.500000
231.8156 -64.27589 -215.2471 0.2951175 -0.9153216 -0.2740292 0.184022 0.560853
221.8948 -64.27589 -206.0353 -0.2003582 -0.961902 0.1860139 0.197562 0.560853
269.354 -64.27589 -165.8862 0.3429118 -0.9153264 -0.2111616 0.184022 0.621706
296.5412 -64.2759 -110.1504 0.3775201 -0.9153258 -0.1402043 0.184022 0.682559
283.8503 -64.2759 -105.4364 -0.2562986 -0.9618993 0.09518871 0.197562 0.682559
312.3325 -64.27591 -50.18156 0.3976299 -0.9153199 -0.06387562 0.184022 0.743412
316.1211 -64.27592 11.71574 0.402426 -0.9153314 0.01489333 0.184022 0.804264
302.5923 -64.27592 11.21433 -0.2732077 -0.9619021 -0.01010221 0.197562 0.804264
307.7613 -64.27592 73.16279 0.3918031 -0.9153252 0.09311344 0.184022 0.865117
-221.174 47.39491 205.366 0.5455316 -0.6677006 -0.5065286 0.246623 0.560872
-282.9283 47.39492 105.0939 0.6978505 -0.6676978 -0.2591994 0.246623 0.682617
-301.6093 47.39494 -11.17791 0.7439277 -0.6676918 0.02755832 0.246623 0.804361
-274.373 47.39495 -125.748 0.6767517 -0.6676877 0.3101617 0.246623 0.926106
-125.7479 47.3949 274.3731 0.3101682 -0.6677017 -0.6767349 0.246623 0.439128
-11.17792 47.3949 301.6094 0.02755832 -0.6676918 -0.7439276 0.246623 0.317383
105.0938 47.3949 282.9283 -0.2591994 -0.6676978 -0.6978505 0.246623 0.195639
205.366 47.39491 221.174 -0.5065286 -0.6677006 -0.5455316 0.246623 0.073894
-221.174 -0.275934 205.366 0.7328078 0 -0.6804358 0.830000 0.294375
-256.9891 47.39492 158.2711 0.8514842 0 -0.5243802 0.853668 0.323750
-221.174 47.39491 205.366 0.7328078 0 -0.6804358 0.853668 0.294375
-256.9891 -0.275927 158.2711 0.8514842 0 -0.5243802 0.830000 0.323750
-282.9283 -0.27592 105.0939 0.9374233 0 -0.348192 0.830000 0.353125
-282.9283 47.39492 105.0939 0.9374233 0 -0.348192 0.853668 0.353125
-297.9947 47.39493 47.87793 0.987342 0 -0.1586061 0.853668 0.382500
-297.9947 -0.275912 47.87792 0.987342 0 -0.1586061 0.830000 0.382500
-301.6093 -0.275904 -11.17792 0.9993145 0 0.03701961 0.830000 0.411875
-301.6093 47.39494 -11.17791 0.9993145 0 0.03701961 0.853668 0.411875
-293.6333 47.39495 -69.8042 0.9728888 0 0.2312737 0.853668 0.441250
-293.6333 -0.275897 -69.80421 0.9728888 0 0.2312737 0.830000 0.441250
-274.373 -0.275889 -125.748 0.9090809 0 0.4166198 0.830000 0.470625
-274.373 47.39495 -125.748 0.9090809 0 0.4166198 0.853668 0.470625
-244.5689 47.39496 -176.8593 0.8103276 0 0.5859771 0.853668 0.500000
-244.5689 -0.275882 -176.8593 0.8103276 0 0.5859771 0.830000 0.500000
-205.366 -0.275876 -221.174 0.6804358 0 0.7328078 0.830000 0.529375
-205.366 47.39497 -221.174 0.6804358 0 0.7328078 0.853668 0.529375
-158.2711 47.39497 -256.9891 0.5243802 0 0.8514842 0.853668 0.558750
-158.2711 -0.275871 -256.9891 0.5243802 0 0.8514842 0.830000 0.558750
-105.0938 -0.275868 -282.9283 0.348192 0 0.9374233 0.830000 0.588125
-105.0938 47.39498 -282.9283 0.348192 0 0.9374233 0.853668 0.588125
-47.87793 47.39498 -297.9947 0.1586061 0 0.987342 0.853668 0.617500
-47.87793 -0.275866 -297.9947 0.1586061 0 0.987342 0.830000 0.617500
11.17792 -0.275865 -301.6094 -0.03701961 0 0.9993145 0.830000 0.646875
11.17792 47.39498 -301.6094 -0.03701961 0 0.9993145 0.853668 0.646875
69.80419 47.39498 -293.6333 -0.2312737 0 0.9728888 0.853668 0.676250
69.80419 -0.275866 -293.6333 -0.2312737 0 0.9728888 0.830000 0.676250
125.7479 -0.275869 -274.3731 -0.4166198 0 0.9090809 0.830000 0.705625
125.7479 47.39498 -274.3731 -0.4166198 0 0.9090809 0.853668 0.705625
176.8592 47.39497 -244.5689 -0.5859771 0 0.8103276 0.853668 0.735000
176.8592 -0.275873 -244.5689 -0.5859771 0 0.8103276 0.830000 0.735000
221.174 -0.275878 -205.366 -0.7328078 0 0.6804358 0.830000 0.764375
221.174 47.39497 -205.366 -0.7328078 0 0.6804358 0.853668 0.764375
256.9891 47.39496 -158.2711 -0.8514842 0 0.5243802 0.853668 0.793750
256.9891 -0.275885 -158.2711 -0.8514842 0 0.5243802 0.830000 0.793750
282.9283 -0.275892 -105.0939 -0.9374233 0 0.348192 0.830000 0.823125
282.9283 47.39495 -105.0938 -0.9374233 0 0.348192 0.853668 0.823125
297.9947 47.39495 -47.87791 -0.987342 0 0.1586061 0.853668 0.852500
297.9947 -0.275899 -47.87792 -0.987342 0 0.1586061 0.830000 0.852500
301.6093 -0.275907 11.17792 -0.9993145 0 -0.03701961 0.830000 0.881875
301.6093 47.39494 11.17792 -0.9993145 0 -0.03701961 0.853668 0.881875
293.6333 47.39493 69.80421 -0.9728888 0 -0.2312737 0.853668 0.911250
293.6333 -0.275915 69.80421 -0.9728888 0 -0.2312737 0.830000 0.911250
274.373 -0.275923 125.748 -0.9090809 0 -0.4166198 0.830000 0.940625
274.373 47.39492 125.748 -0.9090809 0 -0.4166198 0.853668 0.940625
244.5689 47.39492 176.8593 -0.8638697 0 -0.5037154 0.853668 0.970000
244.5689 -0.27593 176.8593 -0.8638697 0 -0.5037154 0.830000 0.970000
244.5689 -47.94677 176.8593 -0.8638697 0 -0.5037154 0.806332 0.970000
274.373 -47.94677 125.748 -0.9090809 0 -0.4166198 0.806332 0.940625
293.6333 -47.94676 69.8042 -0.9728888 0 -0.2312737 0.806332 0.911250
301.6093 -47.94675 11.17791 -0.9993145 0 -0.03701961 0.806332 0.881875
297.9947 -47.94674 -47.87793 -0.987342 0 0.1586061 0.806332 0.852500
282.9283 -47.94674 -105.0939 -0.9374233 0 0.348192 0.806332 0.823125
256.9891 -47.94673 -158.2711 -0.8514842 0 0.5243802 0.806332 0.793750
221.174 -47.94672 -205.366 -0.7328078 0 0.6804358 0.806332 0.764375
176.8592 -47.94672 -244.5689 -0.5859771 0 0.8103276 0.806332 0.735000
125.7479 -47.94671 -274.3731 -0.4166198 0 0.9090809 0.806332 0.705625
69.80419 -47.94671 -293.6333 -0.2312737 0 0.9728888 0.806332 0.676250
11.17792 -47.94671 -301.6094 -0.03701961 0 0.9993145 0.806332 0.646875
-47.87793 -47.94671 -297.9947 0.1586061 0 0.987342 0.806332 0.617500
-105.0938 -47.94671 -282.9283 0.348192 0 0.9374233 0.806332 0.588125
-158.2711 -47.94672 -256.9891 0.5243802 0 0.8514842 0.806332 0.558750
-205.366 -47.94672 -221.174 0.6804358 0 0.7328078 0.806332 0.529375
-244.5689 -47.94673 -176.8593 0.8103276 0 0.5859771 0.806332 0.500000
-274.373 -47.94674 -125.748 0.9090809 0 0.4166198 0.806332 0.470625
-293.6333 -47.94674 -69.80421 0.9728888 0 0.2312737 0.806332 0.441250
-301.6093 -47.94675 -11.17792 0.9993145 0 0.03701961 0.806332 0.411875
-297.9947 -47.94676 47.87791 0.987342 0 -0.1586061 0.806332 0.382500
-282.9283 -47.94677 105.0938 0.9374233 0 -0.348192 0.806332 0.353125
-256.9891 -47.94677 158.2711 0.8514842 0 -0.5243802 0.806332 0.323750
-221.174 -47.94678 205.366 0.7328078 0 -0.6804358 0.806332 0.294375
-176.8592 -47.94678 244.5689 0.5859771 0 -0.8103276 0.806332 0.265000
-176.8592 -0.275939 244.5689 0.5859771 0 -0.8103276 0.830000 0.265000
-125.7479 -0.275943 274.3731 0.4166198 0 -0.9090809 0.830000 0.235625
-176.8592 47.39491 244.5689 0.5859771 0 -0.8103276 0.853668 0.265000
-125.7479 47.3949 274.3731 0.4166198 0 -0.9090809 0.853668 0.235625
-69.80419 47.3949 293.6333 0.2312737 0 -0.9728888 0.853668 0.206250
-69.80419 -0.275945 293.6333 0.2312737 0 -0.9728888 0.830000 0.206250
-11.17792 -0.275946 301.6094 0.03701961 0 -0.9993145 0.830000 0.176875
-11.17792 47.3949 301.6094 0.03701961 0 -0.9993145 0.853668 0.176875
47.87793 47.3949 297.9947 -0.1586061 0 -0.987342 0.853668 0.147500
47.87793 -0.275946 297.9947 -0.1586061 0 -0.987342 0.830000 0.147500
105.0938 -0.275944 282.9283 -0.348192 0 -0.9374233 0.830000 0.118125
105.0938 47.3949 282.9283 -0.348192 0 -0.9374233 0.853668 0.118125
158.2711 47.39491 256.9891 -0.5243802 0 -0.8514842 0.853668 0.088750
158.2711 -0.27594 256.9891 -0.5243802 0 -0.8514842 0.830000 0.088750
205.366 -0.275936 221.174 -0.6804358 0 -0.7328078 0.830000 0.059375
205.366 47.39491 221.174 -0.6804358 0 -0.7328078 0.853668 0.059375
244.5689 47.39492 176.8593 -0.7489998 0 -0.6625702 0.853668 0.030000
244.5689 -0.27593 176.8593 -0.7489998 0 -0.6625702 0.830000 0.030000
-69.80419 -47.94679 293.6333 0.2312737 0 -0.9728888 0.806332 0.206250
-11.17792 -47.94679 301.6094 0.03701961 0 -0.9993145 0.806332 0.176875
47.87793 -47.94679 297.9947 -0.1586061 0 -0.987342 0.806332 0.147500
105.0938 -47.94679 282.9283 -0.348192 0 -0.9374233 0.806332 0.118125
158.2711 -47.94678 256.9891 -0.5243802 0 -0.8514842 0.806332 0.088750
205.366 -47.94678 221.174 -0.6804358 0 -0.7328078 0.806332 0.059375
244.5689 -47.94677 176.8593 -0.7489867 0 -0.662585 0.806332 0.030000
-125.7479 -47.94679 274.3731 0.4166198 0 -0.9090809 0.806332 0.235625
-205.366 47.39497 -221.174 0.5065286 -0.6677006 0.5455316 0.016623 0.074030
-105.0938 47.39498 -282.9283 0.2591994 -0.6676978 0.6978505 0.016623 0.195736
11.17792 47.39498 -301.6094 -0.02755832 -0.6676918 0.7439276 0.016623 0.317441
125.7479 47.39498 -274.3731 -0.3101682 -0.6677017 0.6767349 0.016623 0.439147
221.174 47.39497 -205.366 -0.5455316 -0.6677006 0.5065286 0.016623 0.560853
282.9283 47.39495 -105.0938 -0.6978505 -0.6676978 0.2591994 0.016623 0.682559
301.6093 47.39494 11.17792 -0.7439277 -0.6676918 -0.02755832 0.016623 0.804264
274.373 47.39492 125.748 -0.6767517 -0.6676877 -0.3101617 0.016623 0.925970
-311.3239 -60.614 -74.00972 -0.9021012 -0.3744766 -0.2144314 0.408947 0.865234
-290.9033 -60.61399 -133.3239 -0.842926 -0.3744776 -0.3863191 0.408947 0.926106
-259.3035 -60.61399 -187.5146 -0.8015367 -0.3729194 -0.4674078 0.408947 0.986978
-287.5744 -64.2759 -131.7983 -0.3661061 -0.9153262 -0.1677628 0.414022 0.926106
-256.3362 -64.27589 -185.3688 -0.3492945 -0.9146065 -0.2036871 0.414022 0.986978
-245.3659 -64.27589 -177.4357 0.2372229 -0.9615588 0.1383117 0.427562 0.986978
-275.2672 -64.2759 -126.1578 0.2485476 -0.9619 0.1138971 0.427562 0.926106
-294.5902 -64.27591 -70.03171 0.2659755 -0.9619055 0.06320555 0.427562 0.865234
-266.3816 -57.7479 -122.0854 0.9011976 -0.1313844 0.4130146 0.439727 0.926106
-237.4455 -57.74789 -171.7081 0.8564454 -0.1307417 0.4994076 0.439727 0.986978
-244.5689 -47.94673 -176.8593 0.6444804 0.6659051 0.3757865 0.453377 0.986978
-274.373 -47.94674 -125.748 0.6767517 0.6676877 0.3101617 0.453377 0.926106
-293.6333 -47.94674 -69.80421 0.7242511 0.6676989 0.1721588 0.453377 0.865234
-285.0808 -57.74791 -67.77109 0.9644618 -0.1313542 0.2292588 0.439727 0.865234
-292.8246 -57.74791 -10.85235 0.9906553 -0.1313552 0.0367149 0.439727 0.804361
-301.6093 -47.94675 -11.17792 0.7439277 0.6676918 0.02755832 0.453377 0.804361
-297.9947 -47.94676 47.87791 0.7350152 0.6676905 -0.1180771 0.453377 0.743489
-289.3152 -57.74792 46.48341 0.9787863 -0.1313557 -0.1572354 0.439727 0.743489
-298.9659 -64.27592 48.03395 0.269941 -0.9618998 -0.0433678 0.427562 0.743489
-274.6876 -57.74793 102.0329 0.9293032 -0.131354 -0.3451693 0.439727 0.682617
-282.9283 -47.94677 105.0938 0.6978505 0.6676978 -0.2591994 0.453377 0.682617
-256.9891 -47.94677 158.2711 0.6338592 0.6677053 -0.3903744 0.453377 0.621745
-249.504 -57.74793 153.6612 0.844106 -0.1313559 -0.5198374 0.439727 0.621745
-257.8266 -64.27594 158.7869 0.2327999 -0.9619021 -0.143348 0.427562 0.621745
-221.174 -47.94678 205.366 0.5455316 0.6677006 -0.5065286 0.453377 0.560872
-221.8948 -64.27595 206.0353 0.2003582 -0.961902 -0.1860139 0.427562 0.560872
-231.8156 -64.27595 215.2471 -0.2951175 -0.9153216 0.2740292 0.414022 0.560872
-283.8503 -64.27593 105.4363 0.2562986 -0.9618993 -0.09518871 0.427562 0.682617
-296.5412 -64.27593 110.1504 -0.3775201 -0.9153258 0.1402043 0.414022 0.682617
-269.354 -64.27594 165.8862 -0.3429118 -0.9153264 0.2111616 0.414022 0.621745
-312.3325 -64.27592 50.18154 -0.3976299 -0.9153199 0.06387562 0.414022 0.743489
-316.1211 -64.27592 -11.71575 -0.402426 -0.9153314 -0.01489333 0.414022 0.804361
-302.5923 -64.27592 -11.21435 0.2732077 -0.9619021 0.01010221 0.427562 0.804361
-307.7613 -64.27591 -73.1628 -0.3918031 -0.9153252 -0.09311344 0.414022 0.865234
-319.7805 -60.61401 -11.85137 -0.9266016 -0.374474 -0.0343341 0.408947 0.804361
-299.9739 -60.61403 111.4255 -0.8692144 -0.3744691 0.3228611 0.408947 0.682617
-217.7388 -60.61398 -234.4991 -0.6309282 -0.3744734 -0.6794847 0.178948 0.074030
3 0 1 2 
3 0 3 1 
3 3 4 1 
3 4 5 1 
3 6 2 1 
3 6 7 2 
3 0 2 7 
3 4 8 5 
3 9 1 5 
3 9 5 8 
3 4 10 8 
3 10 11 8 
3 11 12 8 
3 11 13 12 
3 14 8 12 
3 14 12 13 
3 11 15 13 
3 15 16 13 
3 16 17 13 
3 16 18 17 
3 19 13 17 
3 19 17 18 
3 16 20 18 
3 20 21 18 
3 21 22 18 
3 23 18 22 
3 24 21 20 
3 24 20 16 
3 25 16 15 
3 25 15 11 
3 26 11 10 
3 27 11 26 
3 27 26 28 
3 25 27 28 
3 28 26 29 
3 26 30 29 
3 26 31 30 
3 31 32 30 
3 30 32 33 
3 32 34 33 
3 32 35 34 
3 36 33 34 
3 36 30 33 
3 37 36 34 
3 32 0 35 
3 32 3 0 
3 32 4 3 
3 31 4 32 
3 26 4 31 
3 26 10 4 
3 38 35 0 
3 38 34 35 
3 38 0 39 
3 0 7 39 
3 40 39 7 
3 38 39 40 
3 40 7 41 
3 40 41 42 
3 43 40 42 
3 44 43 42 
3 44 42 45 
3 44 45 46 
3 47 44 46 
3 48 47 46 
3 48 46 49 
3 48 49 50 
3 51 48 50 
3 52 51 50 
3 52 50 53 
3 54 53 50 
3 55 50 49 
3 55 49 46 
3 56 46 45 
3 56 45 42 
3 57 42 41 
3 58 43 44 
3 58 40 43 
3 59 44 47 
3 59 47 48 
3 60 48 51 
3 60 51 52 
3 60 52 61 
3 60 61 62 
3 60 62 63 
3 64 63 62 
3 65 64 62 
3 66 60 63 
3 64 66 63 
3 67 60 66 
3 59 67 66 
3 67 48 60 
3 59 48 67 
3 64 68 66 
3 68 69 66 
3 69 70 66 
3 59 66 70 
3 71 59 70 
3 69 71 70 
3 72 59 71 
3 72 44 59 
3 58 72 71 
3 58 44 72 
3 69 73 71 
3 73 74 71 
3 74 75 71 
3 58 71 75 
3 76 58 75 
3 74 76 75 
3 77 58 76 
3 77 40 58 
3 38 77 76 
3 38 40 77 
3 74 78 76 
3 78 79 76 
3 79 80 76 
3 38 76 80 
3 38 80 34 
3 79 34 80 
3 37 34 79 
3 81 37 79 
3 82 81 79 
3 83 79 78 
3 83 78 74 
3 82 79 83 
3 84 74 73 
3 84 73 69 
3 81 36 37 
3 85 36 81 
3 86 85 81 
3 86 81 87 
3 86 87 88 
3 86 88 89 
3 86 89 90 
3 89 91 90 
3 88 91 89 
3 88 92 91 
3 88 93 92 
3 94 91 92 
3 94 92 93 
3 94 95 91 
3 95 96 91 
3 96 97 91 
3 90 91 97 
3 96 98 97 
3 90 97 98 
3 96 99 98 
3 99 100 98 
3 100 101 98 
3 102 98 101 
3 100 103 101 
3 102 101 103 
3 100 104 103 
3 104 105 103 
3 105 106 103 
3 107 103 106 
3 105 108 106 
3 107 106 108 
3 105 109 108 
3 109 110 108 
3 110 111 108 
3 112 108 111 
3 113 108 112 
3 107 108 113 
3 114 113 112 
3 114 107 113 
3 115 114 112 
3 116 103 107 
3 102 103 116 
3 117 116 107 
3 117 102 116 
3 118 117 107 
3 114 118 107 
3 118 119 117 
3 114 119 118 
3 119 120 117 
3 117 120 121 
3 120 122 121 
3 119 122 120 
3 119 123 122 
3 122 123 124 
3 122 124 125 
3 122 125 28 
3 126 122 28 
3 121 122 126 
3 127 126 28 
3 121 126 127 
3 127 28 29 
3 127 29 30 
3 128 127 30 
3 36 128 30 
3 25 28 125 
3 124 25 125 
3 129 25 124 
3 129 16 25 
3 24 129 124 
3 24 16 129 
3 123 130 124 
3 130 131 124 
3 24 124 131 
3 132 24 131 
3 130 132 131 
3 133 24 132 
3 133 21 24 
3 130 134 132 
3 135 134 130 
3 136 127 128 
3 136 128 36 
3 136 36 85 
3 136 85 86 
3 137 136 86 
3 137 86 90 
3 138 137 90 
3 138 136 137 
3 138 90 139 
3 138 139 102 
3 139 98 102 
3 90 98 139 
3 140 138 102 
3 117 140 102 
3 138 141 136 
3 141 127 136 
3 121 127 141 
3 121 141 138 
3 140 121 138 
3 117 121 140 
3 135 130 142 
3 142 130 119 
3 119 130 123 
3 114 142 119 
3 135 142 114 
3 115 135 114 
3 143 144 145 
3 143 146 144 
3 146 147 144 
3 147 148 144 
3 149 145 144 
3 147 150 148 
3 151 144 148 
3 151 148 150 
3 147 152 150 
3 152 153 150 
3 153 154 150 
3 153 155 154 
3 156 150 154 
3 156 154 155 
3 153 157 155 
3 157 158 155 
3 158 159 155 
3 158 160 159 
3 161 155 159 
3 161 159 160 
3 158 162 160 
3 162 163 160 
3 163 164 160 
3 163 165 164 
3 166 160 164 
3 166 164 165 
3 163 167 165 
3 167 168 165 
3 168 169 165 
3 168 170 169 
3 171 165 169 
3 171 169 170 
3 168 172 170 
3 172 173 170 
3 173 174 170 
3 173 175 174 
3 176 170 174 
3 176 174 175 
3 173 177 175 
3 177 178 175 
3 178 179 175 
3 178 180 179 
3 181 175 179 
3 181 179 180 
3 178 182 180 
3 182 183 180 
3 183 184 180 
3 185 180 184 
3 186 183 182 
3 186 182 178 
3 187 178 177 
3 187 177 173 
3 188 173 172 
3 189 173 188 
3 189 188 190 
3 187 189 190 
3 190 188 191 
3 188 192 191 
3 188 193 192 
3 193 194 192 
3 192 194 195 
3 194 196 195 
3 194 197 196 
3 197 198 196 
3 196 198 199 
3 198 200 199 
3 198 201 200 
3 201 202 200 
3 200 202 203 
3 202 204 203 
3 202 205 204 
3 205 206 204 
3 204 206 207 
3 206 208 207 
3 206 209 208 
3 209 210 208 
3 208 210 211 
3 210 212 211 
3 210 213 212 
3 214 211 212 
3 214 208 211 
3 215 214 212 
3 210 143 213 
3 210 146 143 
3 210 147 146 
3 209 147 210 
3 206 147 209 
3 206 152 147 
3 206 153 152 
3 205 153 206 
3 216 207 208 
3 217 216 208 
3 214 217 208 
3 216 204 207 
3 216 218 204 
3 218 219 204 
3 219 203 204 
3 219 200 203 
3 219 220 200 
3 220 221 200 
3 221 199 200 
3 221 196 199 
3 221 222 196 
3 222 223 196 
3 223 195 196 
3 223 192 195 
3 223 224 192 
3 224 225 192 
3 225 191 192 
3 225 190 191 
3 225 226 190 
3 226 227 190 
3 227 228 190 
3 187 190 228 
3 229 187 228 
3 227 229 228 
3 230 187 229 
3 230 178 187 
3 186 230 229 
3 186 178 230 
3 227 231 229 
3 231 232 229 
3 232 233 229 
3 186 229 233 
3 234 186 233 
3 232 234 233 
3 235 186 234 
3 235 183 186 
3 232 236 234 
3 237 236 232 
3 238 232 231 
3 238 231 227 
3 238 227 239 
3 239 227 240 
3 240 227 226 
3 240 226 225 
3 240 225 241 
3 241 225 242 
3 242 225 224 
3 242 224 223 
3 242 223 243 
3 243 223 244 
3 244 223 222 
3 244 222 221 
3 244 221 245 
3 245 221 246 
3 246 221 220 
3 246 220 219 
3 246 219 247 
3 247 219 248 
3 248 219 218 
3 248 218 216 
3 248 216 249 
3 249 216 250 
3 250 216 217 
3 250 217 214 
3 250 214 251 
3 251 214 252 
3 252 214 215 
3 253 251 252 
3 250 251 253 
3 253 252 254 
3 253 254 255 
3 253 255 256 
3 253 256 257 
3 256 258 257 
3 255 258 256 
3 255 259 258 
3 260 258 259 
3 260 261 258 
3 261 262 258 
3 262 263 258 
3 257 258 263 
3 262 264 263 
3 257 263 264 
3 262 265 264 
3 265 266 264 
3 266 267 264 
3 268 264 267 
3 266 269 267 
3 268 267 269 
3 266 270 269 
3 270 271 269 
3 271 272 269 
3 273 269 272 
3 271 274 272 
3 273 272 274 
3 271 275 274 
3 275 276 274 
3 276 277 274 
3 278 274 277 
3 276 279 277 
3 278 277 279 
3 276 280 279 
3 280 281 279 
3 281 282 279 
3 283 279 282 
3 281 284 282 
3 283 282 284 
3 281 285 284 
3 285 286 284 
3 286 287 284 
3 288 284 287 
3 286 289 287 
3 288 287 289 
3 286 290 289 
3 290 291 289 
3 291 292 289 
3 293 289 292 
3 291 294 292 
3 293 292 294 
3 291 295 294 
3 295 296 294 
3 296 297 294 
3 298 294 297 
3 299 294 298 
3 293 294 299 
3 300 299 298 
3 300 293 299 
3 301 300 298 
3 302 289 293 
3 288 289 302 
3 303 302 293 
3 303 288 302 
3 304 303 293 
3 300 304 293 
3 304 238 303 
3 300 238 304 
3 238 239 303 
3 303 239 240 
3 303 240 305 
3 303 305 288 
3 305 306 288 
3 305 240 306 
3 306 307 288 
3 307 284 288 
3 283 284 307 
3 306 283 307 
3 306 308 283 
3 308 309 283 
3 309 310 283 
3 310 279 283 
3 278 279 310 
3 309 278 310 
3 309 311 278 
3 311 312 278 
3 312 313 278 
3 313 274 278 
3 273 274 313 
3 312 273 313 
3 312 314 273 
3 314 315 273 
3 315 316 273 
3 316 269 273 
3 268 269 316 
3 315 268 316 
3 315 317 268 
3 317 318 268 
3 318 319 268 
3 319 264 268 
3 257 264 319 
3 318 257 319 
3 318 320 257 
3 320 253 257 
3 320 250 253 
3 318 250 320 
3 318 249 250 
3 248 249 318 
3 317 248 318 
3 315 248 317 
3 315 247 248 
3 246 247 315 
3 314 246 315 
3 312 246 314 
3 312 245 246 
3 244 245 312 
3 311 244 312 
3 309 244 311 
3 309 243 244 
3 242 243 309 
3 308 242 309 
3 306 242 308 
3 306 241 242 
3 240 241 306 
3 57 41 7 
3 57 7 321 
3 6 321 7 
3 322 42 57 
3 56 42 322 
3 323 46 56 
3 55 46 323 
3 324 50 55 
3 54 50 324 
3 6 1 325 
3 325 1 9 
3 9 8 326 
3 326 8 14 
3 14 13 327 
3 327 13 19 
3 19 18 328 
3 328 18 23 
3 188 172 168 
3 188 168 193 
3 193 168 194 
3 194 168 167 
3 194 167 163 
3 194 163 197 
3 197 163 198 
3 198 163 162 
3 198 162 158 
3 198 158 201 
3 201 158 202 
3 202 158 157 
3 202 157 153 
3 202 153 205 
3 25 11 27 
3 187 173 189 
3 329 330 331 
3 329 332 330 
3 332 333 330 
3 333 334 330 
3 333 335 334 
3 333 336 335 
3 336 337 335 
3 337 338 335 
3 337 339 338 
3 337 340 339 
3 340 341 339 
3 341 342 339 
3 341 343 342 
3 341 344 343 
3 344 345 343 
3 345 346 343 
3 345 347 346 
3 345 348 347 
3 348 349 347 
3 349 350 347 
3 349 351 350 
3 349 352 351 
3 352 353 351 
3 353 354 351 
3 353 355 354 
3 353 356 355 
3 356 357 355 
3 357 358 355 
3 357 359 358 
3 357 360 359 
3 360 361 359 
3 361 362 359 
3 361 363 362 
3 361 364 363 
3 364 365 363 
3 365 366 363 
3 365 367 366 
3 365 368 367 
3 368 369 367 
3 369 370 367 
3 369 371 370 
3 369 372 371 
3 372 373 371 
3 373 374 371 
3 373 375 374 
3 373 376 375 
3 373 377 376 
3 373 378 377 
3 373 379 378 
3 372 379 373 
3 369 379 372 
3 369 380 379 
3 369 381 380 
3 368 381 369 
3 365 381 368 
3 365 382 381 
3 365 383 382 
3 364 383 365 
3 361 383 364 
3 361 384 383 
3 361 385 384 
3 360 385 361 
3 357 385 360 
3 357 386 385 
3 357 387 386 
3 356 387 357 
3 353 387 356 
3 353 388 387 
3 353 389 388 
3 352 389 353 
3 349 389 352 
3 349 390 389 
3 349 391 390 
3 348 391 349 
3 345 391 348 
3 345 392 391 
3 345 393 392 
3 344 393 345 
3 341 393 344 
3 341 394 393 
3 341 395 394 
3 340 395 341 
3 337 395 340 
3 337 396 395 
3 337 397 396 
3 336 397 337 
3 333 397 336 
3 333 398 397 
3 333 399 398 
3 332 399 333 
3 329 399 332 
3 329 400 399 
3 329 401 400 
3 329 402 401 
3 403 401 402 
3 403 402 404 
3 329 404 402 
3 403 404 405 
3 403 405 406 
3 407 403 406 
3 408 407 406 
3 408 406 409 
3 408 409 410 
3 411 408 410 
3 412 411 410 
3 412 410 413 
3 412 413 414 
3 415 412 414 
3 416 415 414 
3 416 414 417 
3 416 417 418 
3 419 416 418 
3 408 420 407 
3 408 421 420 
3 408 422 421 
3 411 422 408 
3 412 422 411 
3 412 423 422 
3 412 424 423 
3 415 424 412 
3 416 424 415 
3 416 425 424 
3 416 426 425 
3 419 426 416 
3 403 420 427 
3 403 427 401 
3 407 420 403 
3 428 180 185 
3 181 180 428 
3 429 175 181 
3 176 175 429 
3 430 170 176 
3 171 170 430 
3 431 165 171 
3 166 165 431 
3 432 160 166 
3 161 160 432 
3 433 155 161 
3 156 155 433 
3 434 150 156 
3 151 150 434 
3 435 144 151 
3 149 144 435 
3 329 331 404 
3 436 69 68 
3 436 68 64 
3 436 64 437 
3 437 64 438 
3 438 64 65 
3 439 437 438 
3 436 437 439 
3 439 438 440 
3 439 440 441 
3 439 441 442 
3 439 442 443 
3 442 444 443 
3 441 444 442 
3 441 445 444 
3 446 444 445 
3 446 447 444 
3 447 448 444 
3 448 449 444 
3 443 444 449 
3 448 450 449 
3 443 449 450 
3 448 451 450 
3 451 452 450 
3 452 453 450 
3 454 450 453 
3 452 455 453 
3 454 453 455 
3 452 456 455 
3 456 457 455 
3 457 458 455 
3 459 455 458 
3 457 93 458 
3 459 458 93 
3 457 460 93 
3 459 93 461 
3 88 461 93 
3 462 459 461 
3 462 461 88 
3 463 455 459 
3 454 455 463 
3 464 463 459 
3 464 454 463 
3 465 464 459 
3 462 465 459 
3 464 466 454 
3 466 467 454 
3 467 468 454 
3 467 443 468 
3 443 450 468 
3 468 450 454 
3 467 469 443 
3 469 439 443 
3 462 88 87 
3 462 87 81 
3 469 436 439 
3 467 436 469 
3 467 470 436 
3 470 69 436 
3 84 69 470 
3 84 470 467 
3 466 84 467 
3 464 84 466 
3 464 471 84 
3 471 74 84 
3 83 74 471 
3 83 471 464 
3 465 83 464 
3 462 83 465 
3 462 82 83 
3 462 81 82 
3 472 232 238 
3 300 472 238 
3 237 232 472 
3 237 472 300 
3 301 237 300 
3 94 93 460 
