ply
format ascii 1.0
comment VCGLIB generated
element vertex 473
property float x
property float y
property float z
property float nx
property float ny
property float nz
property float texture_u
property float texture_v
element face 768
property list uchar int vertex_indices
end_header
-532.3068 143.902 191.1722 0.1601954 0.2215389 0.9619033 0.272438 0.500000
-366.2562 80.85486 171.5882 0.4130161 0.9012012 0.1313549 0.260274 0.439128
-515.1239 167.6635 171.5882 0.5809062 0.8033018 0.1313559 0.260274 0.500000
-378.4731 54.19812 191.1721 0.1138971 0.2485476 0.9619 0.272438 0.439128
-210.095 -3.770874 191.1721 0.06320555 0.2659754 0.9619055 0.272438 0.378255
-203.3131 24.75732 171.5882 0.2292588 0.9644618 0.1313542 0.260274 0.378255
-530.5776 146.2933 142.1847 0.4362101 0.6032415 -0.6676978 0.246623 0.500000
-644.1959 281.8465 171.5882 0.726456 0.6745422 0.1313563 0.260274 0.560872
-32.55701 1.526245 171.5882 0.0367149 0.9906553 0.1313552 0.260274 0.317383
-209.4126 -0.8999023 142.1847 0.1721588 0.7242511 -0.6676989 0.246623 0.378255
-33.64302 -27.77686 191.1721 0.01010221 0.2732077 0.9619021 0.272438 0.317383
144.1019 -16.89771 191.1721 -0.0433678 0.269941 0.9618998 0.272438 0.256511
139.4503 12.05444 171.5882 -0.1572348 0.9787825 0.1313852 0.260274 0.256511
306.0984 55.93689 171.5882 -0.3451693 0.9293032 0.131354 0.260274 0.195639
143.6338 -13.98407 142.1847 -0.1180771 0.7350152 -0.6676905 0.246623 0.256511
316.3089 28.44879 191.1721 -0.09518871 0.2562986 0.9618993 0.272438 0.195639
476.3607 106.5199 191.1722 -0.143348 0.2327999 0.9619021 0.272438 0.134766
460.9835 131.488 171.5882 -0.5198374 0.844106 0.1313559 0.260274 0.134766
598.1534 235.804 171.5882 -0.6745422 0.7264561 0.1313563 0.260274 0.073894
474.8133 109.0327 142.1847 -0.3903743 0.6338592 -0.6677053 0.246623 0.134766
618.1058 214.3156 191.1722 -0.186015 0.2003283 0.961908 0.272438 0.073894
736.0977 347.6929 191.1722 -0.2056665 0.1819531 0.9615583 0.272438 0.013022
712.3364 364.8757 171.5882 -0.7425612 0.6568935 0.1307438 0.260274 0.013022
733.7067 349.4221 142.1847 -0.558775 0.4943188 -0.6658974 0.246623 0.013022
645.7413 184.5529 191.1722 0.2740292 -0.2951176 0.9153216 0.285978 0.073894
330.4512 -9.623901 191.1721 0.1402043 -0.3775201 0.9153258 0.285978 0.195639
-35.14719 -68.36328 191.1721 -0.01489333 -0.402426 0.9153314 0.285978 0.317383
150.5446 -56.9978 191.1721 0.06387639 -0.3976037 0.9153311 0.285978 0.256511
152.2873 -67.84424 180.1864 0.1470746 -0.9154981 0.374476 0.291053 0.256511
-35.55405 -79.34143 180.1864 -0.0343341 -0.9266016 0.374474 0.291053 0.317383
-222.0291 -53.97174 180.1864 -0.2144313 -0.9021012 0.3744766 0.291053 0.378255
-219.4883 -43.28387 191.1721 -0.09311343 -0.3918031 0.9153252 0.285978 0.378255
-395.3946 17.27679 191.1721 -0.1677628 -0.3661061 0.9153262 0.285978 0.439128
-399.9716 7.289795 180.1864 -0.386319 -0.8429261 0.3744775 0.291053 0.439128
-562.5435 102.0895 180.1865 -0.5433417 -0.7513636 0.3744763 0.291053 0.500000
-556.1061 110.9913 191.1722 -0.2359726 -0.326339 0.915325 0.285978 0.500000
-399.9716 7.289795 -0.8278732 -0.4166198 -0.9090808 -3.973719e-08 0.350000 0.439128
-562.5435 102.0895 -0.827857 -0.5859771 -0.8103276 -3.542054e-08 0.350000 0.500000
-695.4468 234.2587 191.1722 -0.2951174 -0.2740292 0.9153216 0.285978 0.560872
-665.6844 261.8941 191.1722 0.2003582 0.1860139 0.961902 0.272438 0.560872
-773.4797 403.6393 191.1722 0.2327999 0.143348 0.9619021 0.272438 0.621745
-748.512 419.0161 171.5882 0.8441026 0.5198353 0.1313854 0.260274 0.621745
-824.0627 573.9013 171.5883 0.9293031 0.3451694 0.131354 0.260274 0.682617
-851.5508 563.6908 191.1723 0.2562986 0.09518867 0.9618993 0.272438 0.682617
-896.8976 735.8981 191.1723 0.269941 0.04336776 0.9618998 0.272438 0.743489
-867.9454 740.5497 171.5883 0.9787863 0.1572355 0.1313558 0.260274 0.743489
-878.4736 912.557 171.5883 0.9906553 -0.03671492 0.1313552 0.260274 0.804361
-907.7767 913.643 191.1723 0.2732077 -0.01010225 0.9619021 0.272438 0.804361
-883.7705 1090.095 191.1723 0.2659754 -0.06320558 0.9619055 0.272438 0.865234
-855.2423 1083.313 171.5883 0.9644618 -0.2292588 0.1313542 0.260274 0.865234
-799.1447 1246.256 171.5884 0.9011976 -0.4130146 0.1313843 0.260274 0.926106
-825.8015 1258.473 191.1724 0.2485476 -0.1138971 0.9619 0.272438 0.926106
-736.0977 1412.307 191.1724 0.2372219 -0.1383411 0.9615548 0.272438 0.986978
-712.3364 1395.124 171.5884 0.8564454 -0.4994076 0.1307417 0.260274 0.986978
-733.7067 1410.578 142.1849 0.6444803 -0.3757864 -0.6659051 0.246623 0.986978
-880.8998 1089.413 142.1849 0.724251 -0.1721588 -0.6676989 0.246623 0.865234
-893.984 736.3662 142.1848 0.7350152 0.1180771 -0.6676905 0.246623 0.743489
-770.9672 405.1867 142.1847 0.6338771 0.390367 -0.6676926 0.246623 0.621745
-889.6235 549.5488 191.1723 -0.3775201 -0.1402043 0.9153258 0.285978 0.682617
-948.3632 915.1472 191.1723 -0.402426 0.01489329 0.9153314 0.285978 0.804361
-862.7231 1275.395 191.1724 -0.3661061 0.1677628 0.9153262 0.285978 0.926106
-769.0085 1436.106 191.1724 -0.3492945 0.2036871 0.9146065 0.285978 0.986978
-777.9104 1442.544 180.1867 -0.8015367 0.4674078 0.3729194 0.291053 0.986978
-872.7098 1279.972 180.1867 -0.842926 0.3863191 0.3744776 0.291053 0.926106
-872.7098 1279.972 -0.8276465 -0.9090808 0.4166198 1.821103e-08 0.350000 0.926106
-777.9104 1442.544 -0.8276184 -0.8638697 0.5037155 2.20181e-08 0.350000 0.986978
-933.9717 1102.029 180.1866 -0.9021011 0.2144313 0.3744767 0.291053 0.865234
-923.2838 1099.488 191.1723 -0.391803 0.0931134 0.9153253 0.285978 0.865234
-933.9717 1102.029 -0.8276783 -0.9728887 0.2312737 1.010929e-08 0.350000 0.865234
-959.3414 915.5541 -0.8277105 -0.9993145 0.03701961 1.618179e-09 0.350000 0.804361
-959.3414 915.5541 180.1866 -0.9266016 0.03433409 0.374474 0.291053 0.804361
-947.8442 727.7126 180.1866 -0.9154981 -0.1470746 0.374476 0.291053 0.743489
-936.9974 729.4553 191.1723 -0.3976298 -0.06387567 0.9153199 0.285978 0.743489
-947.8442 727.7126 -0.8277456 -0.987342 -0.1586061 -6.932892e-09 0.350000 0.743489
-899.9216 545.7235 -0.8277775 -0.9374233 -0.348192 -1.521996e-08 0.350000 0.682617
-899.9216 545.7235 180.1866 -0.8692144 -0.3228611 0.3744692 0.291053 0.682617
-817.4159 376.5805 180.1865 -0.7895278 -0.4862296 0.3744686 0.291053 0.621745
-808.0619 382.3414 191.1722 -0.3429118 -0.2111617 0.9153264 0.285978 0.621745
-817.4159 376.5805 -0.827806 -0.8514842 -0.5243802 -2.292139e-08 0.350000 0.621745
-703.4973 226.7836 -0.8278335 -0.7328078 -0.6804358 -2.97428e-08 0.350000 0.560872
-703.4973 226.7836 180.1865 -0.6794847 -0.6309282 0.3744734 0.291053 0.560872
-562.5435 102.0895 -181.8422 -0.5433417 -0.7513636 -0.3744763 0.408947 0.500000
-703.4973 226.7836 -181.8421 -0.6794847 -0.6309282 -0.3744734 0.408947 0.560872
-817.4159 376.5805 -181.8421 -0.7895278 -0.4862296 -0.3744687 0.408947 0.621745
-947.8442 727.7127 -181.8421 -0.9154981 -0.1470746 -0.374476 0.408947 0.743489
-399.9716 7.289795 -181.8422 -0.386319 -0.842926 -0.3744775 0.408947 0.439128
-395.3946 17.27679 -192.8279 -0.1677628 -0.3661061 -0.9153262 0.414022 0.439128
-556.1061 110.9913 -192.8279 -0.2359726 -0.326339 -0.915325 0.414022 0.500000
-532.3068 143.9023 -192.8279 0.1601954 0.2215389 -0.9619033 0.427562 0.500000
-378.4731 54.19812 -192.8279 0.1138971 0.2485477 -0.9619 0.427562 0.439128
-210.095 -3.770874 -192.8279 0.06320555 0.2659756 -0.9619055 0.427562 0.378255
-366.2562 80.85486 -173.2439 0.4130161 0.9012012 -0.1313549 0.439727 0.439128
-515.1239 167.6635 -173.2439 0.5809062 0.8033018 -0.1313559 0.439727 0.500000
-644.1959 281.8465 -173.2438 0.726456 0.6745422 -0.1313563 0.439727 0.560872
-530.5776 146.2933 -143.8404 0.4362101 0.6032415 0.6676978 0.453377 0.500000
-377.2437 56.88068 -143.8404 0.3101682 0.6767349 0.6677017 0.453377 0.439128
-209.4126 -0.8999023 -143.8404 0.1721588 0.724251 0.6676989 0.453377 0.378255
-203.3131 24.75732 -173.2439 0.2292588 0.9644618 -0.1313541 0.439727 0.378255
-32.55701 1.526245 -173.2439 0.0367149 0.9906553 -0.1313551 0.439727 0.317383
-33.53376 -24.82825 -143.8404 0.02755832 0.7439275 0.6676919 0.453377 0.317383
143.6338 -13.98407 -143.8404 -0.1180771 0.7350152 0.6676905 0.453377 0.256511
139.4503 12.05444 -173.2439 -0.1572354 0.9787863 -0.1313557 0.439727 0.256511
144.1019 -16.89771 -192.8279 -0.0433678 0.269941 -0.9618998 0.427562 0.256511
306.0984 55.93689 -173.2439 -0.3451693 0.9293032 -0.131354 0.439727 0.195639
315.2814 31.21509 -143.8404 -0.2591993 0.6978505 0.6676978 0.453377 0.195639
474.8133 109.0327 -143.8404 -0.3903743 0.6338592 0.6677053 0.453377 0.134766
460.9835 131.488 -173.2439 -0.5198374 0.844106 -0.1313559 0.439727 0.134766
476.3607 106.5199 -192.8279 -0.143348 0.2328 -0.9619021 0.427562 0.134766
598.1534 235.804 -173.2438 -0.6745422 0.7264561 -0.1313563 0.439727 0.073894
616.098 216.478 -143.8404 -0.5065286 0.5455316 0.6677006 0.453377 0.073894
733.7067 349.4221 -143.8403 -0.5587751 0.4943187 0.6658975 0.453377 0.013022
712.3364 364.876 -173.2438 -0.7425612 0.6568935 -0.1307437 0.439727 0.013022
736.0977 347.6932 -192.8279 -0.2056665 0.1819531 -0.9615583 0.427562 0.013022
618.1058 214.3156 -192.8279 -0.1860139 0.2003582 -0.961902 0.427562 0.073894
645.7413 184.5529 -192.8279 0.2740293 -0.2951175 -0.9153216 0.414022 0.073894
769.0085 323.8939 -192.8279 0.3028457 -0.2679005 -0.9146113 0.414022 0.013022
316.3089 28.44879 -192.8279 -0.0951887 0.2562987 -0.9618992 0.427562 0.195639
330.4512 -9.623901 -192.8279 0.1402043 -0.3775201 -0.9153258 0.414022 0.195639
497.6586 71.93799 -192.8279 0.2111615 -0.3429118 -0.9153264 0.414022 0.134766
503.4195 62.58405 -181.8422 0.4862295 -0.7895278 -0.3744686 0.408947 0.134766
334.2765 -19.922 -181.8422 0.3228611 -0.8692144 -0.3744691 0.408947 0.195639
152.2873 -67.84424 -181.8422 0.1470746 -0.9154981 -0.374476 0.408947 0.256511
334.2765 -19.922 -0.8278773 0.348192 -0.9374233 -4.097607e-08 0.350000 0.195639
503.4195 62.58405 -0.8278648 0.5243802 -0.8514842 -3.721955e-08 0.350000 0.134766
503.4195 62.58405 180.1864 0.4862295 -0.7895278 0.3744685 0.291053 0.134766
334.2765 -19.922 180.1864 0.3228611 -0.8692144 0.3744691 0.291053 0.195639
152.2873 -67.84424 -0.8278854 0.1586061 -0.987342 -4.315809e-08 0.350000 0.256511
-35.55405 -79.34143 -0.827889 -0.03701961 -0.9993145 -4.368142e-08 0.350000 0.317383
-222.0291 -53.97174 -0.8278848 -0.2312737 -0.9728887 -4.252632e-08 0.350000 0.378255
497.6586 71.93799 191.1722 0.2111615 -0.3429118 0.9153264 0.285978 0.134766
653.2164 176.5027 -0.8278418 0.6804357 -0.7328078 -3.203204e-08 0.350000 0.073894
653.2164 176.5027 180.1865 0.6309281 -0.6794847 0.3744733 0.291053 0.073894
777.9104 317.4562 180.1865 0.6949528 -0.6147789 0.3729445 0.291053 0.013022
769.0085 323.8936 191.1722 0.3028457 -0.2679006 0.9146113 0.285978 0.013022
777.9104 317.4562 -0.8278176 0.7489998 -0.6625702 -2.896187e-08 0.350000 0.013022
777.9104 317.4562 -181.8421 0.6949528 -0.6147789 -0.3729445 0.408947 0.013022
-222.0291 -53.97174 -181.8422 -0.2144313 -0.9021012 -0.3744767 0.408947 0.378255
-219.4883 -43.28387 -192.8279 -0.09314318 -0.391802 -0.9153227 0.414022 0.378255
-35.14719 -68.36328 -192.8279 -0.01489333 -0.402426 -0.9153314 0.414022 0.317383
-33.64302 -27.77686 -192.8279 0.01010221 0.2732077 -0.9619021 0.427562 0.317383
150.5446 -56.9978 -192.8279 0.06387639 -0.3976037 -0.9153311 0.414022 0.256511
-35.55405 -79.34143 -181.8422 -0.0343341 -0.9266016 -0.374474 0.408947 0.317383
653.2164 176.5027 -181.8422 0.6309281 -0.6794847 -0.3744733 0.408947 0.073894
736.0977 347.6929 191.1722 -0.2372229 0.1383117 0.9615588 0.042438 0.986823
799.1447 513.7438 171.5883 -0.9011976 0.4130146 0.1313844 0.030274 0.925970
712.3364 364.8757 171.5882 -0.8564454 0.4994076 0.1307417 0.030274 0.986823
825.8015 501.5266 191.1723 -0.2485476 0.1138971 0.9619 0.042438 0.925970
883.7705 669.9049 191.1723 -0.2659754 0.0632055 0.9619055 0.042438 0.865117
855.2423 676.6868 171.5883 -0.9644618 0.2292588 0.1313542 0.030274 0.865117
733.7067 349.4221 142.1847 -0.6444803 0.3757865 -0.6659051 0.016623 0.986823
878.4736 847.4429 171.5883 -0.9906553 0.03671489 0.1313552 0.030274 0.804264
880.8998 670.5874 142.1848 -0.724251 0.1721588 -0.6676989 0.016623 0.865117
907.7767 846.3569 191.1723 -0.2732077 0.01010217 0.9619021 0.042438 0.804264
896.8976 1024.102 191.1723 -0.269941 -0.04336784 0.9618998 0.042438 0.743412
867.9454 1019.45 171.5883 -0.9787825 -0.1572348 0.1313852 0.030274 0.743412
824.0627 1186.099 171.5884 -0.9293031 -0.3451694 0.131354 0.030274 0.682559
893.984 1023.634 142.1849 -0.7350152 -0.118077 -0.6676905 0.016623 0.743412
851.5508 1196.309 191.1724 -0.2562986 -0.09518876 0.9618992 0.042438 0.682559
773.4797 1356.361 191.1724 -0.2327999 -0.143348 0.9619021 0.042438 0.621706
748.512 1340.984 171.5884 -0.844106 -0.5198374 0.1313559 0.030274 0.621706
644.1959 1478.154 171.5884 -0.726456 -0.6745422 0.1313563 0.030274 0.560853
770.9672 1354.813 142.1849 -0.6338592 -0.3903744 -0.6677054 0.016623 0.621706
665.6844 1498.106 191.1724 -0.2003582 -0.186014 0.961902 0.042438 0.560853
532.3068 1616.098 191.1725 -0.1601954 -0.2215389 0.9619033 0.042438 0.500000
515.1239 1592.336 171.5884 -0.5809062 -0.8033018 0.1313559 0.030274 0.500000
366.2562 1679.145 171.5885 -0.4130161 -0.9012012 0.1313549 0.030274 0.439147
530.5776 1613.707 142.1849 -0.4362101 -0.6032415 -0.6676978 0.016623 0.500000
378.4731 1705.802 191.1725 -0.1138971 -0.2485477 0.9619 0.042438 0.439147
210.095 1763.771 191.1725 -0.06320555 -0.2659756 0.9619055 0.042438 0.378294
203.3131 1735.243 171.5885 -0.2292588 -0.9644618 0.1313541 0.030274 0.378294
32.55701 1758.474 171.5885 -0.0367149 -0.9906553 0.1313551 0.030274 0.317441
209.4126 1760.9 142.185 -0.1721588 -0.724251 -0.6676989 0.016623 0.378294
33.64302 1787.777 191.1725 -0.01010221 -0.2732077 0.9619021 0.042438 0.317441
-144.1019 1776.898 191.1725 0.0433678 -0.269941 0.9618998 0.042438 0.256588
-139.4503 1747.946 171.5885 0.1572354 -0.9787863 0.1313557 0.030274 0.256588
-306.0984 1704.063 171.5885 0.3451693 -0.9293032 0.131354 0.030274 0.195736
-143.6338 1773.984 142.185 0.1180771 -0.7350152 -0.6676905 0.016623 0.256588
-316.3089 1731.551 191.1725 0.0951887 -0.2562987 0.9618992 0.042438 0.195736
-476.3607 1653.48 191.1725 0.143348 -0.2328 0.9619021 0.042438 0.134883
-460.9835 1628.512 171.5885 0.5198374 -0.844106 0.1313559 0.030274 0.134883
-598.1534 1524.196 171.5884 0.6745422 -0.7264561 0.1313563 0.030274 0.074030
-474.8133 1650.967 142.1849 0.3903743 -0.6338592 -0.6677053 0.016623 0.134883
-618.1058 1545.684 191.1724 0.186015 -0.2003284 0.961908 0.042438 0.074030
-736.0977 1412.307 191.1724 0.2056665 -0.1819531 0.9615583 0.042438 0.013177
-712.3364 1395.124 171.5884 0.7425612 -0.6568935 0.1307437 0.030274 0.013177
-733.7067 1410.578 142.1849 0.5587751 -0.4943187 -0.6658975 0.016623 0.013177
-645.7413 1575.447 191.1724 -0.2740293 0.2951175 0.9153216 0.055978 0.074030
-330.4512 1769.624 191.1725 -0.1402043 0.3775201 0.9153258 0.055978 0.195736
35.14719 1828.363 191.1725 0.01489333 0.402426 0.9153314 0.055978 0.317441
-150.5446 1816.998 191.1725 -0.06387639 0.3976037 0.9153311 0.055978 0.256588
-152.2873 1827.844 180.1868 -0.1470746 0.9154981 0.374476 0.061053 0.256588
35.55405 1839.341 180.1868 0.0343341 0.9266016 0.374474 0.061053 0.317441
222.0291 1813.972 180.1868 0.2144313 0.9021012 0.3744767 0.061053 0.378294
219.4883 1803.284 191.1725 0.09311344 0.391803 0.9153253 0.055978 0.378294
395.3946 1742.723 191.1725 0.1677628 0.3661061 0.9153262 0.055978 0.439147
399.9716 1752.71 180.1868 0.386319 0.842926 0.3744775 0.061053 0.439147
562.5435 1657.911 180.1868 0.5433417 0.7513636 0.3744763 0.061053 0.500000
556.1061 1649.009 191.1725 0.2359726 0.326339 0.915325 0.055978 0.500000
695.4468 1525.741 191.1724 0.2951174 0.2740292 0.9153216 0.055978 0.560853
703.4973 1533.216 180.1867 0.6794847 0.6309282 0.3744734 0.061053 0.560853
817.4159 1383.419 180.1867 0.7895278 0.4862296 0.3744687 0.061053 0.621706
808.0619 1377.659 191.1724 0.3429118 0.2111616 0.9153264 0.055978 0.621706
889.6235 1210.451 191.1724 0.3775201 0.1402042 0.9153258 0.055978 0.682559
899.9216 1214.276 180.1867 0.8692144 0.3228611 0.3744692 0.061053 0.682559
947.8442 1032.287 180.1866 0.9154981 0.1470746 0.374476 0.061053 0.743412
936.9974 1030.545 191.1723 0.3976298 0.06387558 0.9153199 0.055978 0.743412
948.3632 844.8527 191.1723 0.402426 -0.01489337 0.9153314 0.055978 0.804264
959.3414 844.4459 180.1866 0.9265908 -0.03433372 0.3745006 0.061053 0.804264
933.9717 657.9708 180.1866 0.9021011 -0.2144314 0.3744767 0.061053 0.865117
923.2838 660.5116 191.1723 0.391803 -0.09311347 0.9153253 0.055978 0.865117
862.7231 484.6051 191.1722 0.3661061 -0.1677629 0.9153262 0.055978 0.925970
872.7098 480.0283 180.1865 0.842926 -0.3863191 0.3744775 0.061053 0.925970
777.9104 317.4562 180.1865 0.8015367 -0.4674078 0.3729194 0.061053 0.986823
769.0085 323.8936 191.1722 0.3492945 -0.2036871 0.9146065 0.055978 0.986823
872.7098 480.0283 -0.8277895 0.9090808 -0.4166198 -1.821103e-08 0.120000 0.925970
777.9104 317.4562 -0.8278176 0.8638697 -0.5037155 -2.20181e-08 0.120000 0.986823
959.3414 844.4459 -0.8277225 0.9993145 -0.03701961 -1.618179e-09 0.120000 0.804264
933.9717 657.9708 -0.8277578 0.9728887 -0.2312737 -1.010929e-08 0.120000 0.865117
947.8442 1032.287 -0.8276904 0.987342 0.1586061 6.932892e-09 0.120000 0.743412
899.9216 1214.276 -0.8276584 0.9374233 0.348192 1.521996e-08 0.120000 0.682559
817.4159 1383.419 -0.8276269 0.8514842 0.5243802 2.292139e-08 0.120000 0.621706
703.4973 1533.216 -0.8276025 0.7328078 0.6804358 2.97428e-08 0.120000 0.560853
562.5435 1657.911 -0.827579 0.5859771 0.8103276 3.542054e-08 0.120000 0.500000
399.9716 1752.71 -0.8275628 0.4166198 0.9090808 3.973719e-08 0.120000 0.439147
222.0291 1813.972 -0.8275511 0.2312737 0.9728887 4.252632e-08 0.120000 0.378294
35.55405 1839.341 -0.8275471 0.03701961 0.9993145 4.368142e-08 0.120000 0.317441
-152.2873 1827.844 -0.8275476 -0.1586061 0.987342 4.315809e-08 0.120000 0.256588
-334.2765 1779.922 -0.8275586 -0.348192 0.9374233 4.097607e-08 0.120000 0.195736
-334.2765 1779.922 180.1868 -0.3228611 0.8692144 0.3744691 0.061053 0.195736
-503.4195 1697.416 180.1868 -0.4862295 0.7895278 0.3744686 0.061053 0.134883
-497.6586 1688.062 191.1725 -0.2111615 0.3429118 0.9153264 0.055978 0.134883
-503.4195 1697.416 -0.8275713 -0.5243802 0.8514842 3.721955e-08 0.120000 0.134883
-653.2164 1583.497 -0.8275912 -0.6804357 0.7328078 3.203204e-08 0.120000 0.074030
-653.2164 1583.497 180.1867 -0.6309281 0.6794847 0.3744733 0.061053 0.074030
-777.9104 1442.544 180.1867 -0.6949528 0.6147789 0.3729445 0.061053 0.013177
-769.0085 1436.106 191.1724 -0.3028457 0.2679005 0.9146113 0.055978 0.013177
-777.9104 1442.544 -0.8276184 -0.7489867 0.6625851 2.896251e-08 0.120000 0.013177
-777.9104 1442.544 -181.8419 -0.6949528 0.6147789 -0.3729445 0.178948 0.013177
-503.4195 1697.416 -181.8419 -0.4862295 0.7895278 -0.3744685 0.178948 0.134883
-334.2765 1779.922 -181.8419 -0.3228611 0.8692144 -0.3744691 0.178948 0.195736
-152.2873 1827.844 -181.8419 -0.1470746 0.9154981 -0.374476 0.178948 0.256588
35.55405 1839.341 -181.8419 0.0343341 0.9266016 -0.374474 0.178948 0.317441
222.0291 1813.972 -181.8419 0.2144313 0.9021012 -0.3744766 0.178948 0.378294
399.9716 1752.71 -181.8419 0.386319 0.8429261 -0.3744775 0.178948 0.439147
562.5435 1657.911 -181.8419 0.5433417 0.7513636 -0.3744763 0.178948 0.500000
703.4973 1533.216 -181.8419 0.6794847 0.6309282 -0.3744734 0.178948 0.560853
817.4159 1383.419 -181.8419 0.7895278 0.4862296 -0.3744686 0.178948 0.621706
899.9216 1214.276 -181.842 0.8692144 0.3228611 -0.3744692 0.178948 0.682559
947.8442 1032.287 -181.842 0.9154981 0.1470746 -0.374476 0.178948 0.743412
959.3414 844.4459 -181.842 0.9266016 -0.03433409 -0.374474 0.178948 0.804264
933.9717 657.9709 -181.8421 0.9021011 -0.2144313 -0.3744767 0.178948 0.865117
872.7098 480.0283 -181.8421 0.842926 -0.3863191 -0.3744776 0.178948 0.925970
777.9104 317.4562 -181.8421 0.8015367 -0.4674078 -0.3729194 0.178948 0.986823
862.7231 484.6054 -192.8278 0.3661061 -0.1677628 -0.9153262 0.184022 0.925970
769.0085 323.8939 -192.8279 0.3492945 -0.2036871 -0.9146065 0.184022 0.986823
736.0977 347.6932 -192.8279 -0.2372219 0.1383411 -0.9615548 0.197562 0.986823
825.8015 501.5266 -192.8278 -0.2485476 0.1138971 -0.9619 0.197562 0.925970
883.7705 669.9049 -192.8278 -0.2659754 0.06320558 -0.9619055 0.197562 0.865117
799.1447 513.7438 -173.2438 -0.9011976 0.4130146 -0.1313843 0.209727 0.925970
712.3364 364.876 -173.2438 -0.8564454 0.4994076 -0.1307417 0.209727 0.986823
733.7067 349.4221 -143.8403 -0.6444803 0.3757864 0.6659051 0.223377 0.986823
823.1189 502.756 -143.8403 -0.6767517 0.3101617 0.6676878 0.223377 0.925970
880.8998 670.5874 -143.8403 -0.724251 0.1721588 0.6676989 0.223377 0.865117
855.2423 676.6868 -173.2438 -0.9644618 0.2292588 -0.1313542 0.209727 0.865117
878.4736 847.443 -173.2437 -0.9906553 0.03671492 -0.1313552 0.209727 0.804264
904.8279 846.4663 -143.8403 -0.7439276 0.02755829 0.6676918 0.223377 0.804264
893.984 1023.634 -143.8402 -0.7350152 -0.1180771 0.6676905 0.223377 0.743412
867.9454 1019.45 -173.2437 -0.9787863 -0.1572355 -0.1313558 0.209727 0.743412
896.8976 1024.102 -192.8277 -0.269941 -0.04336776 -0.9618998 0.197562 0.743412
824.0627 1186.099 -173.2437 -0.9293031 -0.3451694 -0.131354 0.209727 0.682559
848.7849 1195.282 -143.8402 -0.6978505 -0.2591995 0.6676978 0.223377 0.682559
770.9672 1354.813 -143.8402 -0.6338771 -0.390367 0.6676926 0.223377 0.621706
748.512 1340.984 -173.2437 -0.8441026 -0.5198353 -0.1313854 0.209727 0.621706
773.4797 1356.361 -192.8276 -0.2327999 -0.143348 -0.9619021 0.197562 0.621706
644.1959 1478.154 -173.2437 -0.726456 -0.6745422 -0.1313563 0.209727 0.560853
663.522 1496.098 -143.8401 -0.5455315 -0.5065287 0.6677006 0.223377 0.560853
530.5776 1613.707 -143.8401 -0.4362101 -0.6032415 0.6676978 0.223377 0.500000
515.1239 1592.336 -173.2436 -0.5809062 -0.8033018 -0.1313559 0.209727 0.500000
532.3068 1616.098 -192.8276 -0.1601954 -0.2215389 -0.9619033 0.197562 0.500000
366.2562 1679.145 -173.2436 -0.4130161 -0.9012012 -0.1313549 0.209727 0.439147
377.2437 1703.119 -143.8401 -0.3101682 -0.6767349 0.6677017 0.223377 0.439147
209.4126 1760.9 -143.8401 -0.1721588 -0.7242511 0.6676989 0.223377 0.378294
203.3131 1735.243 -173.2436 -0.2292588 -0.9644618 -0.1313542 0.209727 0.378294
210.095 1763.771 -192.8276 -0.06320555 -0.2659754 -0.9619055 0.197562 0.378294
32.55701 1758.474 -173.2436 -0.0367149 -0.9906553 -0.1313552 0.209727 0.317441
33.53376 1784.828 -143.8401 -0.02755832 -0.7439276 0.6676918 0.223377 0.317441
-143.6338 1773.984 -143.8401 0.1180771 -0.7350152 0.6676905 0.223377 0.256588
-139.4503 1747.946 -173.2436 0.1572354 -0.9787863 -0.1313558 0.209727 0.256588
-144.1019 1776.898 -192.8276 0.0433678 -0.269941 -0.9618998 0.197562 0.256588
-306.0984 1704.063 -173.2436 0.3451693 -0.9293032 -0.131354 0.209727 0.195736
-315.2814 1728.785 -143.8401 0.2591993 -0.6978505 0.6676978 0.223377 0.195736
-474.8133 1650.967 -143.8401 0.3903743 -0.6338592 0.6677053 0.223377 0.134883
-460.9835 1628.512 -173.2436 0.5198374 -0.844106 -0.1313559 0.209727 0.134883
-476.3607 1653.48 -192.8276 0.143348 -0.2327999 -0.9619021 0.197562 0.134883
-598.1534 1524.196 -173.2436 0.6745422 -0.7264561 -0.1313563 0.209727 0.074030
-616.098 1543.522 -143.8401 0.5065286 -0.5455316 0.6677006 0.223377 0.074030
-733.7067 1410.578 -143.8402 0.558775 -0.4943188 0.6658974 0.223377 0.013177
-712.3364 1395.124 -173.2437 0.7425612 -0.6568935 -0.1307438 0.209727 0.013177
-736.0977 1412.307 -192.8276 0.2056665 -0.1819531 -0.9615583 0.197562 0.013177
-618.1058 1545.684 -192.8276 0.186015 -0.2003283 -0.961908 0.197562 0.074030
-645.7413 1575.447 -192.8276 -0.2740292 0.2951176 -0.9153216 0.184022 0.074030
-769.0085 1436.106 -192.8276 -0.3028457 0.2679006 -0.9146113 0.184022 0.013177
-316.3089 1731.551 -192.8276 0.09518871 -0.2562986 -0.9618993 0.197562 0.195736
-330.4512 1769.624 -192.8276 -0.1402043 0.3775201 -0.9153258 0.184022 0.195736
-497.6586 1688.062 -192.8276 -0.2111615 0.3429118 -0.9153264 0.184022 0.134883
-150.5446 1816.998 -192.8276 -0.06387639 0.3976037 -0.9153311 0.184022 0.256588
35.14719 1828.363 -192.8276 0.01489333 0.402426 -0.9153314 0.184022 0.317441
33.64302 1787.777 -192.8276 -0.01010221 -0.2732077 -0.9619021 0.197562 0.317441
219.4883 1803.284 -192.8276 0.09311343 0.3918031 -0.9153252 0.184022 0.378294
395.3946 1742.723 -192.8276 0.1677628 0.3661061 -0.9153262 0.184022 0.439147
378.4731 1705.802 -192.8276 -0.1138971 -0.2485476 -0.9619 0.197562 0.439147
556.1061 1649.009 -192.8276 0.2359726 0.326339 -0.915325 0.184022 0.500000
695.4468 1525.741 -192.8276 0.2951174 0.2740292 -0.9153216 0.184022 0.560853
665.6844 1498.106 -192.8276 -0.2003582 -0.1860139 -0.961902 0.197562 0.560853
808.0619 1377.659 -192.8276 0.3429118 0.2111617 -0.9153264 0.184022 0.621706
889.6235 1210.451 -192.8277 0.3775201 0.1402043 -0.9153258 0.184022 0.682559
851.5508 1196.309 -192.8277 -0.2562986 -0.09518867 -0.9618993 0.197562 0.682559
936.9974 1030.545 -192.8277 0.3976298 0.06387567 -0.9153199 0.184022 0.743412
948.3632 844.8528 -192.8278 0.402426 -0.01489329 -0.9153314 0.184022 0.804264
907.7767 846.357 -192.8278 -0.2732077 0.01010225 -0.9619021 0.197562 0.804264
923.2838 660.5116 -192.8278 0.391803 -0.0931134 -0.9153253 0.184022 0.865117
-663.522 263.902 142.1847 0.5455315 0.5065287 -0.6677006 0.246623 0.560872
-848.7849 564.7183 142.1848 0.6978505 0.2591995 -0.6676978 0.246623 0.682617
-904.8279 913.5337 142.1848 0.7439276 -0.02755829 -0.6676918 0.246623 0.804361
-823.1189 1257.244 142.1849 0.6767517 -0.3101617 -0.6676878 0.246623 0.926106
-377.2437 56.88068 142.1847 0.3101682 0.6767349 -0.6677017 0.246623 0.439128
-33.53376 -24.82825 142.1847 0.02755832 0.7439276 -0.6676918 0.246623 0.317383
315.2814 31.21509 142.1847 -0.2591993 0.6978505 -0.6676978 0.246623 0.195639
616.098 216.478 142.1847 -0.5065286 0.5455316 -0.6677006 0.246623 0.073894
-663.522 263.902 -0.8278289 0.7328078 0.6804358 2.97428e-08 0.830000 0.294375
-770.9672 405.1867 142.1847 0.8514842 0.5243802 2.292139e-08 0.853668 0.323750
-663.522 263.902 142.1847 0.7328078 0.6804358 2.97428e-08 0.853668 0.294375
-770.9672 405.1867 -0.8278018 0.8514842 0.5243802 2.292139e-08 0.830000 0.323750
-848.7849 564.7183 -0.8277738 0.9374233 0.348192 1.521996e-08 0.830000 0.353125
-848.7849 564.7183 142.1848 0.9374233 0.348192 1.521996e-08 0.853668 0.353125
-893.984 736.3662 142.1848 0.987342 0.1586061 6.932892e-09 0.853668 0.382500
-893.984 736.3662 -0.8277422 0.987342 0.1586061 6.932892e-09 0.830000 0.382500
-904.8279 913.5338 -0.8277106 0.9993145 -0.03701961 -1.618179e-09 0.830000 0.411875
-904.8279 913.5337 142.1848 0.9993145 -0.03701961 -1.618179e-09 0.853668 0.411875
-880.8998 1089.413 142.1849 0.9728887 -0.2312737 -1.010929e-08 0.853668 0.441250
-880.8998 1089.413 -0.8276819 0.9728887 -0.2312737 -1.010929e-08 0.830000 0.441250
-823.1189 1257.244 -0.8276505 0.9090808 -0.4166198 -1.821103e-08 0.830000 0.470625
-823.1189 1257.244 142.1849 0.9090808 -0.4166198 -1.821103e-08 0.853668 0.470625
-733.7067 1410.578 142.1849 0.8103276 -0.5859772 -2.561388e-08 0.853668 0.500000
-733.7067 1410.578 -0.8276229 0.8103276 -0.5859772 -2.561388e-08 0.830000 0.500000
-616.098 1543.522 -0.827599 0.6804357 -0.7328078 -3.203204e-08 0.830000 0.529375
-616.098 1543.522 142.1849 0.6804357 -0.7328078 -3.203204e-08 0.853668 0.529375
-474.8133 1650.967 142.1849 0.5243802 -0.8514842 -3.721955e-08 0.853668 0.558750
-474.8133 1650.967 -0.8275793 0.5243802 -0.8514842 -3.721955e-08 0.830000 0.558750
-315.2814 1728.785 -0.8275669 0.348192 -0.9374233 -4.097607e-08 0.830000 0.588125
-315.2814 1728.785 142.185 0.348192 -0.9374233 -4.097607e-08 0.853668 0.588125
-143.6338 1773.984 142.185 0.1586061 -0.987342 -4.315809e-08 0.853668 0.617500
-143.6338 1773.984 -0.8275589 0.1586061 -0.987342 -4.315809e-08 0.830000 0.617500
33.53376 1784.828 -0.8275554 -0.03701961 -0.9993145 -4.368142e-08 0.830000 0.646875
33.53376 1784.828 142.185 -0.03701961 -0.9993145 -4.368142e-08 0.853668 0.646875
209.4126 1760.9 142.185 -0.2312737 -0.9728887 -4.252632e-08 0.853668 0.676250
209.4126 1760.9 -0.8275595 -0.2312737 -0.9728887 -4.252632e-08 0.830000 0.676250
377.2437 1703.119 -0.8275711 -0.4166198 -0.9090808 -3.973719e-08 0.830000 0.705625
377.2437 1703.119 142.185 -0.4166198 -0.9090808 -3.973719e-08 0.853668 0.705625
530.5776 1613.707 142.1849 -0.5859771 -0.8103276 -3.542054e-08 0.853668 0.735000
530.5776 1613.707 -0.8275869 -0.5859771 -0.8103276 -3.542054e-08 0.830000 0.735000
663.522 1496.098 -0.8276072 -0.7328078 -0.6804358 -2.97428e-08 0.830000 0.764375
663.522 1496.098 142.1849 -0.7328078 -0.6804358 -2.97428e-08 0.853668 0.764375
770.9672 1354.813 142.1849 -0.8514842 -0.5243802 -2.292139e-08 0.853668 0.793750
770.9672 1354.813 -0.8276342 -0.8514842 -0.5243802 -2.292139e-08 0.830000 0.793750
848.7849 1195.282 -0.8276622 -0.9374233 -0.348192 -1.521996e-08 0.830000 0.823125
848.7849 1195.281 142.1849 -0.9374233 -0.348192 -1.521996e-08 0.853668 0.823125
893.984 1023.634 142.1849 -0.987342 -0.1586061 -6.932892e-09 0.853668 0.852500
893.984 1023.634 -0.8276907 -0.987342 -0.1586061 -6.932892e-09 0.830000 0.852500
904.8279 846.4662 -0.8277224 -0.9993145 0.03701961 1.618179e-09 0.830000 0.881875
904.8279 846.4662 142.1848 -0.9993145 0.03701961 1.618179e-09 0.853668 0.881875
880.8998 670.5874 142.1848 -0.9728887 0.2312737 1.010929e-08 0.853668 0.911250
880.8998 670.5874 -0.8277541 -0.9728887 0.2312737 1.010929e-08 0.830000 0.911250
823.1189 502.756 -0.8277855 -0.9090808 0.4166198 1.821103e-08 0.830000 0.940625
823.1189 502.756 142.1848 -0.9090808 0.4166198 1.821103e-08 0.853668 0.940625
733.7067 349.4221 142.1847 -0.8638697 0.5037155 2.20181e-08 0.853668 0.970000
733.7067 349.4221 -0.8278131 -0.8638697 0.5037155 2.20181e-08 0.830000 0.970000
733.7067 349.4221 -143.8403 -0.8638697 0.5037155 2.20181e-08 0.806332 0.970000
823.1189 502.756 -143.8403 -0.9090808 0.4166198 1.821103e-08 0.806332 0.940625
880.8998 670.5874 -143.8403 -0.9728887 0.2312737 1.010929e-08 0.806332 0.911250
904.8279 846.4663 -143.8403 -0.9993145 0.03701961 1.618179e-09 0.806332 0.881875
893.984 1023.634 -143.8402 -0.987342 -0.1586061 -6.932892e-09 0.806332 0.852500
848.7849 1195.282 -143.8402 -0.9374233 -0.348192 -1.521996e-08 0.806332 0.823125
770.9672 1354.813 -143.8402 -0.8514842 -0.5243802 -2.292139e-08 0.806332 0.793750
663.522 1496.098 -143.8401 -0.7328078 -0.6804358 -2.97428e-08 0.806332 0.764375
530.5776 1613.707 -143.8401 -0.5859771 -0.8103276 -3.542054e-08 0.806332 0.735000
377.2437 1703.119 -143.8401 -0.4166198 -0.9090808 -3.973719e-08 0.806332 0.705625
209.4126 1760.9 -143.8401 -0.2312737 -0.9728887 -4.252632e-08 0.806332 0.676250
33.53376 1784.828 -143.8401 -0.03701961 -0.9993145 -4.368142e-08 0.806332 0.646875
-143.6338 1773.984 -143.8401 0.1586061 -0.987342 -4.315809e-08 0.806332 0.617500
-315.2814 1728.785 -143.8401 0.348192 -0.9374233 -4.097607e-08 0.806332 0.588125
-474.8133 1650.967 -143.8401 0.5243802 -0.8514842 -3.721955e-08 0.806332 0.558750
-616.098 1543.522 -143.8401 0.6804357 -0.7328078 -3.203204e-08 0.806332 0.529375
-733.7067 1410.578 -143.8402 0.8103276 -0.5859772 -2.561388e-08 0.806332 0.500000
-823.1189 1257.244 -143.8402 0.9090808 -0.4166198 -1.821103e-08 0.806332 0.470625
-880.8998 1089.413 -143.8402 0.9728887 -0.2312737 -1.010929e-08 0.806332 0.441250
-904.8279 913.5338 -143.8403 0.9993145 -0.03701961 -1.618179e-09 0.806332 0.411875
-893.984 736.3663 -143.8403 0.987342 0.1586061 6.932892e-09 0.806332 0.382500
-848.7849 564.7186 -143.8403 0.9374233 0.348192 1.521996e-08 0.806332 0.353125
-770.9672 405.1867 -143.8403 0.8514842 0.5243802 2.292139e-08 0.806332 0.323750
-663.522 263.902 -143.8404 0.7328078 0.6804358 2.97428e-08 0.806332 0.294375
-530.5776 146.2933 -143.8404 0.5859771 0.8103276 3.542054e-08 0.806332 0.265000
-530.5776 146.2933 -0.827849 0.5859771 0.8103276 3.542054e-08 0.830000 0.265000
-377.2437 56.88068 -0.827865 0.4166198 0.9090808 3.973719e-08 0.830000 0.235625
-530.5776 146.2933 142.1847 0.5859771 0.8103276 3.542054e-08 0.853668 0.265000
-377.2437 56.88068 142.1847 0.4166198 0.9090808 3.973719e-08 0.853668 0.235625
-209.4126 -0.8999023 142.1847 0.2312737 0.9728887 4.252632e-08 0.853668 0.206250
-209.4126 -0.8999023 -0.8278736 0.2312737 0.9728887 4.252632e-08 0.830000 0.206250
-33.53376 -24.82825 -0.8278775 0.03701961 0.9993145 4.368142e-08 0.830000 0.176875
-33.53376 -24.82825 142.1847 0.03701961 0.9993145 4.368142e-08 0.853668 0.176875
143.6338 -13.98407 142.1847 -0.1586061 0.987342 4.315809e-08 0.853668 0.147500
143.6338 -13.98407 -0.827877 -0.1586061 0.987342 4.315809e-08 0.830000 0.147500
315.2814 31.21509 -0.8278691 -0.348192 0.9374233 4.097607e-08 0.830000 0.118125
315.2814 31.21509 142.1847 -0.348192 0.9374233 4.097607e-08 0.853668 0.118125
474.8133 109.0327 142.1847 -0.5243802 0.8514842 3.721955e-08 0.853668 0.088750
474.8133 109.0327 -0.8278537 -0.5243802 0.8514842 3.721955e-08 0.830000 0.088750
616.098 216.478 -0.827837 -0.6804357 0.7328078 3.203204e-08 0.830000 0.059375
616.098 216.478 142.1847 -0.6804357 0.7328078 3.203204e-08 0.853668 0.059375
733.7067 349.4221 142.1847 -0.7489998 0.6625702 2.896187e-08 0.853668 0.030000
733.7067 349.4221 -0.8278131 -0.7489998 0.6625702 2.896187e-08 0.830000 0.030000
-209.4126 -0.8999023 -143.8404 0.2312737 0.9728887 4.252632e-08 0.806332 0.206250
-33.53376 -24.82825 -143.8404 0.03701961 0.9993145 4.368142e-08 0.806332 0.176875
143.6338 -13.98407 -143.8404 -0.1586061 0.987342 4.315809e-08 0.806332 0.147500
315.2814 31.21509 -143.8404 -0.348192 0.9374233 4.097607e-08 0.806332 0.118125
474.8133 109.0327 -143.8404 -0.5243802 0.8514842 3.721955e-08 0.806332 0.088750
616.098 216.478 -143.8404 -0.6804357 0.7328078 3.203204e-08 0.806332 0.059375
733.7067 349.4221 -143.8403 -0.7489867 0.6625851 2.896251e-08 0.806332 0.030000
-377.2437 56.88068 -143.8404 0.4166198 0.9090808 3.973719e-08 0.806332 0.235625
-616.098 1543.522 142.1849 0.5065286 -0.5455316 -0.6677006 0.016623 0.074030
-315.2814 1728.785 142.185 0.2591993 -0.6978505 -0.6676978 0.016623 0.195736
33.53376 1784.828 142.185 -0.02755832 -0.7439275 -0.6676919 0.016623 0.317441
377.2437 1703.119 142.185 -0.3101682 -0.6767349 -0.6677017 0.016623 0.439147
663.522 1496.098 142.1849 -0.5455315 -0.5065287 -0.6677006 0.016623 0.560853
848.7849 1195.281 142.1849 -0.6978505 -0.2591994 -0.6676978 0.016623 0.682559
904.8279 846.4662 142.1848 -0.7439276 0.02755835 -0.6676918 0.016623 0.804264
823.1189 502.756 142.1848 -0.6767517 0.3101618 -0.6676878 0.016623 0.925970
-933.9717 1102.029 -181.842 -0.9021011 0.2144314 -0.3744767 0.408947 0.865234
-872.7098 1279.972 -181.8419 -0.842926 0.3863191 -0.3744775 0.408947 0.926106
-777.9104 1442.544 -181.8419 -0.8015367 0.4674078 -0.3729194 0.408947 0.986978
-862.7231 1275.395 -192.8277 -0.3661061 0.1677629 -0.9153262 0.414022 0.926106
-769.0085 1436.106 -192.8276 -0.3492945 0.2036871 -0.9146065 0.414022 0.986978
-736.0977 1412.307 -192.8276 0.2372229 -0.1383117 -0.9615588 0.427562 0.986978
-825.8015 1258.473 -192.8277 0.2485476 -0.1138971 -0.9619 0.427562 0.926106
-883.7705 1090.095 -192.8277 0.2659754 -0.0632055 -0.9619055 0.427562 0.865234
-799.1447 1246.256 -173.2437 0.9011976 -0.4130146 -0.1313844 0.439727 0.926106
-712.3364 1395.124 -173.2437 0.8564454 -0.4994076 -0.1307417 0.439727 0.986978
-733.7067 1410.578 -143.8402 0.6444803 -0.3757865 0.6659051 0.453377 0.986978
-823.1189 1257.244 -143.8402 0.6767517 -0.3101618 0.6676878 0.453377 0.926106
-880.8998 1089.413 -143.8402 0.724251 -0.1721588 0.6676989 0.453377 0.865234
-855.2423 1083.313 -173.2437 0.9644618 -0.2292588 -0.1313542 0.439727 0.865234
-878.4736 912.5571 -173.2437 0.9906553 -0.03671489 -0.1313552 0.439727 0.804361
-904.8279 913.5338 -143.8403 0.7439276 -0.02755835 0.6676918 0.453377 0.804361
-893.984 736.3663 -143.8403 0.7350152 0.118077 0.6676905 0.453377 0.743489
-867.9454 740.5498 -173.2438 0.9787863 0.1572355 -0.1313558 0.439727 0.743489
-896.8976 735.8982 -192.8278 0.269941 0.04336784 -0.9618998 0.427562 0.743489
-824.0627 573.9013 -173.2438 0.9293031 0.3451694 -0.131354 0.439727 0.682617
-848.7849 564.7186 -143.8403 0.6978505 0.2591994 0.6676978 0.453377 0.682617
-770.9672 405.1867 -143.8403 0.6338592 0.3903744 0.6677054 0.453377 0.621745
-748.512 419.0164 -173.2438 0.844106 0.5198374 -0.1313559 0.439727 0.621745
-773.4797 403.6393 -192.8279 0.2327999 0.143348 -0.9619021 0.427562 0.621745
-663.522 263.902 -143.8404 0.5455315 0.5065287 0.6677006 0.453377 0.560872
-665.6844 261.8941 -192.8279 0.2003582 0.186014 -0.961902 0.427562 0.560872
-695.4468 234.2587 -192.8279 -0.2951174 -0.2740292 -0.9153216 0.414022 0.560872
-851.5508 563.6911 -192.8278 0.2562986 0.09518876 -0.9618992 0.427562 0.682617
-889.6235 549.5488 -192.8278 -0.3775201 -0.1402042 -0.9153258 0.414022 0.682617
-808.0619 382.3414 -192.8279 -0.3429118 -0.2111616 -0.9153264 0.414022 0.621745
-936.9974 729.4554 -192.8278 -0.3976298 -0.06387558 -0.9153199 0.414022 0.743489
-948.3632 915.1473 -192.8278 -0.402426 0.01489337 -0.9153314 0.414022 0.804361
-907.7767 913.6431 -192.8278 0.2732077 -0.01010217 -0.9619021 0.427562 0.804361
-923.2838 1099.488 -192.8277 -0.391803 0.09311347 -0.9153253 0.414022 0.865234
-959.3414 915.5541 -181.842 -0.9266015 0.03433411 -0.374474 0.408947 0.804361
-899.9216 545.7235 -181.8421 -0.8692144 -0.3228611 -0.3744692 0.408947 0.682617
-653.2164 1583.497 -181.8419 -0.6309281 0.6794847 -0.3744733 0.178948 0.074030
3 0 1 2 
3 0 3 1 
3 3 4 1 
3 4 5 1 
3 6 2 1 
3 6 7 2 
3 0 2 7 
3 4 8 5 
3 9 1 5 
3 9 5 8 
3 4 10 8 
3 10 11 8 
3 11 12 8 
3 11 13 12 
3 14 8 12 
3 14 12 13 
3 11 15 13 
3 15 16 13 
3 16 17 13 
3 16 18 17 
3 19 13 17 
3 19 17 18 
3 16 20 18 
3 20 21 18 
3 21 22 18 
3 23 18 22 
3 24 21 20 
3 24 20 16 
3 25 16 15 
3 25 15 11 
3 26 11 10 
3 27 11 26 
3 27 26 28 
3 25 27 28 
3 28 26 29 
3 26 30 29 
3 26 31 30 
3 31 32 30 
3 30 32 33 
3 32 34 33 
3 32 35 34 
3 36 33 34 
3 36 30 33 
3 37 36 34 
3 32 0 35 
3 32 3 0 
3 32 4 3 
3 31 4 32 
3 26 4 31 
3 26 10 4 
3 38 35 0 
3 38 34 35 
3 38 0 39 
3 0 7 39 
3 40 39 7 
3 38 39 40 
3 40 7 41 
3 40 41 42 
3 43 40 42 
3 44 43 42 
3 44 42 45 
3 44 45 46 
3 47 44 46 
3 48 47 46 
3 48 46 49 
3 48 49 50 
3 51 48 50 
3 52 51 50 
3 52 50 53 
3 54 53 50 
3 55 50 49 
3 55 49 46 
3 56 46 45 
3 56 45 42 
3 57 42 41 
3 58 43 44 
3 58 40 43 
3 59 44 47 
3 59 47 48 
3 60 48 51 
3 60 51 52 
3 60 52 61 
3 60 61 62 
3 60 62 63 
3 64 63 62 
3 65 64 62 
3 66 60 63 
3 64 66 63 
3 67 60 66 
3 59 67 66 
3 67 48 60 
3 59 48 67 
3 64 68 66 
3 68 69 66 
3 69 70 66 
3 59 66 70 
3 71 59 70 
3 69 71 70 
3 72 59 71 
3 72 44 59 
3 58 72 71 
3 58 44 72 
3 69 73 71 
3 73 74 71 
3 74 75 71 
3 58 71 75 
3 76 58 75 
3 74 76 75 
3 77 58 76 
3 77 40 58 
3 38 77 76 
3 38 40 77 
3 74 78 76 
3 78 79 76 
3 79 80 76 
3 38 76 80 
3 38 80 34 
3 79 34 80 
3 37 34 79 
3 81 37 79 
3 82 81 79 
3 83 79 78 
3 83 78 74 
3 82 79 83 
3 84 74 73 
3 84 73 69 
3 81 36 37 
3 85 36 81 
3 86 85 81 
3 86 81 87 
3 86 87 88 
3 86 88 89 
3 86 89 90 
3 89 91 90 
3 88 91 89 
3 88 92 91 
3 88 93 92 
3 94 91 92 
3 94 92 93 
3 94 95 91 
3 95 96 91 
3 96 97 91 
3 90 91 97 
3 96 98 97 
3 90 97 98 
3 96 99 98 
3 99 100 98 
3 100 101 98 
3 102 98 101 
3 100 103 101 
3 102 101 103 
3 100 104 103 
3 104 105 103 
3 105 106 103 
3 107 103 106 
3 105 108 106 
3 107 106 108 
3 105 109 108 
3 109 110 108 
3 110 111 108 
3 112 108 111 
3 113 108 112 
3 107 108 113 
3 114 113 112 
3 114 107 113 
3 115 114 112 
3 116 103 107 
3 102 103 116 
3 117 116 107 
3 117 102 116 
3 118 117 107 
3 114 118 107 
3 118 119 117 
3 114 119 118 
3 119 120 117 
3 117 120 121 
3 120 122 121 
3 119 122 120 
3 119 123 122 
3 122 123 124 
3 122 124 125 
3 122 125 28 
3 126 122 28 
3 121 122 126 
3 127 126 28 
3 121 126 127 
3 127 28 29 
3 127 29 30 
3 128 127 30 
3 36 128 30 
3 25 28 125 
3 124 25 125 
3 129 25 124 
3 129 16 25 
3 24 129 124 
3 24 16 129 
3 123 130 124 
3 130 131 124 
3 24 124 131 
3 132 24 131 
3 130 132 131 
3 133 24 132 
3 133 21 24 
3 130 134 132 
3 135 134 130 
3 136 127 128 
3 136 128 36 
3 136 36 85 
3 136 85 86 
3 137 136 86 
3 137 86 90 
3 138 137 90 
3 138 136 137 
3 138 90 139 
3 138 139 102 
3 139 98 102 
3 90 98 139 
3 140 138 102 
3 117 140 102 
3 138 141 136 
3 141 127 136 
3 121 127 141 
3 121 141 138 
3 140 121 138 
3 117 121 140 
3 135 130 142 
3 142 130 119 
3 119 130 123 
3 114 142 119 
3 135 142 114 
3 115 135 114 
3 143 144 145 
3 143 146 144 
3 146 147 144 
3 147 148 144 
3 149 145 144 
3 147 150 148 
3 151 144 148 
3 151 148 150 
3 147 152 150 
3 152 153 150 
3 153 154 150 
3 153 155 154 
3 156 150 154 
3 156 154 155 
3 153 157 155 
3 157 158 155 
3 158 159 155 
3 158 160 159 
3 161 155 159 
3 161 159 160 
3 158 162 160 
3 162 163 160 
3 163 164 160 
3 163 165 164 
3 166 160 164 
3 166 164 165 
3 163 167 165 
3 167 168 165 
3 168 169 165 
3 168 170 169 
3 171 165 169 
3 171 169 170 
3 168 172 170 
3 172 173 170 
3 173 174 170 
3 173 175 174 
3 176 170 174 
3 176 174 175 
3 173 177 175 
3 177 178 175 
3 178 179 175 
3 178 180 179 
3 181 175 179 
3 181 179 180 
3 178 182 180 
3 182 183 180 
3 183 184 180 
3 185 180 184 
3 186 183 182 
3 186 182 178 
3 187 178 177 
3 187 177 173 
3 188 173 172 
3 189 173 188 
3 189 188 190 
3 187 189 190 
3 190 188 191 
3 188 192 191 
3 188 193 192 
3 193 194 192 
3 192 194 195 
3 194 196 195 
3 194 197 196 
3 197 198 196 
3 196 198 199 
3 198 200 199 
3 198 201 200 
3 201 202 200 
3 200 202 203 
3 202 204 203 
3 202 205 204 
3 205 206 204 
3 204 206 207 
3 206 208 207 
3 206 209 208 
3 209 210 208 
3 208 210 211 
3 210 212 211 
3 210 213 212 
3 214 211 212 
3 214 208 211 
3 215 214 212 
3 210 143 213 
3 210 146 143 
3 210 147 146 
3 209 147 210 
3 206 147 209 
3 206 152 147 
3 206 153 152 
3 205 153 206 
3 216 207 208 
3 217 216 208 
3 214 217 208 
3 216 204 207 
3 216 218 204 
3 218 219 204 
3 219 203 204 
3 219 200 203 
3 219 220 200 
3 220 221 200 
3 221 199 200 
3 221 196 199 
3 221 222 196 
3 222 223 196 
3 223 195 196 
3 223 192 195 
3 223 224 192 
3 224 225 192 
3 225 191 192 
3 225 190 191 
3 225 226 190 
3 226 227 190 
3 227 228 190 
3 187 190 228 
3 229 187 228 
3 227 229 228 
3 230 187 229 
3 230 178 187 
3 186 230 229 
3 186 178 230 
3 227 231 229 
3 231 232 229 
3 232 233 229 
3 186 229 233 
3 234 186 233 
3 232 234 233 
3 235 186 234 
3 235 183 186 
3 232 236 234 
3 237 236 232 
3 238 232 231 
3 238 231 227 
3 238 227 239 
3 239 227 240 
3 240 227 226 
3 240 226 225 
3 240 225 241 
3 241 225 242 
3 242 225 224 
3 242 224 223 
3 242 223 243 
3 243 223 244 
3 244 223 222 
3 244 222 221 
3 244 221 245 
3 245 221 246 
3 246 221 220 
3 246 220 219 
3 246 219 247 
3 247 219 248 
3 248 219 218 
3 248 218 216 
3 248 216 249 
3 249 216 250 
3 250 216 217 
3 250 217 214 
3 250 214 251 
3 251 214 252 
3 252 214 215 
3 253 251 252 
3 250 251 253 
3 253 252 254 
3 253 254 255 
3 253 255 256 
3 253 256 257 
3 256 258 257 
3 255 258 256 
3 255 259 258 
3 260 258 259 
3 260 261 258 
3 261 262 258 
3 262 263 258 
3 257 258 263 
3 262 264 263 
3 257 263 264 
3 262 265 264 
3 265 266 264 
3 266 267 264 
3 268 264 267 
3 266 269 267 
3 268 267 269 
3 266 270 269 
3 270 271 269 
3 271 272 269 
3 273 269 272 
3 271 274 272 
3 273 272 274 
3 271 275 274 
3 275 276 274 
3 276 277 274 
3 278 274 277 
3 276 279 277 
3 278 277 279 
3 276 280 279 
3 280 281 279 
3 281 282 279 
3 283 279 282 
3 281 284 282 
3 283 282 284 
3 281 285 284 
3 285 286 284 
3 286 287 284 
3 288 284 287 
3 286 289 287 
3 288 287 289 
3 286 290 289 
3 290 291 289 
3 291 292 289 
3 293 289 292 
3 291 294 292 
3 293 292 294 
3 291 295 294 
3 295 296 294 
3 296 297 294 
3 298 294 297 
3 299 294 298 
3 293 294 299 
3 300 299 298 
3 300 293 299 
3 301 300 298 
3 302 289 293 
3 288 289 302 
3 303 302 293 
3 303 288 302 
3 304 303 293 
3 300 304 293 
3 304 238 303 
3 300 238 304 
3 238 239 303 
3 303 239 240 
3 303 240 305 
3 303 305 288 
3 305 306 288 
3 305 240 306 
3 306 307 288 
3 307 284 288 
3 283 284 307 
3 306 283 307 
3 306 308 283 
3 308 309 283 
3 309 310 283 
3 310 279 283 
3 278 279 310 
3 309 278 310 
3 309 311 278 
3 311 312 278 
3 312 313 278 
3 313 274 278 
3 273 274 313 
3 312 273 313 
3 312 314 273 
3 314 315 273 
3 315 316 273 
3 316 269 273 
3 268 269 316 
3 315 268 316 
3 315 317 268 
3 317 318 268 
3 318 319 268 
3 319 264 268 
3 257 264 319 
3 318 257 319 
3 318 320 257 
3 320 253 257 
3 320 250 253 
3 318 250 320 
3 318 249 250 
3 248 249 318 
3 317 248 318 
3 315 248 317 
3 315 247 248 
3 246 247 315 
3 314 246 315 
3 312 246 314 
3 312 245 246 
3 244 245 312 
3 311 244 312 
3 309 244 311 
3 309 243 244 
3 242 243 309 
3 308 242 309 
3 306 242 308 
3 306 241 242 
3 240 241 306 
3 57 41 7 
3 57 7 321 
3 6 321 7 
3 322 42 57 
3 56 42 322 
3 323 46 56 
3 55 46 323 
3 324 50 55 
3 54 50 324 
3 6 1 325 
3 325 1 9 
3 9 8 326 
3 326 8 14 
3 14 13 327 
3 327 13 19 
3 19 18 328 
3 328 18 23 
3 188 172 168 
3 188 168 193 
3 193 168 194 
3 194 168 167 
3 194 167 163 
3 194 163 197 
3 197 163 198 
3 198 163 162 
3 198 162 158 
3 198 158 201 
3 201 158 202 
3 202 158 157 
3 202 157 153 
3 202 153 205 
3 25 11 27 
3 187 173 189 
3 329 330 331 
3 329 332 330 
3 332 333 330 
3 333 334 330 
3 333 335 334 
3 333 336 335 
3 336 337 335 
3 337 338 335 
3 337 339 338 
3 337 340 339 
3 340 341 339 
3 341 342 339 
3 341 343 342 
3 341 344 343 
3 344 345 343 
3 345 346 343 
3 345 347 346 
3 345 348 347 
3 348 349 347 
3 349 350 347 
3 349 351 350 
3 349 352 351 
3 352 353 351 
3 353 354 351 
3 353 355 354 
3 353 356 355 
3 356 357 355 
3 357 358 355 
3 357 359 358 
3 357 360 359 
3 360 361 359 
3 361 362 359 
3 361 363 362 
3 361 364 363 
3 364 365 363 
3 365 366 363 
3 365 367 366 
3 365 368 367 
3 368 369 367 
3 369 370 367 
3 369 371 370 
3 369 372 371 
3 372 373 371 
3 373 374 371 
3 373 375 374 
3 373 376 375 
3 373 377 376 
3 373 378 377 
3 373 379 378 
3 372 379 373 
3 369 379 372 
3 369 380 379 
3 369 381 380 
3 368 381 369 
3 365 381 368 
3 365 382 381 
3 365 383 382 
3 364 383 365 
3 361 383 364 
3 361 384 383 
3 361 385 384 
3 360 385 361 
3 357 385 360 
3 357 386 385 
3 357 387 386 
3 356 387 357 
3 353 387 356 
3 353 388 387 
3 353 389 388 
3 352 389 353 
3 349 389 352 
3 349 390 389 
3 349 391 390 
3 348 391 349 
3 345 391 348 
3 345 392 391 
3 345 393 392 
3 344 393 345 
3 341 393 344 
3 341 394 393 
3 341 395 394 
3 340 395 341 
3 337 395 340 
3 337 396 395 
3 337 397 396 
3 336 397 337 
3 333 397 336 
3 333 398 397 
3 333 399 398 
3 332 399 333 
3 329 399 332 
3 329 400 399 
3 329 401 400 
3 329 402 401 
3 403 401 402 
3 403 402 404 
3 329 404 402 
3 403 404 405 
3 403 405 406 
3 407 403 406 
3 408 407 406 
3 408 406 409 
3 408 409 410 
3 411 408 410 
3 412 411 410 
3 412 410 413 
3 412 413 414 
3 415 412 414 
3 416 415 414 
3 416 414 417 
3 416 417 418 
3 419 416 418 
3 408 420 407 
3 408 421 420 
3 408 422 421 
3 411 422 408 
3 412 422 411 
3 412 423 422 
3 412 424 423 
3 415 424 412 
3 416 424 415 
3 416 425 424 
3 416 426 425 
3 419 426 416 
3 403 420 427 
3 403 427 401 
3 407 420 403 
3 428 180 185 
3 181 180 428 
3 429 175 181 
3 176 175 429 
3 430 170 176 
3 171 170 430 
3 431 165 171 
3 166 165 431 
3 432 160 166 
3 161 160 432 
3 433 155 161 
3 156 155 433 
3 434 150 156 
3 151 150 434 
3 435 144 151 
3 149 144 435 
3 329 331 404 
3 436 69 68 
3 436 68 64 
3 436 64 437 
3 437 64 438 
3 438 64 65 
3 439 437 438 
3 436 437 439 
3 439 438 440 
3 439 440 441 
3 439 441 442 
3 439 442 443 
3 442 444 443 
3 441 444 442 
3 441 445 444 
3 446 444 445 
3 446 447 444 
3 447 448 444 
3 448 449 444 
3 443 444 449 
3 448 450 449 
3 443 449 450 
3 448 451 450 
3 451 452 450 
3 452 453 450 
3 454 450 453 
3 452 455 453 
3 454 453 455 
3 452 456 455 
3 456 457 455 
3 457 458 455 
3 459 455 458 
3 457 93 458 
3 459 458 93 
3 457 460 93 
3 459 93 461 
3 88 461 93 
3 462 459 461 
3 462 461 88 
3 463 455 459 
3 454 455 463 
3 464 463 459 
3 464 454 463 
3 465 464 459 
3 462 465 459 
3 464 466 454 
3 466 467 454 
3 467 468 454 
3 467 443 468 
3 443 450 468 
3 468 450 454 
3 467 469 443 
3 469 439 443 
3 462 88 87 
3 462 87 81 
3 469 436 439 
3 467 436 469 
3 467 470 436 
3 470 69 436 
3 84 69 470 
3 84 470 467 
3 466 84 467 
3 464 84 466 
3 464 471 84 
3 471 74 84 
3 83 74 471 
3 83 471 464 
3 465 83 464 
3 462 83 465 
3 462 82 83 
3 462 81 82 
3 472 232 238 
3 300 472 238 
3 237 232 472 
3 237 472 300 
3 301 237 300 
3 94 93 460 
