ply
format ascii 1.0
comment VCGLIB generated
element vertex 441
property float x
property float y
property float z
property float nx
property float ny
property float nz
property float texture_u
property float texture_v
element face 768
property list uchar int vertex_indices
end_header
0.117845 0.046338 -0.204534 0.4897144 0.1926685 -0.8503286 0.376507 0.828155
0.131046 0.087391 -0.181819 0.551017 0.388126 -0.7387412 0.376507 0.869154
0.138769 0.124163 -0.152301 0.5795134 0.5370278 -0.6129971 0.376507 0.910154
0.14103 0.155163 -0.117914 0.5856386 0.6626408 -0.4668349 0.376507 0.951153
0.154851 0.023108 -0.182636 0.6647333 0.08098695 -0.7426781 0.345604 0.828155
0.184873 -0.000544 -0.153917 0.7842249 -0.01672226 -0.6202513 0.314701 0.828155
0.206985 -0.023422 -0.120321 0.8715778 -0.1115564 -0.4773965 0.283798 0.828155
0.099791 0.003352 -0.218859 0.4016932 -0.01344204 -0.9156756 0.376507 0.787156
0.078076 -0.038986 -0.224172 0.3100334 -0.1874711 -0.9320589 0.376507 0.746156
0.054025 -0.078629 -0.220834 0.2085052 -0.3509179 -0.9128977 0.376507 0.705157
0.075865 0.067706 -0.218012 0.2873378 0.2940645 -0.9115717 0.407411 0.828155
0.03154 0.08597 -0.222448 0.1033872 0.3673935 -0.9243014 0.438314 0.828155
-0.012728 0.100416 -0.218227 -0.08080266 0.4252152 -0.9014782 0.469217 0.828155
0.089736 0.107568 -0.195564 0.3743519 0.4445481 -0.8137799 0.407411 0.869154
0.099219 0.142924 -0.166123 0.4134934 0.5913041 -0.6923746 0.407411 0.910154
0.103349 0.172708 -0.131756 0.4304732 0.7159565 -0.5496355 0.407411 0.951153
0.045716 0.123888 -0.201073 0.1924053 0.5125986 -0.8367933 0.438314 0.869154
0.056905 0.157157 -0.173009 0.2390548 0.6499647 -0.7213866 0.438314 0.910154
0.063424 0.184781 -0.140364 0.2660283 0.7652996 -0.5861276 0.438314 0.951153
0.001561 0.136479 -0.19809 0.008709308 0.5657434 -0.8245354 0.469217 0.869154
0.014583 0.16739 -0.172153 0.06336364 0.6930782 -0.7180722 0.469217 0.910154
0.024554 0.191881 -0.142995 0.1065911 0.7934397 -0.5992426 0.469217 0.951153
0.167045 0.063768 -0.160929 0.6922725 0.2644379 -0.6714397 0.345604 0.869154
0.196088 0.038782 -0.133844 0.8129986 0.1613972 -0.5594499 0.314701 0.869154
0.217452 0.014467 -0.101853 0.9026278 0.06055244 -0.4261415 0.283798 0.869154
0.173175 0.100902 -0.133033 0.7182699 0.4181665 -0.5560802 0.345604 0.910154
0.200909 0.075434 -0.108692 0.8330505 0.3129622 -0.4561597 0.314701 0.910154
0.221161 0.050356 -0.080131 0.9178191 0.2090864 -0.3374777 0.283798 0.910154
0.173957 0.132509 -0.100246 0.7222947 0.5498672 -0.4194479 0.345604 0.951153
0.20035 0.106927 -0.079342 0.8314036 0.44394 -0.3341936 0.314701 0.951153
0.219232 0.08139 -0.056406 0.90953 0.3378665 -0.2420774 0.283798 0.951153
0.136523 -0.018477 -0.197202 0.5667666 -0.07380949 -0.8205656 0.345604 0.787156
0.113777 -0.059077 -0.203552 0.4731352 -0.2421323 -0.8470626 0.345604 0.746156
0.08862 -0.097189 -0.201418 0.3689584 -0.4013305 -0.8383338 0.345604 0.705157
0.166971 -0.039862 -0.168524 0.6929979 -0.1627259 -0.7023348 0.314701 0.787156
0.144172 -0.077711 -0.176193 0.5989919 -0.3187975 -0.7345591 0.314701 0.746156
0.118884 -0.112783 -0.176111 0.4944116 -0.4649227 -0.7344413 0.314701 0.705157
0.189731 -0.06057 -0.134915 0.7880366 -0.2495948 -0.5627617 0.283798 0.787156
0.167354 -0.095179 -0.14423 0.6955925 -0.3918881 -0.6021417 0.283798 0.746156
0.142638 -0.12556 -0.147505 0.5935712 -0.5157287 -0.6178164 0.283798 0.705157
0.05903 0.025133 -0.231846 0.2481114 0.105544 -0.9629648 0.407411 0.787156
0.016279 0.044912 -0.235768 0.07115872 0.1871835 -0.9797443 0.438314 0.787156
-0.026553 0.061033 -0.231168 -0.1074191 0.2540126 -0.9612174 0.469217 0.787156
0.039501 -0.017387 -0.236656 0.1671022 -0.07029893 -0.9834302 0.407411 0.746156
-0.000395 0.003428 -0.240534 0.002808491 0.01594271 -0.999869 0.438314 0.746156
-0.039918 0.021133 -0.236281 -0.1615632 0.08932508 -0.9828115 0.469217 0.746156
0.017618 -0.057399 -0.232945 0.07558693 -0.2368625 -0.9685984 0.407411 0.705157
-0.018739 -0.035652 -0.237163 -0.07368361 -0.1464082 -0.9864762 0.438314 0.705157
-0.052895 -0.015958 -0.234128 -0.2126805 -0.06358144 -0.975051 0.469217 0.705157
-0.077702 -0.208468 -0.0915 -0.3229004 -0.8666333 -0.3803709 0.376507 0.500000
-0.052216 -0.194813 -0.131111 -0.2000114 -0.79821 -0.5682045 0.376507 0.541039
-0.025107 -0.173553 -0.164674 -0.08742534 -0.7060339 -0.7027609 0.376507 0.582079
0.00214 -0.146312 -0.190937 0.02605559 -0.5890098 -0.8077058 0.376507 0.623118
-0.036367 -0.226582 -0.072157 -0.124286 -0.949971 -0.2865452 0.345604 0.500000
0.00567 -0.235183 -0.050252 0.04921541 -0.9796137 -0.194769 0.314701 0.500000
0.046225 -0.234517 -0.027082 0.2171006 -0.9712644 -0.09753398 0.283798 0.500000
-0.099944 -0.213458 -0.048118 -0.427939 -0.887335 -0.1717698 0.376507 0.458961
-0.117713 -0.209759 -0.003681 -0.498411 -0.8668593 0.01189826 0.376507 0.417921
-0.13046 -0.198211 0.039512 -0.5484637 -0.8140666 0.1910056 0.376507 0.376882
-0.115752 -0.181709 -0.107014 -0.5034525 -0.7356766 -0.4531177 0.407411 0.500000
-0.148345 -0.148199 -0.117895 -0.6344017 -0.5935863 -0.4951665 0.438314 0.500000
-0.174277 -0.110136 -0.12396 -0.7383788 -0.4323598 -0.5175537 0.469217 0.500000
-0.090097 -0.16901 -0.145557 -0.3740209 -0.7047796 -0.6028217 0.407411 0.541039
-0.061931 -0.149465 -0.178026 -0.2579046 -0.6239959 -0.737641 0.407411 0.582079
-0.033482 -0.12395 -0.203431 -0.1399459 -0.5176989 -0.8440397 0.407411 0.623118
-0.123362 -0.136841 -0.154678 -0.5117367 -0.5718401 -0.64119 0.438314 0.541039
-0.095169 -0.119921 -0.185555 -0.395392 -0.502584 -0.7688137 0.438314 0.582079
-0.066478 -0.097785 -0.209493 -0.2766206 -0.410646 -0.8688216 0.438314 0.623118
-0.150195 -0.100038 -0.159067 -0.6235447 -0.4186214 -0.6602637 0.469217 0.541039
-0.122446 -0.086337 -0.188206 -0.5088288 -0.3631405 -0.7805269 0.469217 0.582079
-0.094142 -0.069656 -0.210128 -0.3917576 -0.2969368 -0.8708355 0.469217 0.623118
-0.012244 -0.212868 -0.111382 -0.05399504 -0.8850986 -0.4622608 0.345604 0.541039
0.027949 -0.222039 -0.088238 0.1125076 -0.9234101 -0.3669549 0.314701 0.541039
0.066804 -0.222132 -0.063744 0.2747084 -0.9241476 -0.2654929 0.283798 0.541039
0.012606 -0.191335 -0.145261 0.04910905 -0.7965237 -0.6026096 0.345604 0.582079
0.049849 -0.201367 -0.121798 0.2025411 -0.8385311 -0.5058091 0.314701 0.582079
0.085342 -0.203002 -0.096827 0.350354 -0.8457187 -0.4025073 0.283798 0.582079
0.037655 -0.16383 -0.172077 0.1539229 -0.6825147 -0.7144798 0.345604 0.623118
0.071375 -0.175074 -0.14874 0.2923917 -0.7297807 -0.6180025 0.314701 0.623118
0.101653 -0.179437 -0.123845 0.4155507 -0.749748 -0.5149714 0.283798 0.623118
-0.059073 -0.231245 -0.03008 -0.2464621 -0.9606638 -0.1279904 0.345604 0.458961
-0.078412 -0.227063 0.01275 -0.3263223 -0.9439668 0.04940151 0.345604 0.417921
-0.092884 -0.215101 0.054524 -0.3863415 -0.8948129 0.2237188 0.345604 0.376882
-0.016877 -0.239739 -0.010449 -0.07208653 -0.9963157 -0.0464606 0.314701 0.458961
-0.037367 -0.235794 0.029554 -0.1570047 -0.9804778 0.1183759 0.314701 0.417921
-0.053597 -0.224394 0.068142 -0.2242704 -0.9337401 0.2789842 0.314701 0.376882
0.024058 -0.239123 0.010486 0.09815947 -0.9943166 0.04122235 0.283798 0.458961
0.002496 -0.235903 0.047032 0.008445309 -0.9814793 0.1913821 0.283798 0.417921
-0.016028 -0.226122 0.080503 -0.06961539 -0.9422064 0.3277207 0.283798 0.376882
-0.136742 -0.187196 -0.064248 -0.5657555 -0.7796206 -0.2685377 0.407411 0.458961
-0.167866 -0.154207 -0.076876 -0.6950756 -0.6434643 -0.3206612 0.438314 0.458961
-0.192546 -0.116619 -0.084822 -0.7985479 -0.4871998 -0.3534934 0.469217 0.458961
-0.152627 -0.184861 -0.020002 -0.6320851 -0.7701575 -0.08559135 0.407411 0.417921
-0.181819 -0.153761 -0.03418 -0.7527459 -0.6422507 -0.144526 0.438314 0.417921
-0.204594 -0.118514 -0.04432 -0.8480241 -0.4960576 -0.1864998 0.469217 0.417921
-0.163624 -0.17481 0.023186 -0.6786588 -0.7283869 0.09420601 0.407411 0.376882
-0.190751 -0.146382 0.007416 -0.7905499 -0.6117445 0.02827621 0.438314 0.376882
-0.210966 -0.115451 -0.005747 -0.8735958 -0.4858487 -0.02795515 0.469217 0.376882
-0.117845 -0.046338 0.204534 -0.4897155 -0.1926689 0.8503279 0.376507 0.171845
-0.131046 -0.087391 0.181819 -0.551017 -0.388126 0.7387412 0.376507 0.212844
-0.138769 -0.124163 0.152301 -0.5795134 -0.5370278 0.6129971 0.376507 0.253844
-0.14103 -0.155163 0.117914 -0.5856385 -0.6626408 0.4668349 0.376507 0.294843
-0.075865 -0.067706 0.218012 -0.2873382 -0.2940657 0.9115713 0.345604 0.171845
-0.03154 -0.08597 0.222448 -0.103387 -0.3673939 0.9243013 0.314701 0.171845
0.012728 -0.100416 0.218227 0.08080266 -0.4252152 0.9014782 0.283798 0.171845
-0.099791 -0.003352 0.218859 -0.4016943 0.01344312 0.9156751 0.376507 0.130846
-0.078076 0.038986 0.224172 -0.3100332 0.1874701 0.9320592 0.376507 0.089846
-0.054025 0.078629 0.220834 -0.2085038 0.3509174 0.9128982 0.376507 0.048847
-0.154851 -0.023108 0.182636 -0.6647333 -0.08098695 0.7426781 0.407411 0.171845
-0.184873 0.000544 0.153917 -0.7842249 0.01672226 0.6202513 0.438314 0.171845
-0.206985 0.023422 0.120321 -0.8715778 0.1115564 0.4773965 0.469217 0.171845
-0.167045 -0.063768 0.160929 -0.6922725 -0.2644379 0.6714397 0.407411 0.212844
-0.173175 -0.100902 0.133033 -0.7182699 -0.4181665 0.5560802 0.407411 0.253844
-0.173957 -0.132509 0.100246 -0.7222947 -0.5498672 0.4194479 0.407411 0.294843
-0.196088 -0.038782 0.133844 -0.8129986 -0.1613972 0.5594499 0.438314 0.212844
-0.200909 -0.075434 0.108692 -0.8330505 -0.3129622 0.4561597 0.438314 0.253844
-0.20035 -0.106927 0.079342 -0.8314036 -0.44394 0.3341936 0.438314 0.294843
-0.217452 -0.014467 0.101853 -0.9026278 -0.06055244 0.4261415 0.469217 0.212844
-0.221161 -0.050356 0.080131 -0.9178191 -0.2090864 0.3374777 0.469217 0.253844
-0.219232 -0.08139 0.056406 -0.90953 -0.3378665 0.2420774 0.469217 0.294843
-0.089736 -0.107568 0.195564 -0.374352 -0.4445481 0.8137799 0.345604 0.212844
-0.045716 -0.123888 0.201073 -0.1924053 -0.5125986 0.8367933 0.314701 0.212844
-0.001561 -0.136479 0.19809 -0.008709307 -0.5657434 0.8245353 0.283798 0.212844
-0.099219 -0.142924 0.166123 -0.4134934 -0.5913041 0.6923746 0.345604 0.253844
-0.056905 -0.157157 0.173009 -0.2390548 -0.6499647 0.7213866 0.314701 0.253844
-0.014583 -0.16739 0.172153 -0.06336364 -0.6930782 0.7180722 0.283798 0.253844
-0.103349 -0.172708 0.131756 -0.4304732 -0.7159565 0.5496355 0.345604 0.294843
-0.063424 -0.184781 0.140364 -0.2660283 -0.7652996 0.5861276 0.314701 0.294843
-0.024554 -0.191881 0.142995 -0.1065911 -0.7934397 0.5992426 0.283798 0.294843
-0.059031 -0.025133 0.231846 -0.2481125 -0.1055442 0.9629645 0.345604 0.130846
-0.039501 0.017387 0.236656 -0.1671023 0.07030042 0.9834301 0.345604 0.089846
-0.017618 0.057399 0.232945 -0.07558692 0.2368624 0.9685984 0.345604 0.048847
-0.016279 -0.044912 0.235768 -0.07115805 -0.1871842 0.9797442 0.314701 0.130846
0.000395 -0.003428 0.240534 -0.002807893 -0.01594248 0.999869 0.314701 0.089846
0.018739 0.035652 0.237163 0.07368361 0.1464082 0.9864762 0.314701 0.048847
0.026553 -0.061033 0.231168 0.1074191 -0.2540126 0.9612173 0.283798 0.130846
0.039918 -0.021133 0.236281 0.1615632 -0.08932509 0.9828115 0.283798 0.089846
0.052895 0.015958 0.234128 0.2126804 0.06358144 0.975051 0.283798 0.048847
-0.136523 0.018477 0.197202 -0.5667666 0.0738095 0.8205656 0.407411 0.130846
-0.166971 0.039862 0.168524 -0.6929979 0.1627259 0.7023348 0.438314 0.130846
-0.189731 0.06057 0.134915 -0.7880366 0.2495948 0.5627617 0.469217 0.130846
-0.113777 0.059077 0.203552 -0.4731371 0.2421307 0.847062 0.407411 0.089846
-0.144172 0.077711 0.176193 -0.5989928 0.3187971 0.7345585 0.438314 0.089846
-0.167354 0.095179 0.14423 -0.6955925 0.3918881 0.6021417 0.469217 0.089846
-0.088621 0.097189 0.201418 -0.3689591 0.4013307 0.8383334 0.407411 0.048847
-0.118884 0.112783 0.176111 -0.494414 0.4649228 0.7344397 0.438314 0.048847
-0.142638 0.12556 0.147505 -0.5935713 0.5157287 0.6178164 0.469217 0.048847
0.077702 0.208468 0.0915 0.3229004 0.8666333 0.3803709 0.870478 0.500000
0.052216 0.194813 0.131111 0.2000114 0.79821 0.5682044 0.870478 0.458961
0.025107 0.173553 0.164674 0.08742533 0.7060338 0.702761 0.870478 0.417921
-0.00214 0.146312 0.190937 -0.02605559 0.5890098 0.8077058 0.870478 0.376882
0.115752 0.181709 0.107014 0.5034525 0.7356766 0.4531177 0.901381 0.500000
0.148345 0.148199 0.117895 0.6344017 0.5935863 0.4951665 0.932284 0.500000
0.174277 0.110136 0.12396 0.7383788 0.4323598 0.5175537 0.963187 0.500000
0.099944 0.213458 0.048118 0.427939 0.887335 0.1717698 0.870478 0.541039
0.117713 0.209759 0.003681 0.4984111 0.8668592 -0.01189826 0.870478 0.582079
0.13046 0.198211 -0.039512 0.5484637 0.8140666 -0.1910056 0.870478 0.623118
0.036367 0.226582 0.072157 0.124286 0.949971 0.2865452 0.839574 0.500000
-0.00567 0.235183 0.050252 -0.04921541 0.9796137 0.194769 0.808671 0.500000
-0.046225 0.234517 0.027082 -0.2171006 0.9712644 0.09753398 0.777768 0.500000
0.012244 0.212868 0.111382 0.05399504 0.8850986 0.4622608 0.839574 0.458961
-0.012606 0.191335 0.145261 -0.04910905 0.7965237 0.6026095 0.839574 0.417921
-0.037655 0.16383 0.172077 -0.1539229 0.6825147 0.7144798 0.839574 0.376882
-0.027949 0.222039 0.088238 -0.1125076 0.9234101 0.3669549 0.808671 0.458961
-0.049849 0.201367 0.121798 -0.2025411 0.8385311 0.5058091 0.808671 0.417921
-0.071375 0.175074 0.14874 -0.2923918 0.7297808 0.6180025 0.808671 0.376882
-0.066804 0.222132 0.063744 -0.2747084 0.9241476 0.2654929 0.777768 0.458961
-0.085342 0.203002 0.096827 -0.350354 0.8457187 0.4025073 0.777768 0.417921
-0.101653 0.179437 0.123845 -0.4155507 0.749748 0.5149714 0.777768 0.376882
0.090097 0.16901 0.145557 0.3740209 0.7047796 0.6028217 0.901381 0.458961
0.123362 0.136841 0.154678 0.5117367 0.5718401 0.64119 0.932284 0.458961
0.150195 0.100038 0.159067 0.6235447 0.4186214 0.6602637 0.963187 0.458961
0.061931 0.149465 0.178026 0.2579046 0.6239959 0.7376411 0.901381 0.417921
0.095169 0.119921 0.185555 0.395392 0.502584 0.7688137 0.932284 0.417921
0.122446 0.086337 0.188206 0.5088288 0.3631405 0.7805269 0.963187 0.417921
0.033482 0.12395 0.203431 0.1399459 0.5176989 0.8440397 0.901381 0.376882
0.066478 0.097785 0.209493 0.2766206 0.410646 0.8688216 0.932284 0.376882
0.094142 0.069656 0.210128 0.3917576 0.2969368 0.8708355 0.963187 0.376882
0.136742 0.187196 0.064248 0.5657555 0.7796206 0.2685377 0.901381 0.541039
0.152627 0.184861 0.020002 0.6320851 0.7701575 0.08559135 0.901381 0.582079
0.163624 0.17481 -0.023186 0.6786588 0.7283868 -0.09420601 0.901381 0.623118
0.167866 0.154207 0.076876 0.6950756 0.6434644 0.3206612 0.932284 0.541039
0.181819 0.153761 0.03418 0.7527459 0.6422507 0.144526 0.932284 0.582079
0.190751 0.146382 -0.007416 0.7905499 0.6117445 -0.02827621 0.932284 0.623118
0.192546 0.116619 0.084822 0.7985479 0.4871998 0.3534934 0.963187 0.541039
0.204594 0.118514 0.04432 0.8480241 0.4960576 0.1864998 0.963187 0.582079
0.210966 0.115451 0.005747 0.8735958 0.4858487 0.02795515 0.963187 0.623118
0.059073 0.231245 0.03008 0.2464621 0.9606639 0.1279905 0.839574 0.541039
0.016877 0.239739 0.010449 0.07208653 0.9963157 0.0464606 0.808671 0.541039
-0.024058 0.239123 -0.010486 -0.09815947 0.9943166 -0.04122235 0.777768 0.541039
0.078412 0.227063 -0.01275 0.3263223 0.9439668 -0.04940151 0.839574 0.582079
0.037367 0.235794 -0.029554 0.1570048 0.9804778 -0.1183759 0.808671 0.582079
-0.002496 0.235903 -0.047032 -0.008445308 0.9814793 -0.1913821 0.777768 0.582079
0.092884 0.215101 -0.054524 0.3863415 0.8948129 -0.2237188 0.839574 0.623118
0.053597 0.224394 -0.068142 0.2242704 0.9337401 -0.2789842 0.808671 0.623118
0.016028 0.226122 -0.080503 0.06961539 0.9422064 -0.3277207 0.777768 0.623118
-0.195859 0.109913 -0.08618 -0.81406 0.4570262 -0.3583761 0.623492 0.500000
-0.207362 0.065619 -0.10278 -0.8661072 0.2437416 -0.436404 0.592650 0.500000
-0.210398 0.019598 -0.114966 -0.8734953 0.05305424 -0.4839332 0.561806 0.500000
-0.205438 -0.025789 -0.12247 -0.8480075 -0.1356077 -0.5123415 0.530964 0.500000
-0.215361 0.098166 -0.043035 -0.904321 0.3992711 -0.1509507 0.623492 0.458961
-0.225873 0.082761 0.000905 -0.9422238 0.333585 0.03058223 0.623492 0.417921
-0.227578 0.064732 0.043435 -0.9440331 0.256903 0.2068875 0.623492 0.376882
-0.176305 0.149754 -0.066023 -0.7176591 0.6457467 -0.2607236 0.654335 0.500000
-0.150044 0.18291 -0.043579 -0.605404 0.7782331 -0.1668512 0.685179 0.500000
-0.118827 0.208193 -0.020112 -0.4724301 0.8787026 -0.06849523 0.716021 0.500000
-0.168224 0.117152 -0.125875 -0.6790203 0.4899183 -0.546728 0.623492 0.541039
-0.13428 0.11955 -0.159829 -0.5353749 0.4968128 -0.6830452 0.623493 0.582079
-0.096152 0.117307 -0.186715 -0.3741356 0.4846354 -0.790665 0.623492 0.623118
-0.180176 0.073602 -0.141379 -0.7499266 0.3078751 -0.5855108 0.592650 0.541039
-0.184509 0.028079 -0.151779 -0.7680403 0.119559 -0.6291422 0.561806 0.541039
-0.180958 -0.016987 -0.157588 -0.7533455 -0.06814177 -0.654085 0.530964 0.541039
-0.146522 0.077885 -0.174166 -0.6110346 0.3254245 -0.7216201 0.592650 0.582079
-0.152478 0.034276 -0.182878 -0.6362167 0.1456198 -0.7576432 0.561807 0.582079
-0.151275 -0.008702 -0.186839 -0.6314012 -0.03297092 -0.7747551 0.530964 0.582079
-0.108604 0.077647 -0.200112 -0.4534951 0.3241088 -0.8302383 0.592650 0.623118
-0.116542 0.036668 -0.207224 -0.4872544 0.1553824 -0.859325 0.561807 0.623118
-0.11913 -0.0025 -0.208975 -0.5002422 -0.005111771 -0.8658705 0.530964 0.623118
-0.226289 0.055108 -0.060208 -0.9396139 0.2318544 -0.2517327 0.592650 0.458961
-0.236304 0.041962 -0.016377 -0.9816525 0.1771892 -0.07044451 0.592650 0.417921
-0.237687 0.026175 0.026234 -0.9880482 0.1109895 0.1069678 0.592650 0.376882
-0.228629 0.01049 -0.074077 -0.9499061 0.04708362 -0.3089687 0.561806 0.458961
-0.238465 5.2e-05 -0.031674 -0.9909723 0.004416733 -0.1339946 0.561807 0.417921
-0.240053 -0.01237 0.009489 -0.9981838 -0.04752045 0.03702668 0.561807 0.376882
-0.223113 -0.033681 -0.083394 -0.927605 -0.1371419 -0.3474781 0.530964 0.458961
-0.233086 -0.041074 -0.04304 -0.9692431 -0.1666936 -0.1810555 0.530964 0.417921
-0.235569 -0.048518 -0.004693 -0.980515 -0.1950498 -0.02336365 0.530964 0.376882
-0.195944 0.137439 -0.024188 -0.8147873 0.5704346 -0.1035665 0.654335 0.458961
-0.169536 0.170617 -0.003995 -0.705963 0.7079753 -0.0196788 0.685179 0.458961
-0.138132 0.196188 0.017272 -0.575666 0.814734 0.06940591 0.716021 0.458961
-0.207315 0.120668 0.018121 -0.8621423 0.5015619 0.07173826 0.654335 0.417921
-0.181949 0.153304 0.03551 -0.7577833 0.6366109 0.1431473 0.685179 0.417921
-0.151875 0.178759 0.053365 -0.6332641 0.7426803 0.2177212 0.716021 0.417921
-0.210032 0.101244 0.059203 -0.8737093 0.4212689 0.2432381 0.654335 0.376882
-0.186359 0.13322 0.073427 -0.7764115 0.5536854 0.3010277 0.685178 0.376882
-0.159103 0.158495 0.086222 -0.6650839 0.6588328 0.3515718 0.716021 0.376882
-0.14965 0.156123 -0.105353 -0.6243836 0.6472141 -0.4373317 0.654335 0.541039
-0.117216 0.156924 -0.139656 -0.4902937 0.6510893 -0.5793919 0.654335 0.582079
-0.080557 0.153125 -0.167129 -0.3376204 0.6359842 -0.6939284 0.654335 0.623118
-0.125098 0.188538 -0.081685 -0.5228566 0.781762 -0.3398076 0.685178 0.541039
-0.095403 0.188114 -0.115672 -0.400862 0.7800723 -0.4804133 0.685178 0.582079
-0.062156 0.18298 -0.14326 -0.2627864 0.7593629 -0.5952406 0.685179 0.623118
-0.095584 0.213293 -0.056908 -0.3998612 0.8853715 -0.2371253 0.716021 0.541039
-0.069371 0.211856 -0.090407 -0.2927052 0.8792411 -0.3758441 0.716021 0.582079
-0.041812 0.205402 -0.118027 -0.1815021 0.8521621 -0.490792 0.716021 0.623118
0.195859 -0.109913 0.08618 0.81406 -0.4570262 0.3583761 0.129402 0.500000
0.176305 -0.149754 0.066023 0.7176591 -0.6457466 0.2607236 0.160275 0.500000
0.150044 -0.18291 0.043579 0.6054041 -0.7782331 0.1668512 0.191148 0.500000
0.118827 -0.208193 0.020112 0.4724301 -0.8787026 0.06849522 0.222021 0.500000
0.215361 -0.098166 0.043035 0.9043211 -0.3992711 0.1509507 0.129402 0.541039
0.225873 -0.082761 -0.000905 0.9422238 -0.333585 -0.03058223 0.129402 0.582079
0.227578 -0.064732 -0.043435 0.9440331 -0.256903 -0.2068875 0.129402 0.623118
0.207362 -0.065619 0.10278 0.8661072 -0.2437415 0.436404 0.098529 0.500000
0.210398 -0.019598 0.114966 0.8734953 -0.05305424 0.4839332 0.067656 0.500000
0.205438 0.025789 0.12247 0.8480075 0.1356077 0.5123415 0.036782 0.500000
0.168224 -0.117152 0.125875 0.6790203 -0.4899183 0.546728 0.129402 0.458961
0.13428 -0.11955 0.159829 0.5353749 -0.4968128 0.6830452 0.129402 0.417921
0.096152 -0.117307 0.186715 0.3741357 -0.4846354 0.790665 0.129402 0.376882
0.14965 -0.156123 0.105353 0.6243836 -0.6472141 0.4373317 0.160275 0.458961
0.125098 -0.188538 0.081685 0.5228566 -0.7817619 0.3398076 0.191148 0.458961
0.095584 -0.213293 0.056908 0.3998612 -0.8853715 0.2371253 0.222021 0.458961
0.117216 -0.156924 0.139656 0.4902937 -0.6510892 0.5793919 0.160275 0.417921
0.095403 -0.188114 0.115672 0.400862 -0.7800723 0.4804133 0.191148 0.417921
0.069371 -0.211856 0.090407 0.2927052 -0.8792411 0.3758441 0.222021 0.417921
0.080557 -0.153125 0.167129 0.3376204 -0.6359842 0.6939284 0.160275 0.376882
0.062156 -0.18298 0.14326 0.2627864 -0.7593629 0.5952406 0.191148 0.376882
0.041812 -0.205402 0.118027 0.1815021 -0.8521621 0.490792 0.222021 0.376882
0.195944 -0.137439 0.024188 0.8147873 -0.5704346 0.1035665 0.160275 0.541039
0.207315 -0.120668 -0.018121 0.8621423 -0.5015619 -0.07173826 0.160275 0.582079
0.210032 -0.101244 -0.059203 0.8737093 -0.4212689 -0.2432381 0.160275 0.623118
0.169536 -0.170617 0.003995 0.7059629 -0.7079754 0.01967879 0.191148 0.541039
0.181949 -0.153304 -0.03551 0.7577833 -0.6366109 -0.1431473 0.191148 0.582079
0.186359 -0.13322 -0.073427 0.7764115 -0.5536854 -0.3010277 0.191148 0.623118
0.138132 -0.196188 -0.017272 0.575666 -0.814734 -0.0694059 0.222021 0.541039
0.151875 -0.178759 -0.053365 0.6332641 -0.7426803 -0.2177212 0.222021 0.582079
0.159103 -0.158495 -0.086222 0.6650839 -0.6588328 -0.3515718 0.222021 0.623118
0.226289 -0.055108 0.060208 0.9396139 -0.2318543 0.2517326 0.098529 0.541039
0.228629 -0.01049 0.074077 0.9499061 -0.04708362 0.3089687 0.067656 0.541039
0.223113 0.033681 0.083394 0.927605 0.1371419 0.3474781 0.036782 0.541039
0.236304 -0.041962 0.016377 0.9816525 -0.1771892 0.07044451 0.098529 0.582079
0.238465 -5.2e-05 0.031674 0.9909723 -0.004416735 0.1339946 0.067656 0.582079
0.233086 0.041074 0.04304 0.9692431 0.1666936 0.1810555 0.036782 0.582079
0.237687 -0.026175 -0.026234 0.9880482 -0.1109895 -0.1069678 0.098529 0.623118
0.240053 0.01237 -0.009489 0.9981838 0.04752045 -0.03702668 0.067656 0.623118
0.235569 0.048518 0.004693 0.980515 0.1950498 0.02336365 0.036782 0.623118
0.180176 -0.073602 0.141379 0.7499266 -0.3078751 0.5855108 0.098529 0.458961
0.146522 -0.077885 0.174166 0.6110346 -0.3254245 0.7216201 0.098529 0.417921
0.108604 -0.077647 0.200112 0.4534951 -0.3241088 0.8302383 0.098529 0.376882
0.184509 -0.028079 0.151779 0.7680403 -0.119559 0.6291422 0.067656 0.458961
0.152478 -0.034276 0.182878 0.6362167 -0.1456198 0.7576432 0.067656 0.417921
0.116542 -0.036668 0.207224 0.4872544 -0.1553824 0.859325 0.067656 0.376882
0.180958 0.016987 0.157588 0.7533455 0.06814177 0.654085 0.036782 0.458961
0.151275 0.008702 0.186839 0.6314012 0.03297092 0.7747551 0.036782 0.417921
0.11913 0.0025 0.208975 0.5002422 0.00511177 0.8658705 0.036782 0.376882
-0.085978 -0.003285 -0.224646 -0.3529444 0.01095645 -0.9355802 0.500121 0.705157
-0.078602 0.033051 -0.22494 -0.3203763 0.1642082 -0.9329495 0.500121 0.746156
-0.068281 0.072279 -0.219048 -0.2756307 0.3275322 -0.9037424 0.500121 0.787156
-0.055442 0.110853 -0.206171 -0.2304392 0.4608329 -0.8570477 0.500121 0.828155
-0.040855 0.145957 -0.186805 -0.180169 0.5840361 -0.7914803 0.500121 0.869154
-0.025609 0.175398 -0.162629 -0.116974 0.7106732 -0.6937295 0.500121 0.910154
-0.011157 0.197662 -0.136653 -0.05626667 0.8079378 -0.5865754 0.500121 0.951153
0.026656 0.211168 -0.112099 0.1354575 0.8764916 -0.4619672 0.469217 0.992152
0.063077 0.207037 -0.105003 0.2885493 0.8554314 -0.4300888 0.438314 0.992152
0.101485 0.196693 -0.094242 0.4477843 0.8079805 -0.3829581 0.407411 0.992152
0.138191 0.179855 -0.080151 0.5743148 0.7477652 -0.3331811 0.376507 0.992152
0.170457 0.157392 -0.063567 0.6879551 0.6711636 -0.2761474 0.345604 0.992152
0.196377 0.131183 -0.045776 0.8003873 0.5641907 -0.2026552 0.314701 0.992152
0.214913 0.104237 -0.02856 0.8822775 0.452274 -0.1305168 0.283798 0.992152
0.230991 0.060483 -0.029217 0.9638754 0.2302824 -0.1338445 0.252894 0.951153
0.234137 0.028509 -0.047281 0.9732333 0.09440782 -0.2095331 0.252894 0.910154
0.231223 -0.007569 -0.065934 0.9563482 -0.05705935 -0.2866046 0.252894 0.869154
0.221159 -0.044867 -0.083332 0.9193224 -0.1865748 -0.3464623 0.252894 0.828155
0.20421 -0.080816 -0.098161 0.8622608 -0.3121504 -0.398834 0.252894 0.787156
0.181873 -0.113079 -0.109563 0.7725334 -0.4492951 -0.4486938 0.252894 0.746156
0.157066 -0.139531 -0.117175 0.6706269 -0.5631981 -0.4827707 0.252894 0.705157
0.119541 -0.153203 -0.141801 0.4803053 -0.6324841 -0.6076766 0.283798 0.664158
0.093849 -0.145097 -0.167355 0.3698718 -0.5956464 -0.7130219 0.314701 0.664158
0.062834 -0.132107 -0.190967 0.238262 -0.5383568 -0.8083336 0.345604 0.664158
0.028605 -0.114491 -0.209624 0.1188296 -0.4759648 -0.8713995 0.376507 0.664158
-0.006555 -0.093237 -0.221659 -0.003297567 -0.4029892 -0.9151988 0.407411 0.664158
-0.040185 -0.070004 -0.226613 -0.1446942 -0.3072797 -0.9405545 0.438314 0.664158
-0.069614 -0.047204 -0.225376 -0.2699849 -0.2119212 -0.9392537 0.469217 0.664158
-0.2256 -0.082723 -0.011407 -0.9365089 -0.3431164 -0.0722653 0.500121 0.376882
-0.221478 -0.080664 -0.048057 -0.9152608 -0.3330283 -0.2266933 0.500121 0.417921
-0.210835 -0.076171 -0.087266 -0.866248 -0.3126034 -0.3897354 0.500121 0.458961
-0.193275 -0.069152 -0.125425 -0.8033389 -0.2875257 -0.5215128 0.500121 0.500000
-0.169605 -0.059946 -0.159716 -0.7226683 -0.2560805 -0.6420072 0.500121 0.541039
-0.14175 -0.04929 -0.188006 -0.6091303 -0.2125305 -0.7640623 0.500121 0.582079
-0.112914 -0.038385 -0.208916 -0.4895024 -0.1671799 -0.8558261 0.500121 0.623118
0.130324 -0.174763 -0.101697 0.5349946 -0.7418967 -0.4041907 0.252894 0.623118
0.11917 -0.195724 -0.073207 0.4856948 -0.8272981 -0.2822738 0.252894 0.582079
0.103534 -0.213484 -0.039673 0.4178757 -0.8975667 -0.1405486 0.252894 0.541039
0.084052 -0.22537 -0.003531 0.3492842 -0.9369022 -0.01466274 0.252894 0.500000
0.061889 -0.230141 0.032762 0.2729102 -0.9555382 0.1116549 0.252894 0.458961
0.03871 -0.227858 0.066714 0.1768384 -0.9506487 0.2549417 0.252894 0.417921
0.01674 -0.220034 0.095777 0.08453501 -0.9214595 0.3791653 0.252894 0.376882
-0.026656 -0.211168 0.112099 -0.1354575 -0.8764916 0.4619672 0.283798 0.335842
-0.063077 -0.207037 0.105003 -0.2885493 -0.8554314 0.4300889 0.314701 0.335842
-0.101485 -0.196693 0.094242 -0.4477842 -0.8079805 0.3829581 0.345604 0.335842
-0.138191 -0.179855 0.080151 -0.5743148 -0.7477653 0.3331811 0.376507 0.335842
-0.170457 -0.157392 0.063567 -0.6879551 -0.6711635 0.2761473 0.407411 0.335842
-0.196377 -0.131183 0.045776 -0.8003873 -0.5641907 0.2026552 0.438314 0.335842
-0.214913 -0.104237 0.02856 -0.8822775 -0.4522741 0.1305168 0.469217 0.335842
-0.157066 0.139531 0.117175 -0.6706269 0.5631981 0.4827707 0.500121 0.048847
-0.181873 0.113079 0.109563 -0.7725334 0.4492951 0.4486938 0.500121 0.089846
-0.20421 0.080816 0.098161 -0.8622608 0.3121504 0.398834 0.500121 0.130846
-0.221159 0.044867 0.083332 -0.9193224 0.1865748 0.3464623 0.500121 0.171845
-0.231223 0.007569 0.065934 -0.9563482 0.05705935 0.2866046 0.500121 0.212844
-0.234137 -0.028509 0.047281 -0.9732333 -0.09440782 0.2095331 0.500121 0.253844
-0.230991 -0.060483 0.029217 -0.9638754 -0.2302824 0.1338445 0.500121 0.294843
0.011157 -0.197662 0.136653 0.05626667 -0.8079378 0.5865754 0.252894 0.294843
0.025609 -0.175398 0.162629 0.116974 -0.7106732 0.6937295 0.252894 0.253844
0.040855 -0.145957 0.186805 0.180169 -0.5840361 0.7914803 0.252894 0.212844
0.055442 -0.110853 0.206171 0.2304392 -0.4608329 0.8570477 0.252894 0.171845
0.068281 -0.072279 0.219048 0.2756307 -0.3275322 0.9037424 0.252894 0.130846
0.078602 -0.033051 0.22494 0.3203763 -0.1642082 0.9329495 0.252894 0.089846
0.085978 0.003285 0.224646 0.3529444 -0.01095645 0.9355802 0.252894 0.048847
0.069614 0.047204 0.225376 0.2699849 0.2119212 0.9392537 0.283798 0.007848
0.040185 0.070004 0.226613 0.1446942 0.3072797 0.9405545 0.314701 0.007848
0.006555 0.093237 0.221659 0.003297567 0.4029892 0.9151988 0.345604 0.007848
-0.028605 0.114491 0.209624 -0.1188287 0.475965 0.8713995 0.376507 0.007848
-0.062834 0.132107 0.190967 -0.2382609 0.538358 0.8083331 0.407411 0.007848
-0.093849 0.145097 0.167355 -0.369872 0.595648 0.7130204 0.438314 0.007848
-0.119541 0.153203 0.141801 -0.4803053 0.6324841 0.6076766 0.469217 0.007848
-0.01674 0.220034 -0.095777 -0.08453501 0.9214595 -0.3791653 0.746864 0.623118
-0.03871 0.227858 -0.066714 -0.1768384 0.9506487 -0.2549417 0.746864 0.582079
-0.061889 0.230141 -0.032762 -0.2729102 0.9555382 -0.1116549 0.746864 0.541039
-0.084052 0.22537 0.003531 -0.3492842 0.9369022 0.01466274 0.746864 0.500000
-0.103534 0.213484 0.039673 -0.4178757 0.8975667 0.1405486 0.746864 0.458961
-0.11917 0.195724 0.073207 -0.4856948 0.8272981 0.2822738 0.746864 0.417921
-0.130324 0.174763 0.101697 -0.5349946 0.7418967 0.4041907 0.746864 0.376882
0.112914 0.038385 0.208916 0.4895024 0.1671799 0.8558261 0.994091 0.376882
0.14175 0.04929 0.188006 0.6091303 0.2125305 0.7640623 0.994091 0.417921
0.169605 0.059946 0.159716 0.7226683 0.2560805 0.6420072 0.994091 0.458961
0.193275 0.069152 0.125425 0.8033389 0.2875257 0.5215129 0.994091 0.500000
0.210835 0.076171 0.087266 0.866248 0.3126034 0.3897354 0.994091 0.541039
0.221478 0.080664 0.048057 0.9152608 0.3330283 0.2266933 0.994091 0.582079
0.2256 0.082723 0.011407 0.9365089 0.3431164 0.0722653 0.994091 0.623118
-0.000415 0.210971 -0.115584 -0.001819939 0.8769838 -0.4805167 0.500121 0.992152
0.225252 0.082995 -0.015556 0.9363486 0.345067 -0.06465457 0.252894 0.992152
-0.090081 -0.029815 -0.221055 -0.3743847 -0.1238575 -0.9189643 0.500121 0.664158
0.136519 -0.15682 -0.12099 0.5674094 -0.6519855 -0.5029528 0.252894 0.664158
-0.136519 0.15682 0.12099 -0.5674094 0.6519855 0.5029528 0.500121 0.007848
0.090081 0.029815 0.221055 0.3743847 0.1238575 0.9189643 0.252894 0.007848
-0.225252 -0.082995 0.015556 -0.9363486 -0.345067 0.06465457 0.500121 0.335842
0.000415 -0.210971 0.115584 0.001819939 -0.8769838 0.4805167 0.252894 0.335842
-0.062834 0.132107 0.190967 -0.2382609 0.538358 0.8083331 0.839574 0.335842
-0.028605 0.114491 0.209624 -0.1188287 0.475965 0.8713995 0.870478 0.335842
-0.093849 0.145097 0.167355 -0.369872 0.595648 0.7130204 0.808671 0.335842
-0.119541 0.153203 0.141801 -0.4803053 0.6324841 0.6076766 0.777768 0.335842
-0.136519 0.15682 0.12099 -0.5674094 0.6519855 0.5029528 0.746864 0.335842
0.006555 0.093237 0.221659 0.003297567 0.4029892 0.9151988 0.901381 0.335842
0.040185 0.070004 0.226613 0.1446942 0.3072797 0.9405545 0.932284 0.335842
0.069614 0.047204 0.225376 0.2699849 0.2119212 0.9392537 0.963187 0.335842
0.090081 0.029815 0.221055 0.3743847 0.1238575 0.9189643 0.994091 0.335842
0.170457 0.157392 -0.063567 0.6879551 0.6711636 -0.2761474 0.901381 0.664158
0.138191 0.179855 -0.080151 0.5743148 0.7477652 -0.3331811 0.870478 0.664158
0.196377 0.131183 -0.045776 0.8003873 0.5641907 -0.2026552 0.932284 0.664158
0.214913 0.104237 -0.02856 0.8822775 0.452274 -0.1305168 0.963187 0.664158
0.225252 0.082995 -0.015556 0.9363486 0.345067 -0.06465457 0.994091 0.664158
0.101485 0.196693 -0.094242 0.4477843 0.8079805 -0.3829581 0.839574 0.664158
0.063077 0.207037 -0.105003 0.2885493 0.8554314 -0.4300888 0.808671 0.664158
0.026656 0.211168 -0.112099 0.1354575 0.8764916 -0.4619672 0.777768 0.664158
-0.000415 0.210971 -0.115584 -0.001819939 0.8769838 -0.4805167 0.746864 0.664158
-0.055442 0.110853 -0.206171 -0.2304392 0.4608329 -0.8570477 0.623492 0.664158
-0.068281 0.072279 -0.219048 -0.2756307 0.3275322 -0.9037424 0.592650 0.664158
-0.078602 0.033051 -0.22494 -0.3203763 0.1642082 -0.9329495 0.561807 0.664158
-0.085978 -0.003285 -0.224646 -0.3529444 0.01095645 -0.9355802 0.530964 0.664158
-0.231223 0.007569 0.065934 -0.9563482 0.05705935 0.2866046 0.592650 0.335842
-0.221159 0.044867 0.083332 -0.9193224 0.1865748 0.3464623 0.623492 0.335842
-0.234137 -0.028509 0.047281 -0.9732333 -0.09440782 0.2095331 0.561807 0.335842
-0.230991 -0.060483 0.029217 -0.9638754 -0.2302824 0.1338445 0.530964 0.335842
-0.20421 0.080816 0.098161 -0.8622608 0.3121504 0.398834 0.654335 0.335842
-0.181873 0.113079 0.109563 -0.7725334 0.4492951 0.4486938 0.685179 0.335842
-0.157066 0.139531 0.117175 -0.6706269 0.5631981 0.4827707 0.716021 0.335842
-0.040855 0.145957 -0.186805 -0.180169 0.5840361 -0.7914803 0.654335 0.664158
-0.025609 0.175398 -0.162629 -0.116974 0.7106732 -0.6937295 0.685179 0.664158
-0.011157 0.197662 -0.136653 -0.05626667 0.8079378 -0.5865754 0.716021 0.664158
0.055442 -0.110853 0.206171 0.2304392 -0.4608329 0.8570477 0.129402 0.335842
0.040855 -0.145957 0.186805 0.180169 -0.5840361 0.7914803 0.160275 0.335842
0.025609 -0.175398 0.162629 0.116974 -0.7106732 0.6937295 0.191148 0.335842
0.011157 -0.197662 0.136653 0.05626667 -0.8079378 0.5865754 0.222021 0.335842
0.20421 -0.080816 -0.098161 0.8622608 -0.3121504 -0.398834 0.160275 0.664158
0.221159 -0.044867 -0.083332 0.9193224 -0.1865748 -0.3464623 0.129402 0.664158
0.181873 -0.113079 -0.109563 0.7725334 -0.4492951 -0.4486938 0.191148 0.664158
0.157066 -0.139531 -0.117175 0.6706269 -0.5631981 -0.4827707 0.222021 0.664158
0.210835 0.076171 0.087266 0.866248 0.3126034 0.3897354 0.005909 0.541039
0.193275 0.069152 0.125425 0.8033389 0.2875257 0.5215129 0.005909 0.500000
0.221478 0.080664 0.048057 0.9152608 0.3330283 0.2266933 0.005909 0.582079
0.2256 0.082723 0.011407 0.9365089 0.3431164 0.0722653 0.005909 0.623118
0.231223 -0.007569 -0.065934 0.9563482 -0.05705935 -0.2866046 0.098529 0.664158
0.234137 0.028509 -0.047281 0.9732333 0.09440782 -0.2095331 0.067656 0.664158
0.230991 0.060483 -0.029217 0.9638754 0.2302824 -0.1338445 0.036782 0.664158
0.225252 0.082995 -0.015556 0.9363486 0.345067 -0.06465457 0.005909 0.664158
0.068281 -0.072279 0.219048 0.2756307 -0.3275322 0.9037424 0.098529 0.335842
0.078602 -0.033051 0.22494 0.3203763 -0.1642082 0.9329495 0.067656 0.335842
0.085978 0.003285 0.224646 0.3529444 -0.01095645 0.9355802 0.036782 0.335842
0.169605 0.059946 0.159716 0.7226683 0.2560805 0.6420072 0.005909 0.458961
0.14175 0.04929 0.188006 0.6091303 0.2125305 0.7640623 0.005909 0.417921
0.112914 0.038385 0.208916 0.4895024 0.1671799 0.8558261 0.005909 0.376882
0.090081 0.029815 0.221055 0.3743847 0.1238575 0.9189643 0.005909 0.335842
3 0 10 13 
3 0 13 1 
3 1 13 14 
3 1 14 2 
3 2 14 15 
3 2 15 3 
3 3 15 303 
3 3 303 304 
3 10 11 16 
3 10 16 13 
3 13 16 17 
3 13 17 14 
3 14 17 18 
3 14 18 15 
3 15 18 302 
3 15 302 303 
3 11 12 19 
3 11 19 16 
3 16 19 20 
3 16 20 17 
3 17 20 21 
3 17 21 18 
3 18 21 301 
3 18 301 302 
3 12 297 298 
3 12 298 19 
3 19 298 299 
3 19 299 20 
3 20 299 300 
3 20 300 21 
3 21 300 378 
3 21 378 301 
3 0 1 22 
3 0 22 4 
3 4 22 23 
3 4 23 5 
3 5 23 24 
3 5 24 6 
3 6 24 310 
3 6 310 311 
3 1 2 25 
3 1 25 22 
3 22 25 26 
3 22 26 23 
3 23 26 27 
3 23 27 24 
3 24 27 309 
3 24 309 310 
3 2 3 28 
3 2 28 25 
3 25 28 29 
3 25 29 26 
3 26 29 30 
3 26 30 27 
3 27 30 308 
3 27 308 309 
3 3 304 305 
3 3 305 28 
3 28 305 306 
3 28 306 29 
3 29 306 307 
3 29 307 30 
3 30 307 379 
3 30 379 308 
3 0 4 31 
3 0 31 7 
3 7 31 32 
3 7 32 8 
3 8 32 33 
3 8 33 9 
3 9 33 317 
3 9 317 318 
3 4 5 34 
3 4 34 31 
3 31 34 35 
3 31 35 32 
3 32 35 36 
3 32 36 33 
3 33 36 316 
3 33 316 317 
3 5 6 37 
3 5 37 34 
3 34 37 38 
3 34 38 35 
3 35 38 39 
3 35 39 36 
3 36 39 315 
3 36 315 316 
3 6 311 312 
3 6 312 37 
3 37 312 313 
3 37 313 38 
3 38 313 314 
3 38 314 39 
3 39 314 381 
3 39 381 315 
3 0 7 40 
3 0 40 10 
3 10 40 41 
3 10 41 11 
3 11 41 42 
3 11 42 12 
3 12 42 296 
3 12 296 297 
3 7 8 43 
3 7 43 40 
3 40 43 44 
3 40 44 41 
3 41 44 45 
3 41 45 42 
3 42 45 295 
3 42 295 296 
3 8 9 46 
3 8 46 43 
3 43 46 47 
3 43 47 44 
3 44 47 48 
3 44 48 45 
3 45 48 294 
3 45 294 295 
3 9 318 319 
3 9 319 46 
3 46 319 320 
3 46 320 47 
3 47 320 321 
3 47 321 48 
3 48 321 380 
3 48 380 294 
3 49 59 62 
3 49 62 50 
3 50 62 63 
3 50 63 51 
3 51 63 64 
3 51 64 52 
3 52 64 319 
3 52 319 318 
3 59 60 65 
3 59 65 62 
3 62 65 66 
3 62 66 63 
3 63 66 67 
3 63 67 64 
3 64 67 320 
3 64 320 319 
3 60 61 68 
3 60 68 65 
3 65 68 69 
3 65 69 66 
3 66 69 70 
3 66 70 67 
3 67 70 321 
3 67 321 320 
3 61 325 326 
3 61 326 68 
3 68 326 327 
3 68 327 69 
3 69 327 328 
3 69 328 70 
3 70 328 380 
3 70 380 321 
3 49 50 71 
3 49 71 53 
3 53 71 72 
3 53 72 54 
3 54 72 73 
3 54 73 55 
3 55 73 331 
3 55 331 332 
3 50 51 74 
3 50 74 71 
3 71 74 75 
3 71 75 72 
3 72 75 76 
3 72 76 73 
3 73 76 330 
3 73 330 331 
3 51 52 77 
3 51 77 74 
3 74 77 78 
3 74 78 75 
3 75 78 79 
3 75 79 76 
3 76 79 329 
3 76 329 330 
3 52 318 317 
3 52 317 77 
3 77 317 316 
3 77 316 78 
3 78 316 315 
3 78 315 79 
3 79 315 381 
3 79 381 329 
3 49 53 80 
3 49 80 56 
3 56 80 81 
3 56 81 57 
3 57 81 82 
3 57 82 58 
3 58 82 338 
3 58 338 339 
3 53 54 83 
3 53 83 80 
3 80 83 84 
3 80 84 81 
3 81 84 85 
3 81 85 82 
3 82 85 337 
3 82 337 338 
3 54 55 86 
3 54 86 83 
3 83 86 87 
3 83 87 84 
3 84 87 88 
3 84 88 85 
3 85 88 336 
3 85 336 337 
3 55 332 333 
3 55 333 86 
3 86 333 334 
3 86 334 87 
3 87 334 335 
3 87 335 88 
3 88 335 385 
3 88 385 336 
3 49 56 89 
3 49 89 59 
3 59 89 90 
3 59 90 60 
3 60 90 91 
3 60 91 61 
3 61 91 324 
3 61 324 325 
3 56 57 92 
3 56 92 89 
3 89 92 93 
3 89 93 90 
3 90 93 94 
3 90 94 91 
3 91 94 323 
3 91 323 324 
3 57 58 95 
3 57 95 92 
3 92 95 96 
3 92 96 93 
3 93 96 97 
3 93 97 94 
3 94 97 322 
3 94 322 323 
3 58 339 340 
3 58 340 95 
3 95 340 341 
3 95 341 96 
3 96 341 342 
3 96 342 97 
3 97 342 384 
3 97 384 322 
3 98 108 111 
3 98 111 99 
3 99 111 112 
3 99 112 100 
3 100 112 113 
3 100 113 101 
3 101 113 340 
3 101 340 339 
3 108 109 114 
3 108 114 111 
3 111 114 115 
3 111 115 112 
3 112 115 116 
3 112 116 113 
3 113 116 341 
3 113 341 340 
3 109 110 117 
3 109 117 114 
3 114 117 118 
3 114 118 115 
3 115 118 119 
3 115 119 116 
3 116 119 342 
3 116 342 341 
3 110 346 347 
3 110 347 117 
3 117 347 348 
3 117 348 118 
3 118 348 349 
3 118 349 119 
3 119 349 384 
3 119 384 342 
3 98 99 120 
3 98 120 102 
3 102 120 121 
3 102 121 103 
3 103 121 122 
3 103 122 104 
3 104 122 352 
3 104 352 353 
3 99 100 123 
3 99 123 120 
3 120 123 124 
3 120 124 121 
3 121 124 125 
3 121 125 122 
3 122 125 351 
3 122 351 352 
3 100 101 126 
3 100 126 123 
3 123 126 127 
3 123 127 124 
3 124 127 128 
3 124 128 125 
3 125 128 350 
3 125 350 351 
3 101 339 338 
3 101 338 126 
3 126 338 337 
3 126 337 127 
3 127 337 336 
3 127 336 128 
3 128 336 385 
3 128 385 350 
3 98 102 129 
3 98 129 105 
3 105 129 130 
3 105 130 106 
3 106 130 131 
3 106 131 107 
3 107 131 359 
3 107 359 360 
3 102 103 132 
3 102 132 129 
3 129 132 133 
3 129 133 130 
3 130 133 134 
3 130 134 131 
3 131 134 358 
3 131 358 359 
3 103 104 135 
3 103 135 132 
3 132 135 136 
3 132 136 133 
3 133 136 137 
3 133 137 134 
3 134 137 357 
3 134 357 358 
3 104 353 354 
3 104 354 135 
3 135 354 355 
3 135 355 136 
3 136 355 356 
3 136 356 137 
3 137 356 383 
3 137 383 357 
3 98 105 138 
3 98 138 108 
3 108 138 139 
3 108 139 109 
3 109 139 140 
3 109 140 110 
3 110 140 345 
3 110 345 346 
3 105 106 141 
3 105 141 138 
3 138 141 142 
3 138 142 139 
3 139 142 143 
3 139 143 140 
3 140 143 344 
3 140 344 345 
3 106 107 144 
3 106 144 141 
3 141 144 145 
3 141 145 142 
3 142 145 146 
3 142 146 143 
3 143 146 343 
3 143 343 344 
3 107 360 361 
3 107 361 144 
3 144 361 362 
3 144 362 145 
3 145 362 363 
3 145 363 146 
3 146 363 382 
3 146 382 343 
3 147 157 160 
3 147 160 148 
3 148 160 161 
3 148 161 149 
3 149 161 162 
3 149 162 150 
3 150 162 386 
3 150 386 387 
3 157 158 163 
3 157 163 160 
3 160 163 164 
3 160 164 161 
3 161 164 165 
3 161 165 162 
3 162 165 388 
3 162 388 386 
3 158 159 166 
3 158 166 163 
3 163 166 167 
3 163 167 164 
3 164 167 168 
3 164 168 165 
3 165 168 389 
3 165 389 388 
3 159 367 368 
3 159 368 166 
3 166 368 369 
3 166 369 167 
3 167 369 370 
3 167 370 168 
3 168 370 390 
3 168 390 389 
3 147 148 169 
3 147 169 151 
3 151 169 170 
3 151 170 152 
3 152 170 171 
3 152 171 153 
3 153 171 373 
3 153 373 374 
3 148 149 172 
3 148 172 169 
3 169 172 173 
3 169 173 170 
3 170 173 174 
3 170 174 171 
3 171 174 372 
3 171 372 373 
3 149 150 175 
3 149 175 172 
3 172 175 176 
3 172 176 173 
3 173 176 177 
3 173 177 174 
3 174 177 371 
3 174 371 372 
3 150 387 391 
3 150 391 175 
3 175 391 392 
3 175 392 176 
3 176 392 393 
3 176 393 177 
3 177 393 394 
3 177 394 371 
3 147 151 178 
3 147 178 154 
3 154 178 179 
3 154 179 155 
3 155 179 180 
3 155 180 156 
3 156 180 395 
3 156 395 396 
3 151 152 181 
3 151 181 178 
3 178 181 182 
3 178 182 179 
3 179 182 183 
3 179 183 180 
3 180 183 397 
3 180 397 395 
3 152 153 184 
3 152 184 181 
3 181 184 185 
3 181 185 182 
3 182 185 186 
3 182 186 183 
3 183 186 398 
3 183 398 397 
3 153 374 375 
3 153 375 184 
3 184 375 376 
3 184 376 185 
3 185 376 377 
3 185 377 186 
3 186 377 399 
3 186 399 398 
3 147 154 187 
3 147 187 157 
3 157 187 188 
3 157 188 158 
3 158 188 189 
3 158 189 159 
3 159 189 366 
3 159 366 367 
3 154 155 190 
3 154 190 187 
3 187 190 191 
3 187 191 188 
3 188 191 192 
3 188 192 189 
3 189 192 365 
3 189 365 366 
3 155 156 193 
3 155 193 190 
3 190 193 194 
3 190 194 191 
3 191 194 195 
3 191 195 192 
3 192 195 364 
3 192 364 365 
3 156 396 400 
3 156 400 193 
3 193 400 401 
3 193 401 194 
3 194 401 402 
3 194 402 195 
3 195 402 403 
3 195 403 364 
3 196 206 209 
3 196 209 197 
3 197 209 210 
3 197 210 198 
3 198 210 211 
3 198 211 199 
3 199 211 326 
3 199 326 325 
3 206 207 212 
3 206 212 209 
3 209 212 213 
3 209 213 210 
3 210 213 214 
3 210 214 211 
3 211 214 327 
3 211 327 326 
3 207 208 215 
3 207 215 212 
3 212 215 216 
3 212 216 213 
3 213 216 217 
3 213 217 214 
3 214 217 328 
3 214 328 327 
3 208 404 405 
3 208 405 215 
3 215 405 406 
3 215 406 216 
3 216 406 407 
3 216 407 217 
3 217 407 380 
3 217 380 328 
3 196 197 218 
3 196 218 200 
3 200 218 219 
3 200 219 201 
3 201 219 220 
3 201 220 202 
3 202 220 408 
3 202 408 409 
3 197 198 221 
3 197 221 218 
3 218 221 222 
3 218 222 219 
3 219 222 223 
3 219 223 220 
3 220 223 410 
3 220 410 408 
3 198 199 224 
3 198 224 221 
3 221 224 225 
3 221 225 222 
3 222 225 226 
3 222 226 223 
3 223 226 411 
3 223 411 410 
3 199 325 324 
3 199 324 224 
3 224 324 323 
3 224 323 225 
3 225 323 322 
3 225 322 226 
3 226 322 384 
3 226 384 411 
3 196 200 227 
3 196 227 203 
3 203 227 228 
3 203 228 204 
3 204 228 229 
3 204 229 205 
3 205 229 368 
3 205 368 367 
3 200 201 230 
3 200 230 227 
3 227 230 231 
3 227 231 228 
3 228 231 232 
3 228 232 229 
3 229 232 369 
3 229 369 368 
3 201 202 233 
3 201 233 230 
3 230 233 234 
3 230 234 231 
3 231 234 235 
3 231 235 232 
3 232 235 370 
3 232 370 369 
3 202 409 412 
3 202 412 233 
3 233 412 413 
3 233 413 234 
3 234 413 414 
3 234 414 235 
3 235 414 390 
3 235 390 370 
3 196 203 236 
3 196 236 206 
3 206 236 237 
3 206 237 207 
3 207 237 238 
3 207 238 208 
3 208 238 415 
3 208 415 404 
3 203 204 239 
3 203 239 236 
3 236 239 240 
3 236 240 237 
3 237 240 241 
3 237 241 238 
3 238 241 416 
3 238 416 415 
3 204 205 242 
3 204 242 239 
3 239 242 243 
3 239 243 240 
3 240 243 244 
3 240 244 241 
3 241 244 417 
3 241 417 416 
3 205 367 366 
3 205 366 242 
3 242 366 365 
3 242 365 243 
3 243 365 364 
3 243 364 244 
3 244 364 403 
3 244 403 417 
3 245 255 258 
3 245 258 246 
3 246 258 259 
3 246 259 247 
3 247 259 260 
3 247 260 248 
3 248 260 333 
3 248 333 332 
3 255 256 261 
3 255 261 258 
3 258 261 262 
3 258 262 259 
3 259 262 263 
3 259 263 260 
3 260 263 334 
3 260 334 333 
3 256 257 264 
3 256 264 261 
3 261 264 265 
3 261 265 262 
3 262 265 266 
3 262 266 263 
3 263 266 335 
3 263 335 334 
3 257 418 419 
3 257 419 264 
3 264 419 420 
3 264 420 265 
3 265 420 421 
3 265 421 266 
3 266 421 385 
3 266 385 335 
3 245 246 267 
3 245 267 249 
3 249 267 268 
3 249 268 250 
3 250 268 269 
3 250 269 251 
3 251 269 422 
3 251 422 423 
3 246 247 270 
3 246 270 267 
3 267 270 271 
3 267 271 268 
3 268 271 272 
3 268 272 269 
3 269 272 424 
3 269 424 422 
3 247 248 273 
3 247 273 270 
3 270 273 274 
3 270 274 271 
3 271 274 275 
3 271 275 272 
3 272 275 425 
3 272 425 424 
3 248 332 331 
3 248 331 273 
3 273 331 330 
3 273 330 274 
3 274 330 329 
3 274 329 275 
3 275 329 381 
3 275 381 425 
3 245 249 276 
3 245 276 252 
3 252 276 277 
3 252 277 253 
3 253 277 278 
3 253 278 254 
3 254 278 426 
3 254 426 427 
3 249 250 279 
3 249 279 276 
3 276 279 280 
3 276 280 277 
3 277 280 281 
3 277 281 278 
3 278 281 428 
3 278 428 426 
3 250 251 282 
3 250 282 279 
3 279 282 283 
3 279 283 280 
3 280 283 284 
3 280 284 281 
3 281 284 429 
3 281 429 428 
3 251 423 430 
3 251 430 282 
3 282 430 431 
3 282 431 283 
3 283 431 432 
3 283 432 284 
3 284 432 433 
3 284 433 429 
3 245 252 285 
3 245 285 255 
3 255 285 286 
3 255 286 256 
3 256 286 287 
3 256 287 257 
3 257 287 434 
3 257 434 418 
3 252 253 288 
3 252 288 285 
3 285 288 289 
3 285 289 286 
3 286 289 290 
3 286 290 287 
3 287 290 435 
3 287 435 434 
3 253 254 291 
3 253 291 288 
3 288 291 292 
3 288 292 289 
3 289 292 293 
3 289 293 290 
3 290 293 436 
3 290 436 435 
3 254 427 437 
3 254 437 291 
3 291 437 438 
3 291 438 292 
3 292 438 439 
3 292 439 293 
3 293 439 440 
3 293 440 436 
