ply
format ascii 1.0
comment VCGLIB generated
element vertex 100
property float x
property float y
property float z
property float nx
property float ny
property float nz
element face 162
property list uchar int vertex_indices
end_header
0.135 -2.950519e-08 0.135 8.742274e-08 1 1.311343e-07 
0.1016667 -2.65911e-08 0.135 8.742274e-08 1 1.311343e-07 
0.06833333 -2.3677e-08 0.135 8.742291e-08 1 1.311341e-07 
0.03499999 -2.076291e-08 0.135 8.742271e-08 1 1.311343e-07 
0.001666665 -1.784882e-08 0.135 8.742281e-08 1 1.311342e-07 
-0.03166666 -1.493472e-08 0.135 8.742288e-08 1 1.31134e-07 
-0.06500001 -1.202063e-08 0.135 8.742273e-08 1 1.311342e-07 
-0.09833334 -9.106538e-09 0.135 8.742272e-08 1 1.311342e-07 
-0.1316667 -6.192446e-09 0.135 8.742275e-08 1 1.311342e-07 
-0.165 -3.278354e-09 0.135 8.742284e-08 1 1.311342e-07 
0.135 -2.513405e-08 0.1016667 8.742278e-08 1 1.311342e-07 
0.1016667 -2.221996e-08 0.1016667 8.74227e-08 1 1.311343e-07 
0.06833333 -1.930587e-08 0.1016667 8.74228e-08 1 1.311342e-07 
0.03499999 -1.639177e-08 0.1016667 8.742282e-08 1 1.311342e-07 
0.001666665 -1.347768e-08 0.1016667 8.742274e-08 1 1.311342e-07 
-0.03166666 -1.056359e-08 0.1016667 8.742282e-08 1 1.311341e-07 
-0.06500001 -7.649493e-09 0.1016667 8.742281e-08 1 1.311341e-07 
-0.09833334 -4.7354e-09 0.1016667 8.742273e-08 1 1.311342e-07 
-0.1316667 -1.821308e-09 0.1016667 8.742275e-08 1 1.311342e-07 
-0.165 1.092784e-09 0.1016667 8.742285e-08 1 1.311342e-07 
0.135 -2.076291e-08 0.06833334 8.742278e-08 1 1.311341e-07 
0.1016667 -1.784882e-08 0.06833334 8.742284e-08 1 1.311341e-07 
0.06833333 -1.493472e-08 0.06833334 8.742274e-08 1 1.311343e-07 
0.03499999 -1.202063e-08 0.06833334 8.742275e-08 1 1.311342e-07 
0.001666665 -9.10654e-09 0.06833334 8.742276e-08 1 1.311341e-07 
-0.03166666 -6.192447e-09 0.06833334 8.742278e-08 1 1.311342e-07 
-0.06500001 -3.278353e-09 0.06833334 8.74228e-08 1 1.311341e-07 
-0.09833334 -3.642606e-10 0.06833334 8.742273e-08 1 1.311341e-07 
-0.1316667 2.549831e-09 0.06833334 8.742276e-08 1 1.311341e-07 
-0.165 5.463924e-09 0.06833334 8.742288e-08 1 1.311341e-07 
0.135 -1.639177e-08 0.035 8.742276e-08 1 1.311342e-07 
0.1016667 -1.347768e-08 0.035 8.742281e-08 1 1.311341e-07 
0.06833333 -1.056358e-08 0.035 8.742279e-08 1 1.311341e-07 
0.03499999 -7.649492e-09 0.035 8.742271e-08 1 1.311341e-07 
0.001666665 -4.7354e-09 0.035 8.742278e-08 1 1.311341e-07 
-0.03166666 -1.821307e-09 0.035 8.742278e-08 1 1.311341e-07 
-0.06500001 1.092786e-09 0.035 8.742277e-08 1 1.311341e-07 
-0.09833334 4.006879e-09 0.035 8.742275e-08 1 1.311342e-07 
-0.1316667 6.920971e-09 0.035 8.742273e-08 1 1.311341e-07 
-0.165 9.835063e-09 0.035 8.742286e-08 1 1.311341e-07 
0.135 -1.202063e-08 0.001666665 8.742276e-08 1 1.311342e-07 
0.1016667 -9.10654e-09 0.001666665 8.742273e-08 1 1.311342e-07 
0.06833333 -6.192447e-09 0.001666665 8.742277e-08 1 1.311341e-07 
0.03499999 -3.278354e-09 0.001666665 8.742277e-08 1 1.311341e-07 
0.001666665 -3.642612e-10 0.001666665 8.74228e-08 1 1.311341e-07 
-0.03166666 2.549831e-09 0.001666665 8.742277e-08 1 1.311342e-07 
-0.06500001 5.463925e-09 0.001666665 8.742279e-08 1 1.311342e-07 
-0.09833334 8.378017e-09 0.001666665 8.742275e-08 1 1.311342e-07 
-0.1316667 1.129211e-08 0.001666665 8.742273e-08 1 1.311342e-07 
-0.165 1.42062e-08 0.001666665 8.742279e-08 1 1.311342e-07 
0.135 -7.649493e-09 -0.03166667 8.742281e-08 1 1.311342e-07 
0.1016667 -4.735401e-09 -0.03166667 8.742274e-08 1 1.311342e-07 
0.06833333 -1.821308e-09 -0.03166667 8.742273e-08 1 1.311342e-07 
0.03499999 1.092785e-09 -0.03166667 8.74228e-08 1 1.311342e-07 
0.001666665 4.006877e-09 -0.03166667 8.74228e-08 1 1.311342e-07 
-0.03166666 6.92097e-09 -0.03166667 8.742275e-08 1 1.311342e-07 
-0.06500001 9.835063e-09 -0.03166667 8.742284e-08 1 1.311341e-07 
-0.09833334 1.274916e-08 -0.03166667 8.742277e-08 1 1.311342e-07 
-0.1316667 1.566325e-08 -0.03166667 8.742273e-08 1 1.311342e-07 
-0.165 1.857734e-08 -0.03166667 8.742279e-08 1 1.311342e-07 
0.135 -3.278352e-09 -0.06500001 8.742283e-08 1 1.311342e-07 
0.1016667 -3.642602e-10 -0.06500001 8.742276e-08 1 1.311342e-07 
0.06833333 2.549833e-09 -0.06500001 8.742273e-08 1 1.311342e-07 
0.03499999 5.463925e-09 -0.06500001 8.74228e-08 1 1.311342e-07 
0.001666665 8.378018e-09 -0.06500001 8.742279e-08 1 1.311342e-07 
-0.03166666 1.129211e-08 -0.06500001 8.742271e-08 1 1.311342e-07 
-0.06500001 1.42062e-08 -0.06500001 8.742281e-08 1 1.311341e-07 
-0.09833334 1.71203e-08 -0.06500001 8.742285e-08 1 1.311341e-07 
-0.1316667 2.003439e-08 -0.06500001 8.742271e-08 1 1.311342e-07 
-0.165 2.294848e-08 -0.06500001 8.74228e-08 1 1.311342e-07 
0.135 1.092786e-09 -0.09833334 8.742283e-08 1 1.311341e-07 
0.1016667 4.006878e-09 -0.09833334 8.742277e-08 1 1.311341e-07 
0.06833333 6.920971e-09 -0.09833334 8.742273e-08 1 1.311341e-07 
0.03499999 9.835064e-09 -0.09833334 8.742281e-08 1 1.31134e-07 
0.001666665 1.274916e-08 -0.09833334 8.742284e-08 1 1.31134e-07 
-0.03166666 1.566325e-08 -0.09833334 8.74227e-08 1 1.311342e-07 
-0.06500001 1.857734e-08 -0.09833334 8.74227e-08 1 1.311342e-07 
-0.09833334 2.149143e-08 -0.09833334 8.742285e-08 1 1.311341e-07 
-0.1316667 2.440553e-08 -0.09833334 8.74228e-08 1 1.311341e-07 
-0.165 2.731962e-08 -0.09833334 8.74228e-08 1 1.311341e-07 
0.135 5.463924e-09 -0.1316667 8.742281e-08 1 1.311341e-07 
0.1016667 8.378017e-09 -0.1316667 8.74228e-08 1 1.311341e-07 
0.06833333 1.129211e-08 -0.1316667 8.742268e-08 1 1.311342e-07 
0.03499999 1.42062e-08 -0.1316667 8.74227e-08 1 1.311341e-07 
0.001666665 1.712029e-08 -0.1316667 8.74229e-08 1 1.311341e-07 
-0.03166666 2.003439e-08 -0.1316667 8.742281e-08 1 1.311341e-07 
-0.06500001 2.294848e-08 -0.1316667 8.742269e-08 1 1.311342e-07 
-0.09833334 2.586257e-08 -0.1316667 8.742282e-08 1 1.311342e-07 
-0.1316667 2.877667e-08 -0.1316667 8.742285e-08 1 1.311342e-07 
-0.165 3.169076e-08 -0.1316667 8.74228e-08 1 1.311342e-07 
0.135 9.835063e-09 -0.165 8.742266e-08 1 1.311343e-07 
0.1016667 1.274915e-08 -0.165 8.742284e-08 1 1.311342e-07 
0.06833333 1.566325e-08 -0.165 8.742275e-08 1 1.311343e-07 
0.03499999 1.857734e-08 -0.165 8.742271e-08 1 1.311343e-07 
0.001666665 2.149143e-08 -0.165 8.742286e-08 1 1.311344e-07 
-0.03166666 2.440553e-08 -0.165 8.742285e-08 1 1.311343e-07 
-0.06500001 2.731962e-08 -0.165 8.742271e-08 1 1.311343e-07 
-0.09833334 3.023371e-08 -0.165 8.742281e-08 1 1.311343e-07 
-0.1316667 3.314781e-08 -0.165 8.742283e-08 1 1.311343e-07 
-0.165 3.60619e-08 -0.165 8.742277e-08 1 1.311343e-07 
3 11 1 0 
3 0 10 11 
3 12 2 1 
3 1 11 12 
3 13 3 2 
3 2 12 13 
3 14 4 3 
3 3 13 14 
3 15 5 4 
3 4 14 15 
3 16 6 5 
3 5 15 16 
3 17 7 6 
3 6 16 17 
3 18 8 7 
3 7 17 18 
3 19 9 8 
3 8 18 19 
3 21 11 10 
3 10 20 21 
3 22 12 11 
3 11 21 22 
3 23 13 12 
3 12 22 23 
3 24 14 13 
3 13 23 24 
3 25 15 14 
3 14 24 25 
3 26 16 15 
3 15 25 26 
3 27 17 16 
3 16 26 27 
3 28 18 17 
3 17 27 28 
3 29 19 18 
3 18 28 29 
3 31 21 20 
3 20 30 31 
3 32 22 21 
3 21 31 32 
3 33 23 22 
3 22 32 33 
3 34 24 23 
3 23 33 34 
3 35 25 24 
3 24 34 35 
3 36 26 25 
3 25 35 36 
3 37 27 26 
3 26 36 37 
3 38 28 27 
3 27 37 38 
3 39 29 28 
3 28 38 39 
3 41 31 30 
3 30 40 41 
3 42 32 31 
3 31 41 42 
3 43 33 32 
3 32 42 43 
3 44 34 33 
3 33 43 44 
3 45 35 34 
3 34 44 45 
3 46 36 35 
3 35 45 46 
3 47 37 36 
3 36 46 47 
3 48 38 37 
3 37 47 48 
3 49 39 38 
3 38 48 49 
3 51 41 40 
3 40 50 51 
3 52 42 41 
3 41 51 52 
3 53 43 42 
3 42 52 53 
3 54 44 43 
3 43 53 54 
3 55 45 44 
3 44 54 55 
3 56 46 45 
3 45 55 56 
3 57 47 46 
3 46 56 57 
3 58 48 47 
3 47 57 58 
3 59 49 48 
3 48 58 59 
3 61 51 50 
3 50 60 61 
3 62 52 51 
3 51 61 62 
3 63 53 52 
3 52 62 63 
3 64 54 53 
3 53 63 64 
3 65 55 54 
3 54 64 65 
3 66 56 55 
3 55 65 66 
3 67 57 56 
3 56 66 67 
3 68 58 57 
3 57 67 68 
3 69 59 58 
3 58 68 69 
3 71 61 60 
3 60 70 71 
3 72 62 61 
3 61 71 72 
3 73 63 62 
3 62 72 73 
3 74 64 63 
3 63 73 74 
3 75 65 64 
3 64 74 75 
3 76 66 65 
3 65 75 76 
3 77 67 66 
3 66 76 77 
3 78 68 67 
3 67 77 78 
3 79 69 68 
3 68 78 79 
3 81 71 70 
3 70 80 81 
3 82 72 71 
3 71 81 82 
3 83 73 72 
3 72 82 83 
3 84 74 73 
3 73 83 84 
3 85 75 74 
3 74 84 85 
3 86 76 75 
3 75 85 86 
3 87 77 76 
3 76 86 87 
3 88 78 77 
3 77 87 88 
3 89 79 78 
3 78 88 89 
3 91 81 80 
3 80 90 91 
3 92 82 81 
3 81 91 92 
3 93 83 82 
3 82 92 93 
3 94 84 83 
3 83 93 94 
3 95 85 84 
3 84 94 95 
3 96 86 85 
3 85 95 96 
3 97 87 86 
3 86 96 97 
3 98 88 87 
3 87 97 98 
3 99 89 88 
3 88 98 99 
