ply
format ascii 1.0
comment VCGLIB generated
element vertex 100
property float x
property float y
property float z
property float nx
property float ny
property float nz
element face 162
property list uchar int vertex_indices
end_header
5.310935e-08 -0.135 0.135 -1 -1.748457e-07 2.185569e-07 
4.582411e-08 -0.135 0.1016667 -1 -1.748457e-07 2.185569e-07 
3.853888e-08 -0.135 0.06833332 -1 -1.748455e-07 2.185571e-07 
3.125365e-08 -0.135 0.03499999 -1 -1.748457e-07 2.185569e-07 
2.396841e-08 -0.135 0.001666665 -1 -1.748456e-07 2.18557e-07 
1.668318e-08 -0.135 -0.03166666 -1 -1.748454e-07 2.185571e-07 
9.397949e-09 -0.135 -0.06500001 -1 -1.748456e-07 2.185569e-07 
2.112721e-09 -0.135 -0.09833333 -1 -1.748456e-07 2.185569e-07 
-5.172523e-09 -0.135 -0.1316667 -1 -1.748456e-07 2.185569e-07 
-1.245775e-08 -0.135 -0.165 -1 -1.748456e-07 2.18557e-07 
4.728115e-08 -0.1016667 0.135 -1 -1.748456e-07 2.18557e-07 
3.999592e-08 -0.1016667 0.1016667 -1 -1.748457e-07 2.185569e-07 
3.271069e-08 -0.1016667 0.06833332 -1 -1.748456e-07 2.18557e-07 
2.542546e-08 -0.1016667 0.03499999 -1 -1.748456e-07 2.18557e-07 
1.814022e-08 -0.1016667 0.001666665 -1 -1.748456e-07 2.185569e-07 
1.0855e-08 -0.1016667 -0.03166666 -1 -1.748455e-07 2.18557e-07 
3.569767e-09 -0.1016667 -0.06500001 -1 -1.748455e-07 2.18557e-07 
-3.715466e-09 -0.1016667 -0.09833333 -1 -1.748456e-07 2.185569e-07 
-1.10007e-08 -0.1016667 -0.1316667 -1 -1.748456e-07 2.185569e-07 
-1.828593e-08 -0.1016667 -0.165 -1 -1.748456e-07 2.18557e-07 
4.145297e-08 -0.06833334 0.135 -1 -1.748455e-07 2.18557e-07 
3.416774e-08 -0.06833334 0.1016667 -1 -1.748455e-07 2.18557e-07 
2.68825e-08 -0.06833334 0.06833332 -1 -1.748457e-07 2.185569e-07 
1.959728e-08 -0.06833334 0.03499999 -1 -1.748456e-07 2.185569e-07 
1.231204e-08 -0.06833334 0.001666665 -1 -1.748455e-07 2.185569e-07 
5.026811e-09 -0.06833334 -0.03166666 -1 -1.748456e-07 2.18557e-07 
-2.258423e-09 -0.06833334 -0.06500001 -1 -1.748455e-07 2.18557e-07 
-9.543652e-09 -0.06833334 -0.09833333 -1 -1.748455e-07 2.185569e-07 
-1.682888e-08 -0.06833334 -0.1316667 -1 -1.748455e-07 2.185569e-07 
-2.411412e-08 -0.06833334 -0.165 -1 -1.748455e-07 2.185571e-07 
3.562478e-08 -0.035 0.135 -1 -1.748456e-07 2.185569e-07 
2.833955e-08 -0.035 0.1016667 -1 -1.748455e-07 2.18557e-07 
2.105431e-08 -0.035 0.06833332 -1 -1.748455e-07 2.18557e-07 
1.376909e-08 -0.035 0.03499999 -1 -1.748455e-07 2.185569e-07 
6.483855e-09 -0.035 0.001666665 -1 -1.748455e-07 2.18557e-07 
-8.01375e-10 -0.035 -0.03166666 -1 -1.748455e-07 2.18557e-07 
-8.08661e-09 -0.035 -0.06500001 -1 -1.748455e-07 2.185569e-07 
-1.537184e-08 -0.035 -0.09833333 -1 -1.748456e-07 2.185569e-07 
-2.265707e-08 -0.035 -0.1316667 -1 -1.748455e-07 2.185569e-07 
-2.99423e-08 -0.035 -0.165 -1 -1.748455e-07 2.18557e-07 
2.97966e-08 -0.001666665 0.135 -1 -1.748456e-07 2.185569e-07 
2.251137e-08 -0.001666665 0.1016667 -1 -1.748456e-07 2.185569e-07 
1.522614e-08 -0.001666665 0.06833332 -1 -1.748455e-07 2.185569e-07 
7.9409e-09 -0.001666665 0.03499999 -1 -1.748455e-07 2.185569e-07 
6.556702e-10 -0.001666665 0.001666665 -1 -1.748455e-07 2.18557e-07 
-6.62956e-09 -0.001666665 -0.03166666 -1 -1.748456e-07 2.185569e-07 
-1.391479e-08 -0.001666665 -0.06500001 -1 -1.748456e-07 2.18557e-07 
-2.120003e-08 -0.001666665 -0.09833333 -1 -1.748456e-07 2.185569e-07 
-2.848526e-08 -0.001666665 -0.1316667 -1 -1.748456e-07 2.185569e-07 
-3.577049e-08 -0.001666665 -0.165 -1 -1.748456e-07 2.18557e-07 
2.396841e-08 0.03166667 0.135 -1 -1.748456e-07 2.18557e-07 
1.668318e-08 0.03166667 0.1016667 -1 -1.748456e-07 2.185569e-07 
9.397946e-09 0.03166667 0.06833332 -1 -1.748456e-07 2.185569e-07 
2.112715e-09 0.03166667 0.03499999 -1 -1.748456e-07 2.18557e-07 
-5.172514e-09 0.03166667 0.001666665 -1 -1.748456e-07 2.18557e-07 
-1.245774e-08 0.03166667 -0.03166666 -1 -1.748456e-07 2.185569e-07 
-1.974298e-08 0.03166667 -0.06500001 -1 -1.748455e-07 2.18557e-07 
-2.702821e-08 0.03166667 -0.09833333 -1 -1.748456e-07 2.185569e-07 
-3.431344e-08 0.03166667 -0.1316667 -1 -1.748456e-07 2.185569e-07 
-4.159867e-08 0.03166667 -0.165 -1 -1.748456e-07 2.18557e-07 
1.814023e-08 0.06500001 0.135 -1 -1.748456e-07 2.18557e-07 
1.0855e-08 0.06500001 0.1016667 -1 -1.748456e-07 2.185569e-07 
3.569759e-09 0.06500001 0.06833332 -1 -1.748456e-07 2.185569e-07 
-3.715471e-09 0.06500001 0.03499999 -1 -1.748456e-07 2.18557e-07 
-1.100071e-08 0.06500001 0.001666665 -1 -1.748456e-07 2.18557e-07 
-1.828593e-08 0.06500001 -0.03166666 -1 -1.748456e-07 2.185569e-07 
-2.557116e-08 0.06500001 -0.06500001 -1 -1.748455e-07 2.18557e-07 
-3.28564e-08 0.06500001 -0.09833333 -1 -1.748455e-07 2.18557e-07 
-4.014164e-08 0.06500001 -0.1316667 -1 -1.748456e-07 2.185569e-07 
-4.742686e-08 0.06500001 -0.165 -1 -1.748456e-07 2.18557e-07 
1.231204e-08 0.09833333 0.135 -1 -1.748455e-07 2.18557e-07 
5.026812e-09 0.09833333 0.1016667 -1 -1.748455e-07 2.185569e-07 
-2.258428e-09 0.09833333 0.06833332 -1 -1.748455e-07 2.185569e-07 
-9.543652e-09 0.09833333 0.03499999 -1 -1.748454e-07 2.18557e-07 
-1.68289e-08 0.09833333 0.001666665 -1 -1.748454e-07 2.18557e-07 
-2.411412e-08 0.09833333 -0.03166666 -1 -1.748456e-07 2.185569e-07 
-3.139935e-08 0.09833333 -0.06500001 -1 -1.748456e-07 2.185569e-07 
-3.868458e-08 0.09833333 -0.09833333 -1 -1.748455e-07 2.18557e-07 
-4.596983e-08 0.09833333 -0.1316667 -1 -1.748455e-07 2.18557e-07 
-5.325504e-08 0.09833333 -0.165 -1 -1.748455e-07 2.18557e-07 
6.483852e-09 0.1316667 0.135 -1 -1.748455e-07 2.18557e-07 
-8.013727e-10 0.1316667 0.1016667 -1 -1.748455e-07 2.18557e-07 
-8.086606e-09 0.1316667 0.06833332 -1 -1.748456e-07 2.185568e-07 
-1.537183e-08 0.1316667 0.03499999 -1 -1.748455e-07 2.185569e-07 
-2.265707e-08 0.1316667 0.001666665 -1 -1.748455e-07 2.185571e-07 
-2.99423e-08 0.1316667 -0.03166666 -1 -1.748455e-07 2.18557e-07 
-3.722753e-08 0.1316667 -0.06500001 -1 -1.748456e-07 2.185569e-07 
-4.451276e-08 0.1316667 -0.09833333 -1 -1.748456e-07 2.18557e-07 
-5.1798e-08 0.1316667 -0.1316667 -1 -1.748456e-07 2.18557e-07 
-5.908324e-08 0.1316667 -0.165 -1 -1.748456e-07 2.18557e-07 
6.556715e-10 0.165 0.135 -1 -1.748457e-07 2.185568e-07 
-6.629548e-09 0.165 0.1016667 -1 -1.748456e-07 2.18557e-07 
-1.39148e-08 0.165 0.06833332 -1 -1.748457e-07 2.185569e-07 
-2.120002e-08 0.165 0.03499999 -1 -1.748457e-07 2.185569e-07 
-2.848526e-08 0.165 0.001666665 -1 -1.748458e-07 2.18557e-07 
-3.577049e-08 0.165 -0.03166666 -1 -1.748457e-07 2.18557e-07 
-4.305572e-08 0.165 -0.06500001 -1 -1.748457e-07 2.185569e-07 
-5.034095e-08 0.165 -0.09833333 -1 -1.748457e-07 2.18557e-07 
-5.76262e-08 0.165 -0.1316667 -1 -1.748457e-07 2.18557e-07 
-6.491142e-08 0.165 -0.165 -1 -1.748457e-07 2.185569e-07 
3 11 1 0 
3 0 10 11 
3 12 2 1 
3 1 11 12 
3 13 3 2 
3 2 12 13 
3 14 4 3 
3 3 13 14 
3 15 5 4 
3 4 14 15 
3 16 6 5 
3 5 15 16 
3 17 7 6 
3 6 16 17 
3 18 8 7 
3 7 17 18 
3 19 9 8 
3 8 18 19 
3 21 11 10 
3 10 20 21 
3 22 12 11 
3 11 21 22 
3 23 13 12 
3 12 22 23 
3 24 14 13 
3 13 23 24 
3 25 15 14 
3 14 24 25 
3 26 16 15 
3 15 25 26 
3 27 17 16 
3 16 26 27 
3 28 18 17 
3 17 27 28 
3 29 19 18 
3 18 28 29 
3 31 21 20 
3 20 30 31 
3 32 22 21 
3 21 31 32 
3 33 23 22 
3 22 32 33 
3 34 24 23 
3 23 33 34 
3 35 25 24 
3 24 34 35 
3 36 26 25 
3 25 35 36 
3 37 27 26 
3 26 36 37 
3 38 28 27 
3 27 37 38 
3 39 29 28 
3 28 38 39 
3 41 31 30 
3 30 40 41 
3 42 32 31 
3 31 41 42 
3 43 33 32 
3 32 42 43 
3 44 34 33 
3 33 43 44 
3 45 35 34 
3 34 44 45 
3 46 36 35 
3 35 45 46 
3 47 37 36 
3 36 46 47 
3 48 38 37 
3 37 47 48 
3 49 39 38 
3 38 48 49 
3 51 41 40 
3 40 50 51 
3 52 42 41 
3 41 51 52 
3 53 43 42 
3 42 52 53 
3 54 44 43 
3 43 53 54 
3 55 45 44 
3 44 54 55 
3 56 46 45 
3 45 55 56 
3 57 47 46 
3 46 56 57 
3 58 48 47 
3 47 57 58 
3 59 49 48 
3 48 58 59 
3 61 51 50 
3 50 60 61 
3 62 52 51 
3 51 61 62 
3 63 53 52 
3 52 62 63 
3 64 54 53 
3 53 63 64 
3 65 55 54 
3 54 64 65 
3 66 56 55 
3 55 65 66 
3 67 57 56 
3 56 66 67 
3 68 58 57 
3 57 67 68 
3 69 59 58 
3 58 68 69 
3 71 61 60 
3 60 70 71 
3 72 62 61 
3 61 71 72 
3 73 63 62 
3 62 72 73 
3 74 64 63 
3 63 73 74 
3 75 65 64 
3 64 74 75 
3 76 66 65 
3 65 75 76 
3 77 67 66 
3 66 76 77 
3 78 68 67 
3 67 77 78 
3 79 69 68 
3 68 78 79 
3 81 71 70 
3 70 80 81 
3 82 72 71 
3 71 81 82 
3 83 73 72 
3 72 82 83 
3 84 74 73 
3 73 83 84 
3 85 75 74 
3 74 84 85 
3 86 76 75 
3 75 85 86 
3 87 77 76 
3 76 86 87 
3 88 78 77 
3 77 87 88 
3 89 79 78 
3 78 88 89 
3 91 81 80 
3 80 90 91 
3 92 82 81 
3 81 91 92 
3 93 83 82 
3 82 92 93 
3 94 84 83 
3 83 93 94 
3 95 85 84 
3 84 94 95 
3 96 86 85 
3 85 95 96 
3 97 87 86 
3 86 96 97 
3 98 88 87 
3 87 97 98 
3 99 89 88 
3 88 98 99 
