ply
format ascii 1.0
comment VCGLIB generated
element vertex 100
property float x
property float y
property float z
property float nx
property float ny
property float nz
element face 162
property list uchar int vertex_indices
end_header
0.08605222 -0.1040193 0.135 0.7705133 0.6374239 1.311343e-07 
0.06480477 -0.07833555 0.135 0.7705133 0.6374239 1.311343e-07 
0.04355728 -0.05265175 0.135 0.7705133 0.6374239 1.311341e-07 
0.02230982 -0.02696797 0.135 0.7705133 0.6374239 1.311343e-07 
0.001062358 -0.001284199 0.135 0.7705133 0.6374239 1.311342e-07 
-0.0201851 0.02439957 0.135 0.7705133 0.6374239 1.31134e-07 
-0.04143257 0.05008336 0.135 0.7705133 0.6374239 1.311342e-07 
-0.06268004 0.07576713 0.135 0.7705133 0.6374239 1.311342e-07 
-0.08392753 0.1014509 0.135 0.7705133 0.6374239 1.311342e-07 
-0.105175 0.1271347 0.135 0.7705133 0.6374239 1.311342e-07 
0.08605222 -0.1040193 0.1016667 0.7705133 0.6374239 1.311342e-07 
0.06480478 -0.07833555 0.1016667 0.7705133 0.6374239 1.311343e-07 
0.04355729 -0.05265174 0.1016667 0.7705133 0.6374239 1.311342e-07 
0.02230982 -0.02696797 0.1016667 0.7705133 0.6374239 1.311342e-07 
0.001062362 -0.001284196 0.1016667 0.7705133 0.6374239 1.311342e-07 
-0.0201851 0.02439957 0.1016667 0.7705133 0.6374239 1.311341e-07 
-0.04143257 0.05008337 0.1016667 0.7705133 0.6374239 1.311341e-07 
-0.06268003 0.07576714 0.1016667 0.7705133 0.6374239 1.311342e-07 
-0.08392752 0.1014509 0.1016667 0.7705133 0.6374239 1.311342e-07 
-0.105175 0.1271347 0.1016667 0.7705133 0.6374239 1.311342e-07 
0.08605222 -0.1040193 0.06833334 0.7705133 0.6374239 1.311341e-07 
0.06480478 -0.07833555 0.06833334 0.7705133 0.6374239 1.311341e-07 
0.04355729 -0.05265174 0.06833334 0.7705133 0.6374239 1.311343e-07 
0.02230982 -0.02696796 0.06833334 0.7705133 0.6374239 1.311342e-07 
0.001062365 -0.001284193 0.06833334 0.7705133 0.6374239 1.311341e-07 
-0.02018509 0.02439958 0.06833334 0.7705133 0.6374239 1.311342e-07 
-0.04143257 0.05008337 0.06833334 0.7705133 0.6374239 1.311341e-07 
-0.06268003 0.07576714 0.06833334 0.7705133 0.6374239 1.311341e-07 
-0.08392752 0.1014509 0.06833334 0.7705133 0.6374239 1.311341e-07 
-0.105175 0.1271347 0.06833334 0.7705133 0.6374239 1.311341e-07 
0.08605222 -0.1040193 0.035 0.7705133 0.6374239 1.311342e-07 
0.06480478 -0.07833555 0.035 0.7705133 0.6374239 1.311341e-07 
0.04355729 -0.05265174 0.035 0.7705133 0.6374239 1.311341e-07 
0.02230983 -0.02696796 0.035 0.7705133 0.6374239 1.311341e-07 
0.001062369 -0.00128419 0.035 0.7705133 0.6374239 1.311341e-07 
-0.02018509 0.02439958 0.035 0.7705133 0.6374239 1.311341e-07 
-0.04143257 0.05008337 0.035 0.7705133 0.6374239 1.311341e-07 
-0.06268003 0.07576714 0.035 0.7705133 0.6374239 1.311342e-07 
-0.08392751 0.1014509 0.035 0.7705133 0.6374239 1.311341e-07 
-0.105175 0.1271347 0.035 0.7705133 0.6374239 1.311341e-07 
0.08605223 -0.1040193 0.001666665 0.7705133 0.6374239 1.311342e-07 
0.06480478 -0.07833555 0.001666665 0.7705133 0.6374239 1.311342e-07 
0.0435573 -0.05265174 0.001666665 0.7705133 0.6374239 1.311341e-07 
0.02230983 -0.02696796 0.001666665 0.7705133 0.6374239 1.311341e-07 
0.001062372 -0.001284188 0.001666665 0.7705133 0.6374239 1.311341e-07 
-0.02018509 0.02439958 0.001666665 0.7705133 0.6374239 1.311342e-07 
-0.04143256 0.05008337 0.001666665 0.7705133 0.6374239 1.311342e-07 
-0.06268002 0.07576714 0.001666665 0.7705133 0.6374239 1.311342e-07 
-0.08392751 0.1014509 0.001666665 0.7705133 0.6374239 1.311342e-07 
-0.105175 0.1271347 0.001666665 0.7705133 0.6374239 1.311342e-07 
0.08605223 -0.1040193 -0.03166667 0.7705133 0.6374239 1.311342e-07 
0.06480479 -0.07833554 -0.03166667 0.7705133 0.6374239 1.311342e-07 
0.0435573 -0.05265173 -0.03166667 0.7705133 0.6374239 1.311342e-07 
0.02230983 -0.02696795 -0.03166667 0.7705133 0.6374239 1.311342e-07 
0.001062375 -0.001284185 -0.03166667 0.7705133 0.6374239 1.311342e-07 
-0.02018508 0.02439958 -0.03166667 0.7705133 0.6374239 1.311342e-07 
-0.04143256 0.05008338 -0.03166667 0.7705133 0.6374239 1.311341e-07 
-0.06268002 0.07576714 -0.03166667 0.7705133 0.6374239 1.311342e-07 
-0.0839275 0.1014509 -0.03166667 0.7705133 0.6374239 1.311342e-07 
-0.105175 0.1271347 -0.03166667 0.7705133 0.6374239 1.311342e-07 
0.08605224 -0.1040193 -0.06500001 0.7705133 0.6374239 1.311342e-07 
0.06480479 -0.07833554 -0.06500001 0.7705133 0.6374239 1.311342e-07 
0.0435573 -0.05265173 -0.06500001 0.7705133 0.6374239 1.311342e-07 
0.02230984 -0.02696795 -0.06500001 0.7705133 0.6374239 1.311342e-07 
0.001062379 -0.001284182 -0.06500001 0.7705133 0.6374239 1.311342e-07 
-0.02018508 0.02439959 -0.06500001 0.7705133 0.6374239 1.311342e-07 
-0.04143256 0.05008338 -0.06500001 0.7705133 0.6374239 1.311341e-07 
-0.06268001 0.07576714 -0.06500001 0.7705133 0.6374239 1.311341e-07 
-0.0839275 0.101451 -0.06500001 0.7705133 0.6374239 1.311342e-07 
-0.105175 0.1271347 -0.06500001 0.7705133 0.6374239 1.311342e-07 
0.08605224 -0.1040193 -0.09833334 0.7705133 0.6374239 1.311341e-07 
0.06480479 -0.07833554 -0.09833334 0.7705133 0.6374239 1.311341e-07 
0.0435573 -0.05265173 -0.09833334 0.7705133 0.6374239 1.311341e-07 
0.02230984 -0.02696795 -0.09833334 0.7705133 0.6374239 1.31134e-07 
0.001062382 -0.001284179 -0.09833334 0.7705133 0.6374239 1.31134e-07 
-0.02018508 0.02439959 -0.09833334 0.7705133 0.6374239 1.311342e-07 
-0.04143255 0.05008338 -0.09833334 0.7705133 0.6374239 1.311342e-07 
-0.06268001 0.07576715 -0.09833334 0.7705133 0.6374239 1.311341e-07 
-0.0839275 0.101451 -0.09833334 0.7705133 0.6374239 1.311341e-07 
-0.1051749 0.1271347 -0.09833334 0.7705133 0.6374239 1.311341e-07 
0.08605225 -0.1040193 -0.1316667 0.7705133 0.6374239 1.311341e-07 
0.0648048 -0.07833553 -0.1316667 0.7705133 0.6374239 1.311341e-07 
0.04355731 -0.05265173 -0.1316667 0.7705133 0.6374239 1.311342e-07 
0.02230984 -0.02696794 -0.1316667 0.7705133 0.6374239 1.311341e-07 
0.001062385 -0.001284176 -0.1316667 0.7705133 0.6374239 1.311341e-07 
-0.02018507 0.02439959 -0.1316667 0.7705133 0.6374239 1.311341e-07 
-0.04143255 0.05008338 -0.1316667 0.7705133 0.6374239 1.311342e-07 
-0.06268001 0.07576715 -0.1316667 0.7705133 0.6374239 1.311342e-07 
-0.0839275 0.101451 -0.1316667 0.7705133 0.6374239 1.311342e-07 
-0.1051749 0.1271347 -0.1316667 0.7705133 0.6374239 1.311342e-07 
0.08605225 -0.1040193 -0.165 0.7705133 0.6374239 1.311343e-07 
0.0648048 -0.07833553 -0.165 0.7705133 0.6374239 1.311342e-07 
0.04355731 -0.05265172 -0.165 0.7705133 0.6374239 1.311343e-07 
0.02230985 -0.02696794 -0.165 0.7705133 0.6374239 1.311343e-07 
0.001062389 -0.001284174 -0.165 0.7705133 0.6374239 1.311344e-07 
-0.02018507 0.0243996 -0.165 0.7705133 0.6374239 1.311343e-07 
-0.04143254 0.05008339 -0.165 0.7705133 0.6374239 1.311343e-07 
-0.06268001 0.07576716 -0.165 0.7705133 0.6374239 1.311343e-07 
-0.0839275 0.101451 -0.165 0.7705133 0.6374239 1.311343e-07 
-0.1051749 0.1271347 -0.165 0.7705133 0.6374239 1.311343e-07 
3 11 1 0 
3 0 10 11 
3 12 2 1 
3 1 11 12 
3 13 3 2 
3 2 12 13 
3 14 4 3 
3 3 13 14 
3 15 5 4 
3 4 14 15 
3 16 6 5 
3 5 15 16 
3 17 7 6 
3 6 16 17 
3 18 8 7 
3 7 17 18 
3 19 9 8 
3 8 18 19 
3 21 11 10 
3 10 20 21 
3 22 12 11 
3 11 21 22 
3 23 13 12 
3 12 22 23 
3 24 14 13 
3 13 23 24 
3 25 15 14 
3 14 24 25 
3 26 16 15 
3 15 25 26 
3 27 17 16 
3 16 26 27 
3 28 18 17 
3 17 27 28 
3 29 19 18 
3 18 28 29 
3 31 21 20 
3 20 30 31 
3 32 22 21 
3 21 31 32 
3 33 23 22 
3 22 32 33 
3 34 24 23 
3 23 33 34 
3 35 25 24 
3 24 34 35 
3 36 26 25 
3 25 35 36 
3 37 27 26 
3 26 36 37 
3 38 28 27 
3 27 37 38 
3 39 29 28 
3 28 38 39 
3 41 31 30 
3 30 40 41 
3 42 32 31 
3 31 41 42 
3 43 33 32 
3 32 42 43 
3 44 34 33 
3 33 43 44 
3 45 35 34 
3 34 44 45 
3 46 36 35 
3 35 45 46 
3 47 37 36 
3 36 46 47 
3 48 38 37 
3 37 47 48 
3 49 39 38 
3 38 48 49 
3 51 41 40 
3 40 50 51 
3 52 42 41 
3 41 51 52 
3 53 43 42 
3 42 52 53 
3 54 44 43 
3 43 53 54 
3 55 45 44 
3 44 54 55 
3 56 46 45 
3 45 55 56 
3 57 47 46 
3 46 56 57 
3 58 48 47 
3 47 57 58 
3 59 49 48 
3 48 58 59 
3 61 51 50 
3 50 60 61 
3 62 52 51 
3 51 61 62 
3 63 53 52 
3 52 62 63 
3 64 54 53 
3 53 63 64 
3 65 55 54 
3 54 64 65 
3 66 56 55 
3 55 65 66 
3 67 57 56 
3 56 66 67 
3 68 58 57 
3 57 67 68 
3 69 59 58 
3 58 68 69 
3 71 61 60 
3 60 70 71 
3 72 62 61 
3 61 71 72 
3 73 63 62 
3 62 72 73 
3 74 64 63 
3 63 73 74 
3 75 65 64 
3 64 74 75 
3 76 66 65 
3 65 75 76 
3 77 67 66 
3 66 76 77 
3 78 68 67 
3 67 77 78 
3 79 69 68 
3 68 78 79 
3 81 71 70 
3 70 80 81 
3 82 72 71 
3 71 81 82 
3 83 73 72 
3 72 82 83 
3 84 74 73 
3 73 83 84 
3 85 75 74 
3 74 84 85 
3 86 76 75 
3 75 85 86 
3 87 77 76 
3 76 86 87 
3 88 78 77 
3 77 87 88 
3 89 79 78 
3 78 88 89 
3 91 81 80 
3 80 90 91 
3 92 82 81 
3 81 91 92 
3 93 83 82 
3 82 92 93 
3 94 84 83 
3 83 93 94 
3 95 85 84 
3 84 94 95 
3 96 86 85 
3 85 95 96 
3 97 87 86 
3 86 96 97 
3 98 88 87 
3 87 97 98 
3 99 89 88 
3 88 98 99 
