ply
format ascii 1.0
comment VCGLIB generated
element vertex 441
property float x
property float y
property float z
property float nx
property float ny
property float nz
element face 806
property list uchar int vertex_indices
end_header
0.000598 0.001218 0.011721 0.5466412 5.004822 -0.04669814 
-0.000299 0.000514 0.013692 -4.233915 1.89077 0.3484919 
0.001077 0.001853 0.027299 -4.294704 1.801635 0.1579028 
0.002481 0.002242 0.028867 0.3906767 4.896047 -0.2677422 
0.000451 -0.000712 0.014225 -3.311901 -3.750041 0.5039256 
0.001049 0.000502 0.026884 -2.964469 -3.792359 0.3930267 
0.001799 -0.000776 0.012518 2.290453 -4.171737 0.1898731 
0.002324 8.8e-05 0.026754 2.418771 -4.342958 0.1303189 
0.00195 0.000619 0.011945 4.651057 1.15753 -0.1715859 
0.003253 0.001151 0.028522 4.608274 0.9809485 -0.2614605 
-0.000336 0.000667 -0.010119 -2.251353 0.9308523 -2.643187 
0.000931 0.001078 -0.010118 0.1933678 2.440033 -2.587293 
0.000563 0 -0.010118 0.00462467 2.910383e-11 -4.999998 
-0.000336 -0.000667 -0.010119 -1.577889 -1.861981 -2.627876 
0.000931 -0.001078 -0.010118 1.291451 -2.087203 -2.562196 
0.001715 0 -0.010117 2.389471 0.5783127 -2.537207 
0.002687 0.002908 0.072592 0.5096688 2.412269 2.480355 
0.001526 0.002009 0.072592 -2.129958 1.225176 2.53708 
0.002725 0.00166 0.072592 0 0 5 
0.002022 0.000628 0.072592 -1.818563 -1.648092 2.550314 
0.003489 0.000673 0.072592 1.009212 -2.244958 2.502111 
0.0039 0.002082 0.072592 2.453705 0.2636335 2.458679 
0.002716 0.002497 0.065567 -0.2382682 0.9854975 -2.737479 
0.001943 0.001899 0.065566 -0.9440869 0.06042033 -2.773999 
0.000107 0.002344 0.066201 -3.285964 0.6142417 -2.214497 
0.002524 0.004215 0.066201 -0.4011854 3.406218 -2.217221 
0.002274 0.000979 0.065566 -0.3264668 -0.9155186 -2.765235 
0.00114 -0.000533 0.066201 -1.554054 -2.947442 -2.237144 
0.003251 0.001008 0.065567 0.8480482 -0.6378694 -2.719456 
0.004195 -0.000439 0.066201 2.370337 -2.448278 -2.257448 
0.003524 0.001947 0.065567 0.9075368 0.5976943 -2.701121 
0.00505 0.002495 0.066201 3.141695 1.473514 -2.24244 
-0.001056 0.001134 0.002318 -2.374779 0.3579874 0.2082315 
-0.001056 -0.001134 0.002318 -1.27389 -2.235071 0.2371378 
0.001101 -0.001835 0.00232 1.701325 -1.724389 0.1031437 
0.002434 0 0.002321 2.189844 1.181906 0.05756649 
0.001101 0.001835 0.00232 -0.276639 2.555853 0.1176898 
0.002459 0.002745 0.044586 0.3131534 4.808432 -0.06279342 
0.003731 0.002087 0.044001 4.598937 0.8845335 -0.05741283 
0.003419 0.001028 0.043107 2.745087 -4.374063 0.06755389 
0.002435 0.000639 0.044189 -2.781219 -3.873402 0.1785882 
0.001658 0.001849 0.044698 -4.47612 1.643804 0.07477311 
0.003015 0.002564 0.058847 0.5161892 4.841987 0.06306323 
0.003643 0.0017 0.058847 4.712286 0.8268425 0.04980505 
0.003015 0.000837 0.057208 2.580361 -4.371426 0.0525908 
0.002 0.001167 0.057206 -3.142724 -3.773084 0.04165956 
0.002 0.002234 0.058846 -4.475381 1.868465 0.05440145 
0.002716 0.002497 0.065567 0.9245788 2.319782 0.03463224 
0.003524 0.001947 0.065567 2.465908 -0.213336 0.02675827 
0.003251 0.001008 0.065567 0.6012251 -2.445404 0.01274744 
0.002274 0.000979 0.065566 -2.103154 -1.381384 0.009255364 
0.001943 0.001899 0.065566 -1.915593 1.572077 0.02922623 
-0.001056 0.001134 0.002318 -1.356715 1.615613 1.611621 
0.001101 0.001835 0.00232 1.159244 1.841368 1.481045 
0.001469 0.003471 -2e-06 1.474881 4.220191 0.9695604 
-0.002612 0.002145 -5e-06 -3.504513 2.670117 1.01284 
-0.001056 -0.001134 0.002318 -1.924605 -0.8077787 1.640629 
-0.002612 -0.002145 -5e-06 -3.610046 -2.5467 0.968459 
0.001101 -0.001835 0.00232 0.1852229 -2.132332 1.531966 
0.001469 -0.003471 -2e-06 1.350867 -4.281941 0.8937844 
0.002434 0 0.002321 2.133256 -0.5167676 1.430279 
0.00399 0 0 4.521012 -0.06155169 0.8931311 
0.01158 -0.004794 0.079957 -2.454553 -1.207496 0.701733 
0.011714 -0.005117 0.07868 -1.197213 -2.33926 -0.8231955 
0.017899 -0.00606 0.082115 -1.204087 -3.016345 3.878288 
0.017925 -0.006012 0.080348 -0.1980516 -1.91713 -3.681908 
0.016585 -0.00248 0.082123 0.2704368 1.20116 3.403713 
0.020011 -0.000569 0.080753 1.680341 0.870718 2.477561 
0.010585 -0.000895 0.079376 -2.050708 0.8158233 4.921907 
0.016451 0.00131 0.080206 -0.3671992 2.978765 2.697127 
0.016744 0.001418 0.078871 2.212847 3.080535 -1.871149 
0.020541 -0.000648 0.079594 1.45055 -0.6066725 -1.098675 
0.0167 -0.002712 0.08082 1.318126 -0.988415 -2.969891 
0.011681 -0.001686 0.077318 1.216931 -1.823559 -4.756207 
0.002415 0.000865 0.071411 0.2966192 -0.2597421 -2.579827 
0.002199 0.001083 0.07243 -3.745909 1.132979 2.195974 
0.007914 0.003421 0.072778 0.1644676 2.015364 -1.283781 
0.008988 0.002456 0.076048 -1.13905 3.641513 2.322128 
0.005812 -0.003885 0.073547 -0.8478299 -1.909296 -0.7007955 
0.005045 -0.003556 0.075064 -1.135633 -1.285996 0.8324993 
0.007671 -0.0006 0.07433 2.524805 -2.419531 -4.847747 
0.006749 1.6e-05 0.076079 -3.167779 0.9658935 4.405563 
0.007621 -0.003487 0.076012 -0.1770855 -1.701806 0.3923894 
0.021226 -0.008257 0.080378 -0.217817 -1.534426 -0.1413908 
0.020671 -0.004245 0.079901 -0.8873205 -0.1230827 -4.889672 
0.027378 -0.006622 0.078652 0.3827304 -0.08186507 -0.1787702 
0.021004 -0.004089 0.081438 1.591206 0.3259329 4.51534 
0.023265 -0.001874 0.079507 0.2248838 1.752589 -0.4556511 
0.011072 -0.004828 0.078482 0.4702902 -1.26266 0.364056 
0.018273 0.002527 0.070206 1.18215 -1.714901 2.808805 
0.017935 0.001702 0.069287 -0.3985167 -2.343839 0.3101789 
0.022547 0.004737 0.067619 0.664655 -1.423106 -0.541374 
0.013971 0.004646 0.071038 0.5038121 -0.167743 5.471761 
0.020745 0.006366 0.069817 2.385764 0.4376253 5.01266 
0.015485 0.007323 0.070353 -0.05065628 2.682185 3.068534 
0.020762 0.00978 0.068633 0.4723294 0.8148172 -0.4688953 
0.015211 0.00736 0.069604 -0.530011 1.505631 -2.759227 
0.01373 0.004587 0.070002 -0.5301649 0.06714809 -5.746231 
0.020396 0.006289 0.069404 -1.778778 0.2594117 -4.155346 
0.009372 0.007129 0.069162 -0.1988108 0.2922077 -1.920438 
0.002415 0.001773 0.072276 -2.375706 -0.4210658 -1.468926 
0.009638 0.00704 0.070483 0.9957664 1.559622 1.514277 
0.002115 0.001752 0.073468 -0.3002315 -0.1202728 1.659453 
0.008192 7.3e-05 0.071164 1.037444 -3.820303 2.574739 
0.007984 -0.000238 0.070454 -0.4819411 -2.119464 -1.123955 
0.010695 0.001095 0.070533 1.113328 -2.871578 2.999624 
0.016615 0.001622 0.07 1.19732 -0.412698 -0.05028753 
0.008834 0.003405 0.071958 0.6944281 -0.01445061 4.574942 
0.010553 0.000819 0.068869 0.3339325 -2.244308 -2.149226 
0.008477 0.003373 0.070172 0.5620526 0.4161597 -4.966311 
0.005413 0.002498 0.070992 -1.686569 -0.4189387 -4.592625 
0.005751 0.002608 0.072287 1.096326 -0.1080405 4.659943 
0.024569 0.007309 0.06647 4.521463 0.8169165 3.041784 
0.02565 0.00438 0.064449 0.2900132 0.1735594 -0.69853 
0.021567 0.009969 0.067941 -1.013343 1.015519 0.5533395 
0.023722 0.010039 0.063988 -0.1974434 0.6301289 -0.2288475 
0.023564 0.007045 0.065804 -4.680261 -1.251567 -3.42525 
0.026759 0.007896 0.059003 0.03168964 0.08501504 -0.3123132 
0.025592 0.004145 0.063264 -0.1469509 -0.930876 0.4894763 
0.011015 0.007694 0.070012 -0.875535 2.048258 0.07182613 
0.01312 0.009145 0.072921 0.4104075 -2.256129 0.4482112 
0.012502 0.009371 0.071716 1.159703 -2.23323 -1.708901 
0.016239 0.015046 0.071224 4.285876 -1.777336 2.281281 
0.015693 0.014637 0.070155 0.01455709 -1.884475 -3.817251 
0.01343 0.015217 0.073502 0.7546241 0.9661563 3.100443 
0.012059 0.018863 0.071811 0.5761757 2.070899 0.5320765 
0.009095 0.010119 0.073301 1.626918 -0.4969183 5.211049 
0.009193 0.016425 0.073828 -1.007378 1.175037 2.780533 
0.008856 0.01608 0.072478 -3.116922 2.704707 -2.265216 
0.011658 0.018407 0.07124 -0.4349675 0.8831775 -2.676752 
0.012727 0.015067 0.071459 -0.4488454 0.02816726 -4.341909 
0.009019 0.010117 0.072117 -0.866684 -0.8195925 -5.811757 
0.001715 0.001822 0.071706 -1.241968 -0.4149914 -3.025921 
0.001614 0.001409 0.072991 -0.3936615 -2.206846 3.375034 
0.002174 0.007636 0.071755 -2.3774 0.8869182 -0.5400409 
0.004505 0.0091 0.072936 -2.459711 1.298047 3.500278 
0.007407 0.003229 0.070116 1.019282 -1.745624 -0.5003963 
0.007233 0.003552 0.071442 1.578233 -1.723342 1.381431 
0.005608 0.00639 0.071241 0.1345614 0.1845865 -5.89194 
0.005794 0.006195 0.073447 0.8542795 -1.161318 5.376398 
0.008596 0.005701 0.071647 1.848961 -1.489095 -0.01352483 
0.01806 0.016722 0.068078 1.285361 -1.010457 -0.5641011 
0.014883 0.017765 0.069601 -2.245837 -1.825847 -4.017809 
0.017738 0.022418 0.064551 0.063802 0.1859457 -0.4155657 
0.015712 0.018563 0.070918 2.50097 2.070076 3.125217 
0.013109 0.020906 0.068928 -1.526953 0.7855915 0.04924703 
0.012126 0.008567 0.071686 1.28474 0.2550237 -0.3224654 
-0.004493 -0.011422 0.077573 -2.162467 1.093219 0.3104098 
-0.003776 -0.011922 0.076571 -1.890003 1.123428 -2.572046 
-0.004319 -0.017452 0.077595 -1.574158 -0.7426085 -1.883249 
1.3e-05 -0.008819 0.076709 -0.985902 2.959427 3.610341 
-0.001742 -0.015034 0.080362 -1.17355 0.6280821 5.077043 
0.001743 -0.011082 0.078092 1.944424 1.189525 3.673015 
0.001632 -0.016913 0.079897 0.7675384 -0.9571722 0.451005 
0.002427 -0.01165 0.076962 1.753044 -1.346096 -1.66985 
0.000176 -0.009071 0.075971 0.7929527 -2.478764 -5.209332 
-0.001115 -0.015247 0.07861 1.425582 -1.273308 -4.314589 
0.004339 -0.006692 0.074375 0.7983717 -1.338253 -1.765821 
0.003 0.002237 0.071045 0.913946 0.8943378 -2.601713 
0.004279 -0.00667 0.075692 0.3937067 -0.532169 2.160878 
0.002669 0.002868 0.07258 -0.3325895 1.278668 1.584751 
-0.001595 -0.00269 0.072778 -3.756569 1.281515 -0.1000901 
-0.001262 -0.002952 0.072085 -1.504158 -0.2551388 -2.806036 
-0.001771 -0.005295 0.073756 -2.649687 1.037415 1.180722 
-0.003991 -0.011398 0.076237 -0.5047219 -1.02232 -0.2654082 
0.001209 -0.00401 0.074574 -1.036009 1.985851 4.320293 
-0.001098 -0.005685 0.073033 -1.779871 -1.716676 -4.224783 
0.001563 -0.00461 0.073268 0.4729099 -3.436303 -4.090515 
0.002179 -0.001659 0.071921 0.7799662 -1.694008 -4.569003 
0.001862 -0.001109 0.073456 -1.32153 1.64309 4.473482 
-0.001902 -0.020117 0.078631 -1.819072 -2.460146 4.829217 
-0.00505 -0.021549 0.076392 0.3389071 -0.7690809 -0.2888664 
0.001755 -0.017941 0.079839 1.177054 0.449939 0.17908 
0.000949 -0.02178 0.077532 0.4082614 -0.1147683 -0.02210391 
-0.001708 -0.01984 0.078023 1.632551 1.797831 -5.329446 
-0.001309 -0.026855 0.073651 0.06734332 -0.1157464 -0.1118618 
-0.004531 -0.021847 0.075615 -0.7731637 0.706004 0.04069914 
0.004614 -0.008009 0.075887 1.845336 0.4323238 0.4859925 
-0.004666 0.011653 0.076783 2.347903 0.5259233 0.121148 
-0.005119 0.011439 0.075651 2.154118 1.642674 -1.454077 
-0.01053 0.015178 0.076444 1.968865 3.379747 3.801778 
-0.010136 0.015165 0.075482 1.484584 1.14505 -3.386562 
-0.010639 0.011891 0.077748 -1.106774 -0.07293081 3.278469 
-0.014248 0.011247 0.075817 -2.297678 0.5161754 0.8489965 
-0.005481 0.007538 0.07683 0.7197252 -0.4571206 5.069004 
-0.012039 0.007795 0.07668 -1.245726 -2.062526 2.275398 
-0.011785 0.007922 0.075116 -2.945706 -1.694691 -3.149442 
-0.01389 0.01109 0.075269 -0.9254031 0.6880794 -2.713899 
-0.01057 0.011956 0.075708 -0.3207402 1.287186 -4.23529 
-0.00572 0.007993 0.075 0.5526889 1.464248 -5.819074 
0.0021 0.001417 0.071457 0.3749791 -0.2161893 -2.894598 
0.002185 0.001249 0.072125 2.248356 -1.978179 2.61686 
-0.003677 0.001634 0.071607 -0.8992584 -2.203434 -1.47524 
-0.004961 0.003211 0.07431 -0.7959785 -2.946605 2.431805 
0.000821 0.006954 0.072214 1.624058 1.245095 -1.380256 
0.001416 0.007028 0.073672 1.292871 0.8121855 0.3524828 
-0.002211 0.005269 0.072309 -0.4750146 2.26159 -5.304443 
-0.002018 0.004747 0.074034 1.758217 -1.265342 5.192656 
-0.00098 0.008368 0.073879 0.6321374 1.224119 0.07679415 
-0.012136 0.018259 0.074429 0.8078708 1.04152 0.1091381 
-0.013459 0.014782 0.075231 1.474103 -0.6577157 -4.532828 
-0.017592 0.018918 0.071644 -0.1418805 0.08861636 -0.2417943 
-0.013875 0.014979 0.076103 -1.902766 1.259238 3.96834 
-0.016103 0.013708 0.073844 -0.7428063 -1.096862 -0.3428934 
-0.00408 0.011619 0.075356 -0.2773021 1.090317 0.1448337 
-0.01081 -0.00279 0.073835 0.08306679 2.385439 0.3826105 
-0.010415 -0.003133 0.072712 -0.8266457 2.660043 -1.653909 
-0.015499 -0.007575 0.072458 -3.342965 2.383085 2.764123 
-0.014928 -0.00731 0.071327 0.2192939 2.266626 -3.563673 
-0.012536 -0.008535 0.074272 -0.9366839 -1.139991 3.200966 
-0.012507 -0.012641 0.072543 -1.02453 -1.888622 1.446483 
-0.007148 -0.004565 0.074284 -0.8210334 0.5087112 5.461842 
-0.00884 -0.010466 0.073845 1.353711 -1.881265 3.13938 
-0.008489 -0.010399 0.072886 2.575907 -3.391347 -1.769763 
-0.011988 -0.012504 0.071104 -0.2469346 -0.6562164 -1.946643 
-0.012093 -0.008416 0.07262 -0.05352521 0.1064075 -3.759039 
-0.007286 -0.004595 0.07224 0.4226585 1.056968 -5.643351 
0.001603 0.001573 0.071832 0.9919168 0.200501 -2.526927 
0.001515 0.001546 0.072363 1.786338 1.748597 3.57702 
-8.6e-05 -0.00376 0.071651 1.898526 -1.167374 -0.4040354 
-0.002555 -0.004699 0.072908 2.439813 -1.90427 3.476929 
-0.004129 0.001735 0.070745 -0.5648171 1.92096 -0.9960033 
-0.004267 0.001986 0.07232 -0.7143168 1.543032 0.6837896 
-0.00306 -0.001746 0.071752 -0.503937 0.06226107 -5.952655 
-0.003007 -0.001628 0.073709 0.3929268 0.9835794 5.330392 
-0.005929 -0.00019 0.072199 -1.239697 1.093306 -0.2095363 
-0.018374 -0.008279 0.06918 -0.9111248 1.242009 -0.3088927 
-0.014747 -0.010335 0.070223 2.549262 1.366106 -4.039586 
-0.018733 -0.013528 0.066575 -0.161763 -0.357236 -0.37748 
-0.015578 -0.01092 0.071562 -2.661637 -1.890587 3.458815 
-0.014436 -0.013372 0.069808 1.396119 -1.4446 -0.01387361 
-0.009477 -0.002446 0.072645 -1.377678 0.2858212 -0.2010881 
0.008999 -0.012633 0.070081 -2.00539 -1.343519 1.618409 
0.008905 -0.012328 0.069293 -3.145135 -0.1702694 -0.5990766 
0.012241 -0.016011 0.066899 -2.644819 -1.334711 -1.448913 
0.009812 -0.007738 0.070616 -0.7407832 -0.3480673 4.974381 
0.0139 -0.014007 0.070103 1.259911 -2.195405 4.470327 
0.013505 -0.008007 0.070718 2.271682 1.068218 2.382584 
0.016435 -0.012367 0.06803 1.542476 -0.1354784 -0.8708421 
0.012967 -0.007789 0.068789 1.026017 1.420243 -3.22384 
0.009649 -0.007541 0.069916 -1.324105 0.8049551 -5.720538 
0.013438 -0.012889 0.068039 -0.6491272 1.771643 -4.348371 
0.01064 -0.00256 0.069028 0.1483949 0.1772465 -1.937606 
0.003292 0.002394 0.072703 -1.300544 2.311612 -1.010119 
0.01099 -0.00301 0.070496 1.789326 -0.5105028 1.720038 
0.003566 0.001968 0.073353 0.05494294 0.3439519 2.521604 
0.003268 -0.004144 0.071826 -3.004544 -1.845264 1.523979 
0.003324 -0.003688 0.070812 -2.496897 -0.2121187 -2.143477 
0.005323 -0.005882 0.070706 -1.672322 -1.972083 2.160414 
0.008262 -0.011227 0.069537 0.02649939 -1.000212 -0.6195637 
0.006989 -0.00332 0.071863 0.5955697 -0.9561256 4.646903 
0.005425 -0.005514 0.069848 -2.077523 -1.110961 -3.792263 
0.006791 -0.003044 0.070716 0.1162708 -0.5743111 -5.113704 
0.004925 -0.000299 0.070881 -1.007834 0.9567915 -4.470489 
0.00528 -0.000703 0.072494 0.7905359 -1.025832 4.714651 
0.015814 -0.017213 0.065931 2.408918 -3.843866 2.296861 
0.012631 -0.019372 0.063107 0.1130341 -0.1595607 -0.6839903 
0.017008 -0.013218 0.067153 1.19947 1.59568 0.1291247 
0.017221 -0.01533 0.063353 0.8785855 0.7630492 -0.4609736 
0.014869 -0.015803 0.064991 -2.695639 3.960715 -3.352315 
0.01647 -0.018461 0.057789 0.1029217 0.1162005 -0.4825359 
0.013152 -0.018402 0.0626 -1.098764 -0.3149298 0.4118715 
0.011586 -0.00407 0.069881 1.053955 1.779746 -0.04206589 
-0.006541 0.006203 0.079889 1.868502 1.704207 -0.01850167 
-0.006909 0.006011 0.078971 0.3359296 2.418128 -1.696244 
-0.012961 0.006041 0.081858 1.265648 4.06498 2.986541 
-0.012962 0.005908 0.081078 -0.0411541 2.165262 -4.152462 
-0.010898 0.003293 0.082478 0.7458451 -0.5145078 3.256001 
-0.014407 0.000478 0.082111 -1.239617 -0.8473886 1.900367 
-0.005152 0.002571 0.079184 2.409063 0.317097 4.977808 
-0.010119 -0.000479 0.080969 1.282498 -2.373969 3.207112 
-0.010406 -0.00085 0.079856 -1.667785 -3.003185 -1.561914 
-0.014051 0.000589 0.080866 -1.741505 -0.06752676 -2.230268 
-0.011543 0.003263 0.080544 -1.618588 0.9338358 -3.902035 
-0.005583 0.002639 0.078321 -1.849258 1.414182 -5.390183 
0.00311 0.001484 0.071351 -0.500214 0.05139969 -2.547709 
0.003326 0.001438 0.072336 3.944517 -0.0335646 1.867707 
-0.0017 -0.001859 0.073344 0.1747719 -2.094546 -1.007063 
-0.002781 -0.00078 0.076546 1.95902 -3.172495 2.620446 
-0.000818 0.005185 0.073759 0.2068222 2.079566 -1.385389 
-0.000302 0.005422 0.074559 0.7640431 1.648155 0.19595 
-0.002105 0.002234 0.07454 -3.406461 1.412433 -4.541809 
-0.000963 0.002003 0.076311 3.403508 0.2325917 4.425301 
-0.002588 0.005158 0.075848 -0.1962791 1.964734 -0.1892099 
-0.016677 0.00811 0.080632 0.4388994 1.857722 -0.402701 
-0.015318 0.003995 0.080566 0.4724157 0.2972725 -4.935922 
-0.022463 0.004933 0.079552 -0.5606562 0.008341163 -0.3329298 
-0.01568 0.003881 0.083031 -0.6959327 0.1901265 4.218492 
-0.017536 0.000807 0.080506 0.04833379 -1.984429 -0.5303961 
-0.005842 0.005714 0.078285 -1.027313 0.8697786 0.4271432 
0.008683 0.01017 0.079787 2.075876 -1.045367 0.7203801 
0.008229 0.010571 0.078704 2.101959 -1.623109 -2.149953 
0.008541 0.015992 0.078646 2.696327 -0.1984845 -2.018272 
0.004225 0.007997 0.078695 0.1742807 -2.882456 3.823943 
0.0061 0.014421 0.081556 0.5093617 0.06915319 5.006432 
0.002418 0.010515 0.079558 -2.776251 -0.5520585 3.158729 
0.003087 0.01635 0.079978 -0.8579281 1.216363 0.05996236 
0.002082 0.011056 0.078109 -1.533065 1.059354 -2.307401 
0.004198 0.008247 0.077957 0.6255726 2.185733 -5.166495 
0.005603 0.014385 0.079249 -0.777266 0.431665 -4.62962 
-5e-06 0.007667 0.075409 0.3116641 1.782465 -1.133491 
0.001651 0.001113 0.070383 -0.2226177 -0.04259038 -2.791055 
-1e-05 0.00692 0.076878 -1.444731 -0.1920327 1.781048 
0.001371 -8.9e-05 0.071315 -0.7103364 -1.868849 0.6296008 
0.006229 0.002621 0.074611 3.07756 -2.49205 0.5933724 
0.006146 0.003365 0.073483 1.999422 0.3215817 -2.211655 
0.006109 0.00476 0.075959 2.235553 -2.302226 2.18953 
0.007865 0.008778 0.078432 0.9023389 1.001253 0.6194175 
0.002909 0.003965 0.076158 -0.4421983 -2.813945 3.691407 
0.006345 0.005831 0.0744 2.713301 1.488351 -2.140603 
0.003011 0.00517 0.074679 0.4956301 4.542239 -2.696978 
0.002603 0.003435 0.07272 0.8185408 3.023359 -3.664776 
0.002297 0.002341 0.073887 -0.7813119 -3.326468 3.356879 
0.007301 0.019623 0.079367 1.441358 2.732059 4.040727 
0.010481 0.019705 0.076735 0.1131464 0.4895031 -0.5713016 
0.003209 0.017447 0.079629 -1.83219 -0.3350396 0.07184932 
0.004218 0.020889 0.076659 -0.9056467 0.2437248 -0.2795139 
0.006873 0.018589 0.077786 -1.001651 -2.68583 -5.131011 
0.00794 0.024855 0.072483 -0.02153704 0.1896623 -0.4180831 
0.010177 0.019994 0.075763 0.9125211 -0.7525746 0.1156565 
0.000865 0.007886 0.077186 -2.195032 -0.1055495 -0.07210612 
0.002678 -0.008638 0.080973 -2.220648 -0.1310388 1.024625 
0.003142 -0.008766 0.079946 -3.112396 0.1808255 -1.940403 
0.005214 -0.013928 0.079713 -2.227043 -1.299876 -1.404826 
0.004906 -0.004186 0.080093 -1.097972 2.386908 3.614058 
0.007176 -0.010718 0.082082 0.36887 -0.1211374 5.422903 
0.007871 -0.005682 0.080037 2.667264 1.62401 2.541957 
0.010217 -0.010009 0.080808 1.623897 -0.3956448 -0.1894219 
0.007879 -0.005814 0.079305 2.917279 -0.4600218 -2.696084 
0.005317 -0.005235 0.077877 1.080277 -2.165208 -4.973348 
0.007372 -0.010555 0.080207 1.523983 -0.07884383 -4.543255 
0.007666 -0.001736 0.07601 0.6751063 -1.493472 -0.8806906 
0.002788 0.002385 0.071035 0.0526589 0.1934507 -2.432079 
0.007189 -0.001271 0.076597 1.660042 1.137805 1.980929 
0.002455 0.00359 0.072011 -0.123147 2.081661 0.4761949 
-0.000171 -0.001108 0.075892 -3.776182 0.5122024 0.9661218 
0.000121 -0.002062 0.074265 -1.162389 -1.440076 -1.642226 
0.001179 -0.002811 0.077266 -2.459831 0.6505166 2.335425 
0.002641 -0.008125 0.079749 -0.5289199 -1.218872 0.2709736 
0.003796 -0.000554 0.076824 -0.6379249 2.762682 3.635566 
0.001782 -0.003861 0.075577 -1.504103 -3.047922 -2.161821 
0.004244 -0.001667 0.075391 1.555896 -3.594567 -3.16368 
0.003407 0.000213 0.073662 1.046476 -3.080898 -3.65876 
0.003189 0.001287 0.074756 -0.3900328 3.41094 3.355632 
0.008767 -0.015778 0.080247 0.6463379 -3.058732 4.249375 
0.00593 -0.017784 0.078066 0.27755 -0.548201 -0.560985 
0.011747 -0.01153 0.080337 1.000876 1.132339 -0.1060631 
0.011441 -0.015475 0.077516 0.7610415 0.17611 -0.3755836 
0.008503 -0.014928 0.078955 -1.033156 2.511172 -5.215546 
0.010486 -0.020961 0.073508 0.05597036 -0.1075323 -0.3654773 
0.006694 -0.017734 0.077145 -1.19027 0.1306133 0.2101406 
0.008142 -0.002395 0.077589 2.603265 1.06114 -0.6001704 
-0.004893 -0.002682 0.065389 -2.460063 0.7322729 0.8070233 
-0.00431 -0.002334 0.064929 -0.1830499 2.79956 -0.1321004 
-0.004524 -0.005231 0.062128 -0.9784427 1.782044 -1.751494 
-0.001696 -0.004097 0.068506 -2.785987 -0.5735798 4.139457 
-0.003201 -0.007094 0.065305 -3.936734 -3.229755 2.414801 
0.000301 -0.006828 0.068014 0.3353046 -2.559509 2.203979 
3.6e-05 -0.009017 0.06565 1.030243 -1.309192 -0.6038736 
0.0007 -0.006238 0.067246 3.559331 -0.06999174 -1.935887 
-0.000787 -0.003622 0.067516 3.23831 2.135067 -4.341049 
-0.001652 -0.006137 0.064336 3.611702 2.15202 -2.385868 
0.003621 -0.004637 0.069228 1.871683 0.1926692 -1.099269 
0.002125 0.00139 0.072426 2.804371 2.718752 1.023968 
0.002859 -0.005306 0.069947 -0.2756319 -2.112764 0.8918838 
0.001578 0.00114 0.073378 -0.1458572 0.3679542 2.227405 
-0.002391 0.001749 0.069273 -3.196755 2.310853 0.6108937 
-0.00164 0.002179 0.068643 0.2269636 2.523883 -1.250575 
-0.002441 9.3e-05 0.068254 -3.501441 0.1192388 0.6977538 
-0.003862 -0.001774 0.066028 -1.259147 -0.1646231 -1.300271 
-2.4e-05 -0.001775 0.070202 -3.045429 -1.897837 3.07567 
-0.001434 0.000436 0.067316 -0.3032334 2.492066 -3.676146 
0.00126 -0.001098 0.068792 2.341811 0.3683873 -4.775832 
0.001875 0.000302 0.070225 3.297409 2.409358 -2.638942 
0.00025 -0.00076 0.071908 -3.163902 -1.919232 2.934763 
-0.002919 -0.008079 0.061873 -4.016934 -4.067516 -0.5135433 
-0.004724 -0.005006 0.059322 0.1530427 -0.1205437 -0.7614954 
0.000592 -0.0102 0.064906 0.9567858 -0.2783649 0.5799017 
-0.000313 -0.009154 0.061453 0.7339057 -0.5223922 -0.2574614 
-0.002026 -0.007129 0.061836 3.98364 4.185585 -0.7375408 
-0.000761 -0.007874 0.055462 0.2429795 -0.1001819 -0.3240887 
-0.003948 -0.005576 0.058756 -0.6839395 0.715146 0.3846452 
0.002548 -0.005386 0.069147 1.788644 -0.8095723 0.6188303 
0.009241 0.006578 0.065232 3.400874 0.6192113 0.8606061 
0.009174 0.005663 0.065207 1.310569 -1.719084 0.968245 
0.0086 0.007242 0.060958 1.635748 -1.972311 -0.6842929 
0.006771 0.007921 0.067877 3.34569 2.221183 3.801048 
0.008237 0.009709 0.063157 3.916345 3.772033 0.278671 
0.00537 0.010369 0.066606 -0.2241533 3.279519 1.331251 
0.005032 0.011182 0.062722 -0.9593016 0.8916844 -1.149279 
0.004418 0.009151 0.065815 -3.46031 -0.5934848 -1.433422 
0.005792 0.006959 0.066953 -3.590789 -3.598398 -2.832478 
0.006977 0.008635 0.062964 -3.614291 -2.582606 -0.925668 
0.00218 0.008014 0.06829 -0.5516426 -0.3967741 -1.989365 
0.001525 0.002375 0.071977 -1.838307 -1.629405 0.3522403 
0.002928 0.00861 0.069008 0.3653051 2.218038 0.9208029 
0.002287 0.003179 0.073044 0.1586652 0.4940518 2.364348 
0.006796 0.003121 0.070555 3.331531 -0.7714109 1.915146 
0.006286 0.002023 0.069724 0.3542455 -1.684199 -1.208532 
0.006598 0.004524 0.069032 3.469036 0.5451028 1.928407 
0.008852 0.005915 0.065875 1.113714 -0.4261374 -0.4934416 
0.00481 0.005841 0.070069 2.501569 2.001165 3.563181 
0.00637 0.004029 0.06858 1.14333 -1.894107 -2.71253 
0.004353 0.005443 0.069458 -1.665009 -1.69123 -4.596311 
0.003286 0.004094 0.070274 -1.720604 -1.927435 -4.168909 
0.003773 0.004706 0.07133 2.243445 2.44613 3.616429 
0.007323 0.008784 0.05841 3.940086 3.499077 -2.121673 
0.008713 0.005769 0.057699 -0.1268092 -0.4601238 -0.6220586 
0.00505 0.011056 0.061165 -1.1596 1.005543 0.8301482 
0.004135 0.009455 0.056987 -0.8222654 0.5815032 -0.1806377 
0.006348 0.007641 0.059213 -3.541499 -4.358461 1.646227 
0.004412 0.0059 0.050219 -0.1669961 -0.07600838 -0.3150247 
0.008221 0.005436 0.056224 0.9844784 -0.5246971 0.4530621 
0.003186 0.008827 0.06825 -2.299795 0.7106661 0.8967752 
0.00445 -0.003322 0.065804 -0.1443067 -2.253196 1.65463 
0.003808 -0.003161 0.065872 -1.471111 -1.673073 0.5046095 
0.005408 -0.002858 0.06149 1.560434 -5.688331 -0.7284255 
0.004508 -0.002507 0.06169 -3.57263 0.8316286 0.08129881 
0.007336 -0.001309 0.063325 3.379226 -1.805714 -0.4826826 
0.008903 0.001855 0.061172 2.93199 -0.8090691 -1.717064 
0.006762 -0.00121 0.067631 4.048456 -3.512647 1.258258 
0.008777 0.002077 0.064523 4.453029 -0.3238368 1.390536 
0.008421 0.00342 0.064503 0.9423951 2.941456 -0.4230978 
0.007787 0.002832 0.060911 -1.309292 0.9712349 -1.286016 
0.006619 -0.000736 0.063261 -3.095222 1.81189 -1.079658 
0.005679 -0.000399 0.067078 -4.552905 2.238529 -0.8510783 
0.002079 0.001729 0.073454 -2.153553 1.615595 -0.22439 
0.003311 0.000889 0.073663 1.507979 -1.450552 3.72555 
0.005298 0.003548 0.070318 0.2896436 2.382216 0.8342428 
0.006577 0.002379 0.069384 4.038813 0.497355 2.37403 
0.001704 -0.001651 0.070021 -2.522486 -0.454874 -0.1084207 
0.001952 -0.002459 0.070293 -0.8068005 -1.122938 0.1476747 
0.003919 0.000663 0.069566 -4.383069 2.5165 -3.055642 
0.005214 -0.000249 0.070318 3.407182 -3.071399 2.869845 
0.003012 -0.001895 0.068738 -1.378599 -1.172695 -0.890713 
0.003688 -0.002614 0.058495 -0.6812527 -1.13872 -0.2201749 
0.005985 -0.000261 0.060146 -3.911382 2.731267 1.389284 
0.003893 0.001504 0.053168 -0.1168483 0.1053082 -0.201851 
0.006702 -0.000704 0.059716 3.750495 -2.423664 -1.765635 
0.007239 0.002728 0.05883 0.646365 1.163141 0.534099 
0.003688 -0.003029 0.066415 -0.3503211 -0.7483253 -1.014975 
3 0 1 2 
3 0 2 3 
3 1 4 5 
3 1 5 2 
3 4 6 7 
3 4 7 5 
3 6 8 9 
3 6 9 7 
3 8 0 3 
3 8 3 9 
3 10 11 12 
3 13 10 12 
3 14 13 12 
3 15 14 12 
3 11 15 12 
3 16 17 18 
3 17 19 18 
3 19 20 18 
3 20 21 18 
3 21 16 18 
3 22 23 24 
3 22 24 25 
3 23 26 27 
3 23 27 24 
3 26 28 29 
3 26 29 27 
3 28 30 31 
3 28 31 29 
3 30 22 25 
3 30 25 31 
3 25 24 17 
3 25 17 16 
3 24 27 19 
3 24 19 17 
3 27 29 20 
3 27 20 19 
3 29 31 21 
3 29 21 20 
3 31 25 16 
3 31 16 21 
3 32 33 4 
3 32 4 1 
3 33 34 6 
3 33 6 4 
3 34 35 8 
3 34 8 6 
3 35 36 0 
3 35 0 8 
3 36 32 1 
3 36 1 0 
3 9 3 37 
3 9 37 38 
3 7 9 38 
3 7 38 39 
3 5 7 39 
3 5 39 40 
3 2 5 40 
3 2 40 41 
3 3 2 41 
3 3 41 37 
3 38 37 42 
3 38 42 43 
3 39 38 43 
3 39 43 44 
3 40 39 44 
3 40 44 45 
3 41 40 45 
3 41 45 46 
3 37 41 46 
3 37 46 42 
3 43 42 47 
3 43 47 48 
3 44 43 48 
3 44 48 49 
3 45 44 49 
3 45 49 50 
3 46 45 50 
3 46 50 51 
3 42 46 51 
3 42 51 47 
3 52 53 54 
3 52 54 55 
3 56 52 55 
3 56 55 57 
3 58 56 57 
3 58 57 59 
3 60 58 59 
3 60 59 61 
3 53 60 61 
3 53 61 54 
3 55 54 11 
3 55 11 10 
3 57 55 10 
3 57 10 13 
3 59 57 13 
3 59 13 14 
3 61 59 14 
3 61 14 15 
3 54 61 15 
3 54 15 11 
3 62 63 64 
3 64 63 65 
3 66 67 68 
3 69 68 67 
3 69 67 70 
3 70 67 71 
3 72 73 71 
3 73 70 71 
3 74 75 76 
3 76 75 77 
3 74 78 75 
3 75 78 79 
3 66 68 64 
3 68 62 64 
3 72 65 73 
3 63 73 65 
3 76 70 80 
3 80 70 73 
3 76 77 70 
3 70 77 69 
3 77 81 69 
3 69 81 68 
3 74 76 80 
3 78 82 79 
3 78 74 82 
3 82 74 80 
3 83 84 85 
3 64 65 83 
3 66 64 86 
3 86 64 83 
3 84 87 85 
3 86 83 85 
3 87 86 85 
3 72 84 65 
3 65 84 83 
3 79 82 75 
3 75 82 81 
3 77 75 81 
3 87 66 86 
3 72 87 84 
3 82 88 81 
3 81 88 68 
3 82 80 88 
3 88 80 73 
3 68 73 62 
3 62 73 63 
3 66 72 67 
3 67 72 71 
3 66 87 72 
3 68 88 73 
3 89 90 91 
3 92 93 94 
3 94 93 95 
3 96 94 95 
3 97 96 98 
3 96 95 98 
3 99 100 101 
3 101 100 102 
3 102 100 103 
3 103 100 104 
3 91 93 89 
3 92 89 93 
3 98 91 97 
3 90 97 91 
3 105 106 107 
3 107 106 92 
3 108 106 105 
3 108 109 106 
3 106 109 97 
3 110 99 109 
3 102 111 101 
3 103 111 102 
3 104 108 103 
3 103 108 105 
3 104 110 108 
3 108 110 109 
3 93 91 112 
3 112 91 113 
3 93 112 114 
3 114 112 115 
3 116 115 117 
3 112 118 117 
3 115 112 117 
3 98 116 91 
3 91 116 113 
3 98 114 116 
3 116 114 115 
3 100 110 104 
3 99 110 100 
3 103 105 111 
3 111 105 107 
3 101 111 107 
3 118 116 117 
3 107 92 119 
3 119 92 94 
3 96 119 94 
3 109 119 97 
3 97 119 96 
3 92 106 97 
3 107 109 101 
3 101 109 99 
3 93 114 98 
3 112 113 116 
3 112 116 118 
3 93 98 95 
3 89 92 90 
3 90 92 97 
3 107 119 109 
3 120 121 122 
3 122 121 123 
3 124 125 126 
3 127 126 125 
3 127 125 128 
3 128 125 129 
3 130 131 129 
3 131 128 129 
3 132 133 134 
3 134 133 135 
3 132 136 133 
3 133 136 137 
3 124 126 122 
3 126 120 122 
3 130 123 131 
3 121 131 123 
3 134 128 138 
3 138 128 131 
3 134 135 128 
3 128 135 127 
3 135 139 127 
3 127 139 126 
3 132 134 138 
3 136 140 137 
3 136 132 140 
3 140 132 138 
3 141 142 143 
3 122 123 141 
3 124 122 144 
3 144 122 141 
3 142 145 143 
3 144 141 143 
3 145 144 143 
3 130 142 123 
3 123 142 141 
3 137 140 133 
3 133 140 139 
3 135 133 139 
3 145 124 144 
3 130 145 142 
3 140 146 139 
3 139 146 126 
3 140 138 146 
3 146 138 131 
3 126 131 120 
3 120 131 121 
3 124 130 125 
3 125 130 129 
3 124 145 130 
3 126 146 131 
3 147 148 149 
3 150 151 152 
3 152 151 153 
3 154 152 153 
3 155 154 156 
3 154 153 156 
3 157 158 159 
3 159 158 160 
3 160 158 161 
3 161 158 162 
3 149 151 147 
3 150 147 151 
3 156 149 155 
3 148 155 149 
3 163 164 165 
3 165 164 150 
3 166 164 163 
3 166 167 164 
3 164 167 155 
3 168 157 167 
3 160 169 159 
3 161 169 160 
3 162 166 161 
3 161 166 163 
3 162 168 166 
3 166 168 167 
3 151 149 170 
3 170 149 171 
3 151 170 172 
3 172 170 173 
3 174 173 175 
3 170 176 175 
3 173 170 175 
3 156 174 149 
3 149 174 171 
3 156 172 174 
3 174 172 173 
3 158 168 162 
3 157 168 158 
3 161 163 169 
3 169 163 165 
3 159 169 165 
3 176 174 175 
3 165 150 177 
3 177 150 152 
3 154 177 152 
3 167 177 155 
3 155 177 154 
3 150 164 155 
3 165 167 159 
3 159 167 157 
3 151 172 156 
3 170 171 174 
3 170 174 176 
3 151 156 153 
3 147 150 148 
3 148 150 155 
3 165 177 167 
3 178 179 180 
3 180 179 181 
3 182 183 184 
3 185 184 183 
3 185 183 186 
3 186 183 187 
3 188 189 187 
3 189 186 187 
3 190 191 192 
3 192 191 193 
3 190 194 191 
3 191 194 195 
3 182 184 180 
3 184 178 180 
3 188 181 189 
3 179 189 181 
3 192 186 196 
3 196 186 189 
3 192 193 186 
3 186 193 185 
3 193 197 185 
3 185 197 184 
3 190 192 196 
3 194 198 195 
3 194 190 198 
3 198 190 196 
3 199 200 201 
3 180 181 199 
3 182 180 202 
3 202 180 199 
3 200 203 201 
3 202 199 201 
3 203 202 201 
3 188 200 181 
3 181 200 199 
3 195 198 191 
3 191 198 197 
3 193 191 197 
3 203 182 202 
3 188 203 200 
3 198 204 197 
3 197 204 184 
3 198 196 204 
3 204 196 189 
3 184 189 178 
3 178 189 179 
3 182 188 183 
3 183 188 187 
3 182 203 188 
3 184 204 189 
3 205 206 207 
3 207 206 208 
3 209 210 211 
3 212 211 210 
3 212 210 213 
3 213 210 214 
3 215 216 214 
3 216 213 214 
3 217 218 219 
3 219 218 220 
3 217 221 218 
3 218 221 222 
3 209 211 207 
3 211 205 207 
3 215 208 216 
3 206 216 208 
3 219 213 223 
3 223 213 216 
3 219 220 213 
3 213 220 212 
3 220 224 212 
3 212 224 211 
3 217 219 223 
3 221 225 222 
3 221 217 225 
3 225 217 223 
3 226 227 228 
3 207 208 226 
3 209 207 229 
3 229 207 226 
3 227 230 228 
3 229 226 228 
3 230 229 228 
3 215 227 208 
3 208 227 226 
3 222 225 218 
3 218 225 224 
3 220 218 224 
3 230 209 229 
3 215 230 227 
3 225 231 224 
3 224 231 211 
3 225 223 231 
3 231 223 216 
3 211 216 205 
3 205 216 206 
3 209 215 210 
3 210 215 214 
3 209 230 215 
3 211 231 216 
3 232 233 234 
3 235 236 237 
3 237 236 238 
3 239 237 238 
3 240 239 241 
3 239 238 241 
3 242 243 244 
3 244 243 245 
3 245 243 246 
3 246 243 247 
3 234 236 232 
3 235 232 236 
3 241 234 240 
3 233 240 234 
3 248 249 250 
3 250 249 235 
3 251 249 248 
3 251 252 249 
3 249 252 240 
3 253 242 252 
3 245 254 244 
3 246 254 245 
3 247 251 246 
3 246 251 248 
3 247 253 251 
3 251 253 252 
3 236 234 255 
3 255 234 256 
3 236 255 257 
3 257 255 258 
3 259 258 260 
3 255 261 260 
3 258 255 260 
3 241 259 234 
3 234 259 256 
3 241 257 259 
3 259 257 258 
3 243 253 247 
3 242 253 243 
3 246 248 254 
3 254 248 250 
3 244 254 250 
3 261 259 260 
3 250 235 262 
3 262 235 237 
3 239 262 237 
3 252 262 240 
3 240 262 239 
3 235 249 240 
3 250 252 244 
3 244 252 242 
3 236 257 241 
3 255 256 259 
3 255 259 261 
3 236 241 238 
3 232 235 233 
3 233 235 240 
3 250 262 252 
3 263 264 265 
3 265 264 266 
3 267 268 269 
3 270 269 268 
3 270 268 271 
3 271 268 272 
3 273 274 272 
3 274 271 272 
3 275 276 277 
3 277 276 278 
3 275 279 276 
3 276 279 280 
3 267 269 265 
3 269 263 265 
3 273 266 274 
3 264 274 266 
3 277 271 281 
3 281 271 274 
3 277 278 271 
3 271 278 270 
3 278 282 270 
3 270 282 269 
3 275 277 281 
3 279 283 280 
3 279 275 283 
3 283 275 281 
3 284 285 286 
3 265 266 284 
3 267 265 287 
3 287 265 284 
3 285 288 286 
3 287 284 286 
3 288 287 286 
3 273 285 266 
3 266 285 284 
3 280 283 276 
3 276 283 282 
3 278 276 282 
3 288 267 287 
3 273 288 285 
3 283 289 282 
3 282 289 269 
3 283 281 289 
3 289 281 274 
3 269 274 263 
3 263 274 264 
3 267 273 268 
3 268 273 272 
3 267 288 273 
3 269 289 274 
3 290 291 292 
3 293 294 295 
3 295 294 296 
3 297 295 296 
3 298 297 299 
3 297 296 299 
3 300 301 302 
3 302 301 303 
3 303 301 304 
3 304 301 305 
3 292 294 290 
3 293 290 294 
3 299 292 298 
3 291 298 292 
3 306 307 308 
3 308 307 293 
3 309 307 306 
3 309 310 307 
3 307 310 298 
3 311 300 310 
3 303 312 302 
3 304 312 303 
3 305 309 304 
3 304 309 306 
3 305 311 309 
3 309 311 310 
3 294 292 313 
3 313 292 314 
3 294 313 315 
3 315 313 316 
3 317 316 318 
3 313 319 318 
3 316 313 318 
3 299 317 292 
3 292 317 314 
3 299 315 317 
3 317 315 316 
3 301 311 305 
3 300 311 301 
3 304 306 312 
3 312 306 308 
3 302 312 308 
3 319 317 318 
3 308 293 320 
3 320 293 295 
3 297 320 295 
3 310 320 298 
3 298 320 297 
3 293 307 298 
3 308 310 302 
3 302 310 300 
3 294 315 299 
3 313 314 317 
3 313 317 319 
3 294 299 296 
3 290 293 291 
3 291 293 298 
3 308 320 310 
3 321 322 323 
3 324 325 326 
3 326 325 327 
3 328 326 327 
3 329 328 330 
3 328 327 330 
3 331 332 333 
3 333 332 334 
3 334 332 335 
3 335 332 336 
3 323 325 321 
3 324 321 325 
3 330 323 329 
3 322 329 323 
3 337 338 339 
3 339 338 324 
3 340 338 337 
3 340 341 338 
3 338 341 329 
3 342 331 341 
3 334 343 333 
3 335 343 334 
3 336 340 335 
3 335 340 337 
3 336 342 340 
3 340 342 341 
3 325 323 344 
3 344 323 345 
3 325 344 346 
3 346 344 347 
3 348 347 349 
3 344 350 349 
3 347 344 349 
3 330 348 323 
3 323 348 345 
3 330 346 348 
3 348 346 347 
3 332 342 336 
3 331 342 332 
3 335 337 343 
3 343 337 339 
3 333 343 339 
3 350 348 349 
3 339 324 351 
3 351 324 326 
3 328 351 326 
3 341 351 329 
3 329 351 328 
3 324 338 329 
3 339 341 333 
3 333 341 331 
3 325 346 330 
3 344 345 348 
3 344 348 350 
3 325 330 327 
3 321 324 322 
3 322 324 329 
3 339 351 341 
3 352 353 354 
3 355 356 357 
3 357 356 358 
3 359 357 358 
3 360 359 361 
3 359 358 361 
3 362 363 364 
3 364 363 365 
3 365 363 366 
3 366 363 367 
3 354 356 352 
3 355 352 356 
3 361 354 360 
3 353 360 354 
3 368 369 370 
3 370 369 355 
3 371 369 368 
3 371 372 369 
3 369 372 360 
3 373 362 372 
3 365 374 364 
3 366 374 365 
3 367 371 366 
3 366 371 368 
3 367 373 371 
3 371 373 372 
3 356 354 375 
3 375 354 376 
3 356 375 377 
3 377 375 378 
3 379 378 380 
3 375 381 380 
3 378 375 380 
3 361 379 354 
3 354 379 376 
3 361 377 379 
3 379 377 378 
3 363 373 367 
3 362 373 363 
3 366 368 374 
3 374 368 370 
3 364 374 370 
3 381 379 380 
3 370 355 382 
3 382 355 357 
3 359 382 357 
3 372 382 360 
3 360 382 359 
3 355 369 360 
3 370 372 364 
3 364 372 362 
3 356 377 361 
3 375 376 379 
3 375 379 381 
3 356 361 358 
3 352 355 353 
3 353 355 360 
3 370 382 372 
3 383 384 385 
3 386 387 388 
3 388 387 389 
3 390 388 389 
3 391 390 392 
3 390 389 392 
3 393 394 395 
3 395 394 396 
3 396 394 397 
3 397 394 398 
3 385 387 383 
3 386 383 387 
3 392 385 391 
3 384 391 385 
3 399 400 401 
3 401 400 386 
3 402 400 399 
3 402 403 400 
3 400 403 391 
3 404 393 403 
3 396 405 395 
3 397 405 396 
3 398 402 397 
3 397 402 399 
3 398 404 402 
3 402 404 403 
3 387 385 406 
3 406 385 407 
3 387 406 408 
3 408 406 409 
3 410 409 411 
3 406 412 411 
3 409 406 411 
3 392 410 385 
3 385 410 407 
3 392 408 410 
3 410 408 409 
3 394 404 398 
3 393 404 394 
3 397 399 405 
3 405 399 401 
3 395 405 401 
3 412 410 411 
3 401 386 413 
3 413 386 388 
3 390 413 388 
3 403 413 391 
3 391 413 390 
3 386 400 391 
3 401 403 395 
3 395 403 393 
3 387 408 392 
3 406 407 410 
3 406 410 412 
3 387 392 389 
3 383 386 384 
3 384 386 391 
3 401 413 403 
3 414 415 416 
3 416 415 417 
3 418 419 420 
3 421 420 419 
3 421 419 422 
3 422 419 423 
3 424 425 423 
3 425 422 423 
3 426 427 428 
3 428 427 429 
3 426 430 427 
3 427 430 431 
3 418 420 416 
3 420 414 416 
3 424 417 425 
3 415 425 417 
3 428 422 432 
3 432 422 425 
3 428 429 422 
3 422 429 421 
3 429 433 421 
3 421 433 420 
3 426 428 432 
3 430 434 431 
3 430 426 434 
3 434 426 432 
3 435 436 437 
3 416 417 435 
3 418 416 438 
3 438 416 435 
3 436 439 437 
3 438 435 437 
3 439 438 437 
3 424 436 417 
3 417 436 435 
3 431 434 427 
3 427 434 433 
3 429 427 433 
3 439 418 438 
3 424 439 436 
3 434 440 433 
3 433 440 420 
3 434 432 440 
3 440 432 425 
3 420 425 414 
3 414 425 415 
3 418 424 419 
3 419 424 423 
3 418 439 424 
3 420 440 425 
