ply
format ascii 1.0
comment VCGLIB generated
element vertex 414
property float x
property float y
property float z
property float nx
property float ny
property float nz
element face 756
property list uchar int vertex_indices
end_header
0.000915 0.000955 0.009266 0.8350067 4.982036 0.1479841 
0.00038 0.000208 0.010851 -3.668069 2.143602 2.051084 
0.006244 0.000681 0.017482 -2.487782 2.089478 3.183496 
0.007152 0.000954 0.015905 0.6210052 4.771156 -0.3757155 
0.001138 -0.000972 0.01111 -2.960541 -3.61954 1.44588 
0.006056 -0.000568 0.017432 -2.043974 -3.502305 2.118289 
0.002081 -0.000955 0.009721 1.848083 -4.466299 -0.7384009 
0.006294 -0.000954 0.016018 1.334169 -4.624431 -1.790288 
0.002152 0.000382 0.009278 4.231834 0.8563951 -1.533872 
0.007161 -5.6e-05 0.014991 2.970883 0.5249923 -3.313381 
-0.001124 0.000938 -0.009381 -2.267492 0.9400702 -2.6761 
0.000666 0.001517 -0.009399 0.174978 2.423521 -2.6216 
0.000122 -0 -0.009392 -0.04945688 -0.002607353 -4.999753 
-0.001137 -0.000938 -0.00938 -1.603329 -1.848188 -2.663229 
0.000631 -0.001517 -0.009397 1.257567 -2.089058 -2.594777 
0.001741 -0 -0.009409 2.371068 0.5549937 -2.571508 
0.035121 0.001135 0.049352 0.1792955 2.499474 2.336872 
0.03391 0.00029 0.049184 -2.330691 1.239896 2.660156 
0.035153 -3.8e-05 0.049353 -0.6445718 0.003500859 4.958189 
0.034409 -0.001008 0.049257 -2.065907 -1.662396 2.644971 
0.035944 -0.000966 0.049456 0.7025998 -2.291533 2.29453 
0.036369 0.000359 0.049504 2.157978 0.229724 2.12889 
0.034505 0.000749 0.04089 0.2712422 1.341177 -2.548456 
0.033732 0.000186 0.040707 -0.5118781 0.07502154 -2.824794 
0.031443 0.000605 0.041122 -2.774638 0.7846031 -2.031917 
0.03405 0.002364 0.041712 0.1572992 3.846381 -1.903571 
0.03407 -0.000678 0.040785 0.1723312 -1.236545 -2.612118 
0.032548 -0.002099 0.041382 -1.127986 -3.199117 -2.211196 
0.035067 -0.00065 0.04101 1.485427 -0.8550035 -2.315993 
0.035862 -0.002011 0.04206 2.931308 -2.844676 -2.187007 
0.035333 0.000232 0.04107 1.542076 0.825822 -2.236207 
0.0368 0.000747 0.04221 3.705634 1.571445 -2.054836 
-0.001747 0.001347 0.002212 -2.35166 0.3328833 0.6402905 
-0.001765 -0.001347 0.002213 -1.190019 -2.233678 0.4678075 
0.000774 -0.002179 0.002189 1.735362 -1.706542 0.01519395 
0.00237 -0 0.002172 2.2098 1.176214 0.004625108 
0.000825 0.002179 0.002186 -0.3215044 2.488945 0.3696645 
0.019624 0.000982 0.024556 0.08812445 4.796279 -0.162909 
0.020269 0.000364 0.023593 2.468089 1.129006 -3.753907 
0.019313 -0.000632 0.023236 1.648468 -3.878911 -2.537167 
0.019426 -0.000998 0.024239 -1.279246 -4.042408 2.175361 
0.019171 0.00014 0.024906 -2.344253 1.161969 3.617761 
0.035301 0.000812 0.034998 0.1414278 5.063066 -0.4305503 
0.03624 -0 0.034628 3.383275 1.374954 -1.96113 
0.034396 -0.000812 0.033486 2.05825 -4.519164 -0.9543729 
0.032983 -0.000502 0.034083 -2.065395 -3.948077 1.358557 
0.03397 0.000502 0.035597 -3.542557 2.238914 1.720107 
0.034505 0.000749 0.04089 0.8015672 2.50927 0.1329878 
0.035333 0.000232 0.04107 2.069962 -0.560524 0.07641965 
0.035067 -0.00065 0.04101 0.570211 -2.671649 0.009512851 
0.03407 -0.000678 0.040785 -2.066413 -0.7628661 0.09485434 
0.033732 0.000186 0.040707 -1.791544 1.950046 0.02700374 
-0.001747 0.001347 0.002212 -1.293275 1.570342 1.745263 
0.000825 0.002179 0.002186 1.148697 1.765362 1.613071 
0.001234 0.003887 2.6e-05 1.501121 4.121609 1.06636 
-0.003353 0.002403 7.1e-05 -3.42246 2.657358 1.114612 
-0.001765 -0.001347 0.002213 -1.846919 -0.7682558 1.778092 
-0.003386 -0.002403 7.4e-05 -3.55021 -2.467668 1.07291 
0.000774 -0.002179 0.002189 0.1927696 -2.062459 1.665175 
0.001145 -0.003887 3e-05 1.315512 -4.221136 0.9858243 
0.00237 -0 0.002172 2.083275 -0.5147038 1.554463 
0.00399 -0 -0 4.472291 -0.1133239 0.9886505 
0.048444 0.000354 0.046989 1.221729 -2.151557 2.609902 
0.048221 -4.6e-05 0.046421 -0.3735193 -2.817858 0.1804149 
0.052208 0.001844 0.044748 0.8333549 -2.582685 -0.804118 
0.044929 0.002432 0.048611 0.2722605 -0.2888796 5.080925 
0.050604 0.003939 0.047137 2.465947 0.3557435 4.92553 
0.04594 0.005316 0.047541 -0.3109039 2.836188 1.961252 
0.050258 0.007043 0.045758 0.3858106 1.215384 -0.8623652 
0.045794 0.004889 0.04666 -0.9169755 2.459171 -3.601277 
0.044532 0.002355 0.045918 -0.8390575 0.1591249 -5.594796 
0.049821 0.003979 0.045615 -1.710579 0.6179764 -4.367392 
0.040527 0.004457 0.046457 0.3185835 0.1230607 -2.13066 
0.0336 -5.4e-05 0.047425 -1.581372 -0.2830914 -1.166376 
0.040725 0.004514 0.046928 0.7256886 2.02144 1.483679 
0.034592 8.6e-05 0.049174 -0.4023408 0.2097398 2.407371 
0.040206 -0.002209 0.048047 0.9638474 -3.221516 2.257013 
0.039676 -0.002187 0.046709 -0.4423589 -1.661966 -1.887555 
0.042058 -0.000634 0.047074 1.19885 -2.756793 2.901878 
0.047986 -0.000363 0.046534 0.8967009 -1.08627 0.0873064 
0.040639 0.001502 0.04893 0.05900919 -0.3225011 3.993259 
0.041905 -0.001127 0.045451 0.433267 -1.758072 -2.317598 
0.040104 0.001386 0.047008 0.2440642 0.6693287 -4.971364 
0.03749 0.000735 0.047596 -0.8285077 0.02433237 -4.627052 
0.037772 0.000786 0.048351 0.4846525 0.3552556 4.401969 
0.054076 0.004757 0.044283 4.369392 0.8151127 2.760585 
0.054746 0.001582 0.042071 0.2956835 -0.002641797 -0.719724 
0.050839 0.007586 0.045216 -1.144449 1.231569 0.3007009 
0.052769 0.007299 0.041836 -0.2694153 0.8896106 -0.4188663 
0.052576 0.004394 0.043308 -4.441731 -1.233612 -3.615844 
0.055338 0.005142 0.037789 0.04925472 0.08762425 -0.5448172 
0.054449 0.001783 0.041337 -0.1340869 -1.018548 0.3947361 
0.04244 0.004972 0.046876 -1.403384 2.815326 -0.4071675 
0.044388 0.005844 0.049196 0.5718398 -2.095662 1.111468 
0.043951 0.005429 0.047646 1.186945 -1.748401 -0.7901403 
0.046565 0.010946 0.047588 4.442715 -1.393974 3.380464 
0.046356 0.010545 0.046879 -0.1467789 -1.58345 -3.280365 
0.044096 0.0111 0.049113 1.022242 0.9549237 3.49263 
0.043046 0.015052 0.04846 0.9911305 2.03918 1.01944 
0.04077 0.006911 0.050063 1.486086 -0.5078101 5.321228 
0.040339 0.012625 0.050179 -1.485335 1.139055 2.810298 
0.040035 0.012285 0.048833 -2.981698 2.585993 -1.973371 
0.042408 0.014604 0.047224 -0.2551215 0.6764789 -2.237709 
0.043729 0.011047 0.04815 -0.2898113 -0.1484682 -4.077962 
0.040584 0.006997 0.048687 -0.8844212 -0.5745769 -5.224073 
0.033495 -6.2e-05 0.046822 -0.7601469 -0.1210926 -2.447914 
0.034015 -5.7e-05 0.048383 -0.9307851 -2.128085 3.722313 
0.034044 0.005224 0.047451 -2.10922 0.8856363 -0.1741012 
0.036423 0.006388 0.048937 -2.282478 0.906618 3.526568 
0.039181 0.001207 0.046705 0.9322646 -1.809529 -1.414887 
0.039639 0.00098 0.047884 0.9768076 -1.546293 0.3595445 
0.037442 0.003952 0.047316 0.6717075 0.7211978 -5.816723 
0.037741 0.003851 0.048903 0.1233938 -1.382286 5.562921 
0.040997 0.002795 0.047806 1.341821 -0.5524671 -0.2369794 
0.048962 0.011935 0.044775 1.079349 -0.953022 -0.1241105 
0.045446 0.013289 0.046436 -2.386435 -1.843171 -3.953292 
0.047664 0.016856 0.042624 0.04445198 0.2794683 -0.3869359 
0.046112 0.013916 0.047478 2.297934 1.950752 3.418149 
0.043794 0.016082 0.045963 -1.554314 0.6423236 0.178944 
0.04349 0.005453 0.048121 1.103155 0.3959377 -0.2063288 
0.029628 -0.010201 0.053731 -2.838992 1.08049 1.390199 
0.029555 -0.01036 0.052616 -1.982846 1.133522 -1.379284 
0.030213 -0.01487 0.05423 -2.077412 -0.6571723 -1.313392 
0.03322 -0.007428 0.054251 -0.8575644 2.730886 3.980401 
0.031966 -0.013005 0.056652 -1.314028 0.5933365 4.808321 
0.035088 -0.009878 0.054416 2.436726 0.8063611 3.879159 
0.035254 -0.014683 0.056104 0.74089 -0.8199271 0.4669545 
0.035594 -0.010201 0.053736 2.002892 -1.606346 -1.358396 
0.033595 -0.008432 0.052111 1.383505 -2.871736 -4.877773 
0.032428 -0.013137 0.05509 1.568294 -1.193462 -4.07934 
0.037605 -0.006462 0.051437 0.9234284 -1.309272 -1.499997 
0.035438 0.001191 0.047962 1.316898 1.568771 -1.927393 
0.037434 -0.006214 0.052658 0.9988372 -0.1676767 2.173001 
0.035315 0.001596 0.049488 -0.1779854 1.779 1.427299 
0.030977 -0.002825 0.049056 -4.347083 2.073688 1.464032 
0.030714 -0.003043 0.047661 -1.152174 0.1932606 -1.678167 
0.031111 -0.004965 0.050221 -3.649879 1.517687 1.901031 
0.02955 -0.010023 0.052646 -1.2155 -0.7472403 0.1529408 
0.034218 -0.003706 0.052108 -1.250812 2.301337 3.653049 
0.03119 -0.00573 0.048463 -1.651622 -1.404547 -2.078889 
0.034466 -0.004503 0.050069 0.9140871 -3.621284 -3.599964 
0.034817 -0.002145 0.048514 1.541762 -1.744624 -4.223241 
0.034656 -0.001421 0.050801 -1.354299 2.147174 3.939488 
0.031698 -0.017474 0.055446 -1.965118 -2.298132 4.45625 
0.0285 -0.018633 0.052739 0.08244225 -0.5948771 -0.3834937 
0.035736 -0.015463 0.056178 1.336667 0.6760488 0.1629024 
0.035008 -0.018837 0.054069 0.7374901 -0.2762935 -0.09516424 
0.032128 -0.0169 0.054151 1.528568 2.002513 -5.377208 
0.032316 -0.022149 0.051227 0.03468969 -0.3202433 -0.3380193 
0.029719 -0.018629 0.052501 -0.9292069 0.6361263 -0.1246297 
0.037859 -0.007271 0.052785 2.45569 0.1101043 0.5904126 
0.029331 0.008453 0.051893 2.085708 -0.09128755 0.8140832 
0.029464 0.008575 0.050373 2.101695 1.422395 -0.5329466 
0.024329 0.011353 0.051518 1.048909 2.873595 4.357379 
0.024777 0.011558 0.04989 1.590832 1.668659 -3.279415 
0.023986 0.008405 0.051706 -1.353897 -0.5983909 3.656498 
0.020168 0.007507 0.050021 -2.384191 0.6248313 2.118464 
0.028078 0.004886 0.051229 0.419386 -0.7192737 5.349124 
0.022044 0.004552 0.051077 -1.245852 -2.069104 2.295312 
0.022118 0.004863 0.049448 -3.082706 -2.296282 -2.41989 
0.019627 0.007543 0.048615 -0.9024693 0.5869077 -1.322362 
0.023657 0.00842 0.050162 -0.1143993 1.414885 -3.392691 
0.027438 0.005502 0.048784 0.8231959 1.374273 -5.155643 
0.034256 -0.000335 0.04669 0.8324907 -0.1474361 -3.07397 
0.034707 -0.000666 0.047852 2.234783 -2.058227 2.806031 
0.028322 -0.000459 0.045912 -0.7018187 -2.135597 -1.444525 
0.027921 0.000998 0.048902 -0.9785333 -3.073222 2.459012 
0.033754 0.005042 0.047179 1.658293 1.124002 -0.6135604 
0.033719 0.004412 0.048749 1.552295 0.8593354 1.415163 
0.030157 0.003019 0.046763 0.3671983 2.766766 -5.024551 
0.030795 0.002504 0.048991 1.387618 -1.623291 5.337484 
0.031706 0.005299 0.04916 1.084643 1.522188 0.9946241 
0.0227 0.013767 0.049449 0.6627256 1.526451 0.01794535 
0.021276 0.010657 0.049143 1.886635 -0.5234255 -4.519588 
0.01665 0.014469 0.04548 -0.1026383 0.2779561 -0.2269738 
0.021085 0.010878 0.050525 -2.29604 0.9632008 4.000552 
0.017447 0.009119 0.047343 -0.4609193 -1.316842 -0.2435271 
0.029611 0.007717 0.050443 0.386293 1.483103 0.5235494 
0.022495 -0.003787 0.047303 -0.3755219 2.633828 1.530412 
0.022315 -0.003244 0.046115 -0.6106744 2.261751 0.09859386 
0.018136 -0.007402 0.046022 -3.987934 2.84057 4.148307 
0.01796 -0.006787 0.043947 0.8165821 1.391995 -2.63047 
0.02153 -0.008373 0.048153 -0.8397642 -1.263897 3.151058 
0.021965 -0.011759 0.046956 -1.961434 -2.413731 2.047086 
0.026286 -0.005104 0.049356 -1.514076 0.8821435 5.231386 
0.02542 -0.010626 0.049162 0.7754105 -1.617906 2.862082 
0.025582 -0.010617 0.047462 1.843446 -3.385337 -1.913498 
0.021795 -0.012085 0.045371 -0.4349492 -0.6559765 -1.46047 
0.02156 -0.008253 0.047254 0.5682404 -0.5018212 -2.896876 
0.025984 -0.00518 0.047655 0.7866306 0.4559653 -4.740417 
0.034212 0.000272 0.046775 1.347488 0.1790277 -2.85881 
0.034553 0.000388 0.048673 0.7240747 2.314139 3.446879 
0.033155 -0.005314 0.046833 2.224786 -1.42379 -0.8234374 
0.030631 -0.005639 0.04864 1.707428 -1.611231 3.365498 
0.027591 0.000431 0.044859 -0.4519684 1.975805 -0.0760625 
0.028138 7.5e-05 0.046382 -0.9843892 2.179224 1.471131 
0.029195 -0.002852 0.046185 -0.2489837 -0.432049 -5.69377 
0.02972 -0.002758 0.048433 -0.5264913 1.625861 5.346803 
0.026263 -0.001182 0.046356 -1.201856 1.69595 0.2220107 
0.014794 -0.008125 0.041974 -1.145293 1.350936 -0.1706024 
0.018495 -0.009879 0.043572 3.108345 1.05497 -3.67244 
0.01318 -0.013068 0.038006 0.03843534 -0.454718 -0.5034937 
0.018077 -0.010734 0.046407 -2.223895 -1.569592 3.03258 
0.019099 -0.012498 0.043735 2.189177 -1.849963 -0.3983676 
0.022176 -0.00276 0.046188 -1.038844 -0.07492578 -0.1489104 
0.040543 -0.011895 0.046907 -1.548648 -1.820965 2.496663 
0.039729 -0.011747 0.045958 -2.424014 -0.3244342 0.2194888 
0.043478 -0.014493 0.044454 -2.257893 -1.619214 -1.098478 
0.041578 -0.007772 0.047998 -0.3458081 -0.4088317 5.334198 
0.044966 -0.012873 0.047133 1.284366 -2.194377 4.477589 
0.044709 -0.007797 0.047397 2.764643 1.249852 2.737893 
0.047084 -0.010777 0.04509 1.729906 -0.1212144 -0.7095174 
0.044569 -0.007419 0.045631 1.213824 1.544379 -2.80774 
0.041257 -0.007482 0.046309 -0.792652 0.9301419 -5.807134 
0.044521 -0.011855 0.045207 -0.7024778 1.585465 -4.432117 
0.042291 -0.003159 0.046243 0.3976268 0.5131834 -2.041816 
0.035931 0.000455 0.048718 -1.198743 2.92535 -1.424365 
0.042577 -0.003436 0.047224 2.006079 0.001400292 1.291681 
0.036075 0.000499 0.049638 -0.2002795 0.8372374 1.911784 
0.03509 -0.005164 0.048103 -2.993329 -2.033679 2.136337 
0.034846 -0.004616 0.046477 -2.097427 0.2959956 -1.693851 
0.037235 -0.006316 0.047023 -1.810711 -2.53161 2.941799 
0.039436 -0.01077 0.046295 -0.2335384 -1.417032 -0.05488473 
0.039229 -0.004129 0.048782 0.1867284 -0.8520698 4.346648 
0.036636 -0.006211 0.045258 -1.44359 -1.109056 -2.388878 
0.038747 -0.003779 0.046888 0.8781891 -0.1010594 -5.065998 
0.037179 -0.001624 0.047401 -0.4068766 1.863458 -4.474887 
0.037722 -0.001992 0.049163 0.5589314 -0.8832636 4.520596 
0.046657 -0.015743 0.043764 2.246494 -3.848162 2.206087 
0.043428 -0.017582 0.041241 0.03337502 -0.1556366 -0.6802781 
0.048584 -0.011371 0.044705 0.817635 1.425429 0.06112698 
0.047908 -0.013764 0.041451 0.8406442 0.6725803 -0.6248734 
0.04574 -0.014328 0.042846 -2.734879 3.909242 -3.378597 
0.047008 -0.016451 0.037052 0.1288794 0.1322694 -0.5762041 
0.043754 -0.01678 0.040806 -1.01136 -0.2197561 0.4238991 
0.043144 -0.004652 0.046863 1.55259 2.258384 0.07996136 
0.027923 0.004056 0.055306 2.365236 1.429212 0.7524429 
0.027775 0.004559 0.053844 0.8061584 2.079122 -0.6289359 
0.022834 0.004224 0.057475 1.069638 2.990215 4.046649 
0.022593 0.004317 0.055533 -0.6738198 1.325075 -3.744329 
0.024267 0.00133 0.057128 0.3916811 -1.142177 3.747682 
0.02164 -0.001366 0.056961 -1.923095 -0.5236301 1.885808 
0.029002 0.000703 0.054712 2.748162 0.2265582 4.886081 
0.025013 -0.002761 0.056748 1.279885 -2.171672 2.579998 
0.024359 -0.002958 0.054831 -2.153399 -2.683139 -2.004122 
0.021819 -0.001294 0.056183 -2.167192 0.06233925 -2.183138 
0.023685 0.001262 0.055712 -2.289102 0.4049072 -3.6968 
0.028479 0.000778 0.053778 -1.824671 0.9827747 -5.001562 
0.035519 -0.000212 0.047193 -0.8805876 -0.1710643 -2.159659 
0.035782 -0.00024 0.048745 4.095184 -0.02152021 2.1916 
0.031386 -0.002617 0.049679 0.0110032 -2.096885 -1.03348 
0.030529 -0.002191 0.052022 2.095275 -3.131361 2.168514 
0.032241 0.003266 0.049755 0.7888286 1.992867 -0.8227412 
0.032593 0.003184 0.0504 1.539324 1.939189 0.4493633 
0.031359 0.000358 0.050724 -3.773577 1.308205 -4.36824 
0.031896 0.000286 0.051595 3.83119 -0.1654461 4.350687 
0.030943 0.003639 0.051711 0.08861113 1.397665 0.2744432 
0.019399 0.005946 0.055774 -0.1634511 1.033306 -0.1160529 
0.020558 0.00185 0.056388 -0.001617432 -0.01751831 -4.780041 
0.015216 0.002572 0.054874 -0.22273 -0.03848477 -0.121769 
0.020518 0.001843 0.057119 -1.199188 -0.3966132 4.592278 
0.018832 -0.000523 0.055775 0.01296386 -1.221974 -0.2106677 
0.028355 0.003834 0.05391 -0.8708305 0.5578977 0.4105176 
0.037599 0.010565 0.05041 2.036681 0.7625853 1.637095 
0.037685 0.009966 0.049235 2.497379 -1.497746 -0.5343159 
0.035757 0.013704 0.046473 2.682517 0.2156705 -1.286558 
0.034387 0.007365 0.051049 0.2895687 -0.2334138 5.069263 
0.033619 0.013174 0.049753 -0.4401218 3.117018 4.040326 
0.031688 0.008702 0.050174 -2.983747 0.5917912 3.23907 
0.030208 0.012516 0.047496 -1.06449 0.7285802 -0.4352257 
0.031215 0.008301 0.048754 -1.209254 -0.6457587 -2.236793 
0.034219 0.007131 0.049854 0.1581132 -0.7555115 -5.477538 
0.033413 0.012087 0.048246 0.1276391 -2.603285 -3.474552 
0.030745 0.00414 0.048577 -0.1931081 0.4763377 -1.935323 
0.034934 -0.001231 0.048389 0.0481275 -1.692382 -1.843913 
0.030777 0.004509 0.05001 -1.757174 0.240328 1.621261 
0.035157 -0.001852 0.049638 -0.166534 -1.59459 1.318325 
0.038187 0.002826 0.050331 3.34696 -0.2735076 2.237168 
0.038672 0.002672 0.048878 1.28837 -0.04741457 -1.399219 
0.037121 0.004667 0.050151 2.516543 0.4639937 3.178458 
0.037526 0.009129 0.049687 0.7089695 1.414574 0.06160951 
0.034765 0.003318 0.050963 0.3040386 -0.2493542 4.695064 
0.037397 0.004776 0.048425 2.387039 0.8489978 -2.358124 
0.034299 0.003467 0.048781 -0.4555204 1.465031 -5.011099 
0.034809 0.001188 0.049204 0.1568983 0.04007462 -4.751983 
0.034952 0.00102 0.050524 -0.03557852 -0.8171653 4.663476 
0.03284 0.015868 0.045309 -0.3602522 5.02381 1.599351 
0.036269 0.015726 0.042905 0.2314605 0.4020543 -0.6637975 
0.028803 0.01309 0.04645 -1.410702 -1.013786 0.5681154 
0.029914 0.014437 0.042181 -1.218248 -0.2501181 -0.3100011 
0.032752 0.013696 0.044018 0.8164798 -5.436164 -2.090557 
0.030794 0.015993 0.03586 -0.1978533 -0.06399983 -0.4655553 
0.035906 0.015224 0.042167 1.037848 -0.3552771 0.3308369 
0.030537 0.005281 0.049546 -1.870873 -0.758182 0.2572427 
0.041959 -0.00912 0.050994 -0.8350461 -2.27701 1.322107 
0.041662 -0.00863 0.049667 -2.560625 -0.9225156 -1.196183 
0.04615 -0.009575 0.048018 -0.351143 -1.384105 -1.581003 
0.041334 -0.004853 0.052768 -1.299116 -0.9315035 4.523127 
0.046351 -0.007538 0.050965 2.293308 -2.719426 4.392989 
0.044413 -0.003432 0.052645 1.602274 1.326988 2.351017 
0.048331 -0.005074 0.050443 1.175751 0.4842806 -0.8336359 
0.044034 -0.003514 0.051393 1.441141 2.47664 -3.188942 
0.041647 -0.004281 0.050481 0.6349301 1.772364 -5.419827 
0.046028 -0.006987 0.050162 -0.418403 2.622667 -3.769278 
0.041159 -0.00022 0.050847 1.309139 -0.5521406 -1.903641 
0.034249 0.000782 0.047796 -0.3931583 0.9631312 -2.449866 
0.041456 -0.000345 0.051864 0.7023733 1.212081 1.537213 
0.034041 0.000765 0.049039 -1.585565 1.106596 1.66858 
0.035185 -0.004753 0.049972 -2.47415 -2.181758 0.3012602 
0.035891 -0.003972 0.049019 -0.464966 -0.804046 -3.275078 
0.037834 -0.004806 0.050209 -1.979471 -2.67099 2.320911 
0.041359 -0.007677 0.050295 -0.01769674 -1.493397 -0.1917421 
0.038067 -0.002283 0.0521 -1.892552 -0.4339074 3.62755 
0.037892 -0.004889 0.048688 0.1713018 -1.454292 -2.984801 
0.038335 -0.002153 0.050607 2.512545 0.009710371 -4.370242 
0.036562 -0.000896 0.049431 1.799315 -0.2722643 -4.19021 
0.036393 -0.00091 0.050354 -1.936412 0.5564722 4.054217 
0.048993 -0.008352 0.047551 3.80964 -3.577234 2.415914 
0.04789 -0.010672 0.045374 0.5088353 0.08753902 -0.7007108 
0.049264 -0.005112 0.049795 0.0001259446 1.148837 0.6154051 
0.050365 -0.006229 0.046302 0.3179628 0.4742648 -0.072016 
0.048473 -0.007918 0.047183 -3.826606 3.245708 -3.154288 
0.05156 -0.008092 0.040852 0.08500588 0.07546583 -0.1928642 
0.048178 -0.010041 0.0446 -0.8136314 -0.6331737 0.3277861 
0.042225 -0.000867 0.05166 0.8000821 2.633048 -0.1963931 
0.025989 -0.003388 0.038077 -3.050438 -0.4103348 0.8276866 
0.026211 -0.002579 0.037342 -0.8583192 2.282298 0.2310501 
0.027026 -0.005707 0.033699 -1.231753 1.675831 -0.9185798 
0.029792 -0.004929 0.04343 -3.685766 -0.6271706 3.701215 
0.029062 -0.007365 0.038919 -3.968184 -3.875711 2.171222 
0.032358 -0.007619 0.043974 -0.3894292 -2.781509 1.863117 
0.032052 -0.009538 0.040283 0.7195709 -1.846281 -0.5999094 
0.03321 -0.006972 0.042219 3.561282 -0.3606105 -1.475962 
0.030879 -0.004223 0.041522 4.004309 2.931211 -3.175201 
0.030113 -0.006929 0.037941 4.019527 1.791601 -1.631738 
0.035947 -0.005727 0.045297 1.747703 0.2825199 -1.411824 
0.034193 -0.000447 0.047962 2.83518 2.961158 0.6968244 
0.035279 -0.006601 0.046188 -0.2254134 -2.055879 0.7947577 
0.033943 -0.000597 0.04862 -0.2557197 0.5933176 2.070502 
0.028912 0.000266 0.043425 -3.360006 1.885729 0.7146181 
0.029353 0.000717 0.042807 0.1738662 1.991562 -1.175178 
0.029158 -0.001248 0.042199 -3.349574 0.07305831 0.9691141 
0.026859 -0.001819 0.038981 -0.735414 0.8017759 -0.3747956 
0.031979 -0.002866 0.045201 -3.275685 -1.46921 2.985777 
0.029405 -0.001131 0.041972 0.1040893 2.22122 -3.03496 
0.032413 -0.002559 0.044564 3.027728 0.9930717 -4.084799 
0.033546 -0.001339 0.04587 3.239196 1.926499 -3.079233 
0.032573 -0.00205 0.047149 -3.372277 -1.946922 2.820552 
0.028118 -0.009204 0.034263 -3.537166 -3.938266 0.1089767 
0.027195 -0.006003 0.02998 0.03468138 -0.08456403 -0.6533425 
0.03194 -0.010004 0.03732 1.580502 -0.5112725 1.009071 
0.031484 -0.010152 0.0337 1.166436 -0.9203823 -0.1068532 
0.029919 -0.007389 0.033753 3.905928 4.164943 -0.4126745 
0.031917 -0.008899 0.027392 0.3854718 -0.2812334 -0.4919509 
0.02733 -0.006694 0.030076 -0.7154409 0.841708 0.06408173 
0.034871 -0.006279 0.04521 1.772478 0.003118485 1.258749 
0.041631 0.003858 0.042378 1.663934 -0.5567651 0.6813711 
0.040278 0.003425 0.04158 -0.2633457 -3.372884 0.9809031 
0.040126 0.004029 0.036932 0.7462924 -2.845071 -0.3276626 
0.038131 0.005384 0.043882 2.17855 2.441372 3.132359 
0.039289 0.007171 0.039635 3.372431 4.29013 0.3636911 
0.036478 0.007716 0.042499 -0.5903827 3.250862 1.005175 
0.035836 0.008054 0.037905 -0.8509026 0.5137419 -0.9893361 
0.035875 0.0066 0.041657 -3.147439 -1.242025 -1.303742 
0.037379 0.004869 0.043158 -2.900733 -3.522445 -2.923364 
0.037822 0.006049 0.03904 -3.392435 -3.310734 -0.6383873 
0.033042 0.005849 0.043007 -0.8602474 -0.7952513 -1.475975 
0.034099 0.00114 0.047127 -2.067977 -2.295601 0.8476763 
0.034308 0.006617 0.044338 -0.6806711 2.228627 1.366667 
0.034667 0.001587 0.047504 -1.012026 -0.02020784 3.122474 
0.039246 0.001013 0.046838 2.159851 -1.759981 1.547354 
0.038083 0.00071 0.045734 -0.1776526 -3.213108 -1.132533 
0.038451 0.002365 0.04504 3.711306 -0.02512026 1.342365 
0.040205 0.003445 0.042158 1.692798 0.05827498 -1.264755 
0.037193 0.004196 0.046756 2.367065 1.919886 2.868071 
0.037946 0.001531 0.043915 0.8862839 -3.227136 -2.417674 
0.035544 0.003131 0.04431 -1.382799 -1.790757 -4.63777 
0.035074 0.002232 0.045613 -1.952167 -3.457954 -2.926972 
0.03608 0.003001 0.047544 0.7762271 1.501884 3.545055 
0.039099 0.006567 0.034915 4.109972 3.559056 -1.108084 
0.04053 0.003168 0.03521 0.134945 -0.5609173 -0.6866381 
0.035855 0.008074 0.036795 -1.510763 0.9993392 0.4282377 
0.037225 0.006691 0.033041 -0.9824429 0.7176986 -0.7422513 
0.037993 0.00511 0.035419 -3.901147 -4.306556 0.3860168 
0.038948 0.003896 0.028812 -0.1640887 -0.0299716 -0.5576552 
0.040507 0.003125 0.033749 0.7888606 -0.4577326 0.7114024 
0.034216 0.006475 0.043617 -1.794306 0.8390797 0.05482215 
0.036274 -0.003972 0.041626 -0.9866341 -2.420774 1.680551 
0.035659 -0.003745 0.04148 -2.333174 -1.309816 -0.0881238 
0.038146 -0.00415 0.037494 0.7348545 -4.022019 -0.3788047 
0.037744 -0.003088 0.037441 -4.946898 1.135988 -1.836124 
0.038534 -0.002613 0.039811 3.970393 -1.063276 0.3580489 
0.039993 0.000425 0.038492 2.511121 -0.2449129 -2.187434 
0.038547 -0.002655 0.044311 3.485681 -3.60363 1.121431 
0.041353 0.000841 0.041786 2.118982 0.6248682 0.7895831 
0.039656 0.000849 0.041262 -0.1916732 5.543525 -0.4539296 
0.039473 0.00093 0.038269 -0.5399934 1.566881 -1.395721 
0.037716 -0.001682 0.039224 -2.826599 1.42823 -2.767698 
0.035935 -0.001311 0.042333 -4.730056 2.55026 -0.7188337 
0.035074 -0.000297 0.048853 -2.715388 2.289649 0.2525066 
0.035736 -0.000689 0.049368 1.057363 -2.221847 3.719649 
0.037558 0.00221 0.046739 -0.1664057 2.590484 0.8579758 
0.038778 0.000727 0.046029 2.839598 0.5517856 1.65128 
0.033314 -0.003195 0.045514 -1.795943 -1.064287 0.7928648 
0.0338 -0.003345 0.045726 -0.2389819 -2.331173 0.9587592 
0.035846 -0.000941 0.045568 -4.476799 3.46721 -1.494696 
0.036732 -0.001427 0.046191 2.998406 -3.765186 2.724812 
0.03441 -0.003503 0.044281 -0.7280253 -1.454782 -0.1318337 
0.037957 -0.003472 0.034047 -1.195336 -0.6419405 -0.552181 
0.038905 -0.001654 0.036481 -4.383188 1.990724 -0.7421771 
0.039056 -0.000484 0.031308 -0.1043834 0.07962213 -0.3520905 
0.039681 -0.002296 0.036224 4.219657 -1.936952 -0.12428 
0.039983 0.001404 0.035942 0.3048421 1.080503 0.5475162 
0.03473 -0.004272 0.042114 -0.6634206 -0.8479853 -0.2893353 
3 0 1 2 
3 0 2 3 
3 1 4 5 
3 1 5 2 
3 4 6 7 
3 4 7 5 
3 6 8 9 
3 6 9 7 
3 8 0 3 
3 8 3 9 
3 10 11 12 
3 13 10 12 
3 14 13 12 
3 15 14 12 
3 11 15 12 
3 16 17 18 
3 17 19 18 
3 19 20 18 
3 20 21 18 
3 21 16 18 
3 22 23 24 
3 22 24 25 
3 23 26 27 
3 23 27 24 
3 26 28 29 
3 26 29 27 
3 28 30 31 
3 28 31 29 
3 30 22 25 
3 30 25 31 
3 25 24 17 
3 25 17 16 
3 24 27 19 
3 24 19 17 
3 27 29 20 
3 27 20 19 
3 29 31 21 
3 29 21 20 
3 31 25 16 
3 31 16 21 
3 32 33 4 
3 32 4 1 
3 33 34 6 
3 33 6 4 
3 34 35 8 
3 34 8 6 
3 35 36 0 
3 35 0 8 
3 36 32 1 
3 36 1 0 
3 9 3 37 
3 9 37 38 
3 7 9 38 
3 7 38 39 
3 5 7 39 
3 5 39 40 
3 2 5 40 
3 2 40 41 
3 3 2 41 
3 3 41 37 
3 38 37 42 
3 38 42 43 
3 39 38 43 
3 39 43 44 
3 40 39 44 
3 40 44 45 
3 41 40 45 
3 41 45 46 
3 37 41 46 
3 37 46 42 
3 43 42 47 
3 43 47 48 
3 44 43 48 
3 44 48 49 
3 45 44 49 
3 45 49 50 
3 46 45 50 
3 46 50 51 
3 42 46 51 
3 42 51 47 
3 52 53 54 
3 52 54 55 
3 56 52 55 
3 56 55 57 
3 58 56 57 
3 58 57 59 
3 60 58 59 
3 60 59 61 
3 53 60 61 
3 53 61 54 
3 55 54 11 
3 55 11 10 
3 57 55 10 
3 57 10 13 
3 59 57 13 
3 59 13 14 
3 61 59 14 
3 61 14 15 
3 54 61 15 
3 54 15 11 
3 62 63 64 
3 65 66 67 
3 67 66 68 
3 69 67 68 
3 70 69 71 
3 69 68 71 
3 72 73 74 
3 74 73 75 
3 75 73 76 
3 76 73 77 
3 64 66 62 
3 65 62 66 
3 71 64 70 
3 63 70 64 
3 78 79 80 
3 80 79 65 
3 81 79 78 
3 81 82 79 
3 79 82 70 
3 83 72 82 
3 75 84 74 
3 76 84 75 
3 77 81 76 
3 76 81 78 
3 77 83 81 
3 81 83 82 
3 66 64 85 
3 85 64 86 
3 66 85 87 
3 87 85 88 
3 89 88 90 
3 85 91 90 
3 88 85 90 
3 71 89 64 
3 64 89 86 
3 71 87 89 
3 89 87 88 
3 73 83 77 
3 72 83 73 
3 76 78 84 
3 84 78 80 
3 74 84 80 
3 91 89 90 
3 80 65 92 
3 92 65 67 
3 69 92 67 
3 82 92 70 
3 70 92 69 
3 65 79 70 
3 80 82 74 
3 74 82 72 
3 66 87 71 
3 85 86 89 
3 85 89 91 
3 66 71 68 
3 62 65 63 
3 63 65 70 
3 80 92 82 
3 93 94 95 
3 95 94 96 
3 97 98 99 
3 100 99 98 
3 100 98 101 
3 101 98 102 
3 103 104 102 
3 104 101 102 
3 105 106 107 
3 107 106 108 
3 105 109 106 
3 106 109 110 
3 97 99 95 
3 99 93 95 
3 103 96 104 
3 94 104 96 
3 107 101 111 
3 111 101 104 
3 107 108 101 
3 101 108 100 
3 108 112 100 
3 100 112 99 
3 105 107 111 
3 109 113 110 
3 109 105 113 
3 113 105 111 
3 114 115 116 
3 95 96 114 
3 97 95 117 
3 117 95 114 
3 115 118 116 
3 117 114 116 
3 118 117 116 
3 103 115 96 
3 96 115 114 
3 110 113 106 
3 106 113 112 
3 108 106 112 
3 118 97 117 
3 103 118 115 
3 113 119 112 
3 112 119 99 
3 113 111 119 
3 119 111 104 
3 99 104 93 
3 93 104 94 
3 97 103 98 
3 98 103 102 
3 97 118 103 
3 99 119 104 
3 120 121 122 
3 123 124 125 
3 125 124 126 
3 127 125 126 
3 128 127 129 
3 127 126 129 
3 130 131 132 
3 132 131 133 
3 133 131 134 
3 134 131 135 
3 122 124 120 
3 123 120 124 
3 129 122 128 
3 121 128 122 
3 136 137 138 
3 138 137 123 
3 139 137 136 
3 139 140 137 
3 137 140 128 
3 141 130 140 
3 133 142 132 
3 134 142 133 
3 135 139 134 
3 134 139 136 
3 135 141 139 
3 139 141 140 
3 124 122 143 
3 143 122 144 
3 124 143 145 
3 145 143 146 
3 147 146 148 
3 143 149 148 
3 146 143 148 
3 129 147 122 
3 122 147 144 
3 129 145 147 
3 147 145 146 
3 131 141 135 
3 130 141 131 
3 134 136 142 
3 142 136 138 
3 132 142 138 
3 149 147 148 
3 138 123 150 
3 150 123 125 
3 127 150 125 
3 140 150 128 
3 128 150 127 
3 123 137 128 
3 138 140 132 
3 132 140 130 
3 124 145 129 
3 143 144 147 
3 143 147 149 
3 124 129 126 
3 120 123 121 
3 121 123 128 
3 138 150 140 
3 151 152 153 
3 153 152 154 
3 155 156 157 
3 158 157 156 
3 158 156 159 
3 159 156 160 
3 161 162 160 
3 162 159 160 
3 163 164 165 
3 165 164 166 
3 163 167 164 
3 164 167 168 
3 155 157 153 
3 157 151 153 
3 161 154 162 
3 152 162 154 
3 165 159 169 
3 169 159 162 
3 165 166 159 
3 159 166 158 
3 166 170 158 
3 158 170 157 
3 163 165 169 
3 167 171 168 
3 167 163 171 
3 171 163 169 
3 172 173 174 
3 153 154 172 
3 155 153 175 
3 175 153 172 
3 173 176 174 
3 175 172 174 
3 176 175 174 
3 161 173 154 
3 154 173 172 
3 168 171 164 
3 164 171 170 
3 166 164 170 
3 176 155 175 
3 161 176 173 
3 171 177 170 
3 170 177 157 
3 171 169 177 
3 177 169 162 
3 157 162 151 
3 151 162 152 
3 155 161 156 
3 156 161 160 
3 155 176 161 
3 157 177 162 
3 178 179 180 
3 180 179 181 
3 182 183 184 
3 185 184 183 
3 185 183 186 
3 186 183 187 
3 188 189 187 
3 189 186 187 
3 190 191 192 
3 192 191 193 
3 190 194 191 
3 191 194 195 
3 182 184 180 
3 184 178 180 
3 188 181 189 
3 179 189 181 
3 192 186 196 
3 196 186 189 
3 192 193 186 
3 186 193 185 
3 193 197 185 
3 185 197 184 
3 190 192 196 
3 194 198 195 
3 194 190 198 
3 198 190 196 
3 199 200 201 
3 180 181 199 
3 182 180 202 
3 202 180 199 
3 200 203 201 
3 202 199 201 
3 203 202 201 
3 188 200 181 
3 181 200 199 
3 195 198 191 
3 191 198 197 
3 193 191 197 
3 203 182 202 
3 188 203 200 
3 198 204 197 
3 197 204 184 
3 198 196 204 
3 204 196 189 
3 184 189 178 
3 178 189 179 
3 182 188 183 
3 183 188 187 
3 182 203 188 
3 184 204 189 
3 205 206 207 
3 208 209 210 
3 210 209 211 
3 212 210 211 
3 213 212 214 
3 212 211 214 
3 215 216 217 
3 217 216 218 
3 218 216 219 
3 219 216 220 
3 207 209 205 
3 208 205 209 
3 214 207 213 
3 206 213 207 
3 221 222 223 
3 223 222 208 
3 224 222 221 
3 224 225 222 
3 222 225 213 
3 226 215 225 
3 218 227 217 
3 219 227 218 
3 220 224 219 
3 219 224 221 
3 220 226 224 
3 224 226 225 
3 209 207 228 
3 228 207 229 
3 209 228 230 
3 230 228 231 
3 232 231 233 
3 228 234 233 
3 231 228 233 
3 214 232 207 
3 207 232 229 
3 214 230 232 
3 232 230 231 
3 216 226 220 
3 215 226 216 
3 219 221 227 
3 227 221 223 
3 217 227 223 
3 234 232 233 
3 223 208 235 
3 235 208 210 
3 212 235 210 
3 225 235 213 
3 213 235 212 
3 208 222 213 
3 223 225 217 
3 217 225 215 
3 209 230 214 
3 228 229 232 
3 228 232 234 
3 209 214 211 
3 205 208 206 
3 206 208 213 
3 223 235 225 
3 236 237 238 
3 238 237 239 
3 240 241 242 
3 243 242 241 
3 243 241 244 
3 244 241 245 
3 246 247 245 
3 247 244 245 
3 248 249 250 
3 250 249 251 
3 248 252 249 
3 249 252 253 
3 240 242 238 
3 242 236 238 
3 246 239 247 
3 237 247 239 
3 250 244 254 
3 254 244 247 
3 250 251 244 
3 244 251 243 
3 251 255 243 
3 243 255 242 
3 248 250 254 
3 252 256 253 
3 252 248 256 
3 256 248 254 
3 257 258 259 
3 238 239 257 
3 240 238 260 
3 260 238 257 
3 258 261 259 
3 260 257 259 
3 261 260 259 
3 246 258 239 
3 239 258 257 
3 253 256 249 
3 249 256 255 
3 251 249 255 
3 261 240 260 
3 246 261 258 
3 256 262 255 
3 255 262 242 
3 256 254 262 
3 262 254 247 
3 242 247 236 
3 236 247 237 
3 240 246 241 
3 241 246 245 
3 240 261 246 
3 242 262 247 
3 263 264 265 
3 266 267 268 
3 268 267 269 
3 270 268 269 
3 271 270 272 
3 270 269 272 
3 273 274 275 
3 275 274 276 
3 276 274 277 
3 277 274 278 
3 265 267 263 
3 266 263 267 
3 272 265 271 
3 264 271 265 
3 279 280 281 
3 281 280 266 
3 282 280 279 
3 282 283 280 
3 280 283 271 
3 284 273 283 
3 276 285 275 
3 277 285 276 
3 278 282 277 
3 277 282 279 
3 278 284 282 
3 282 284 283 
3 267 265 286 
3 286 265 287 
3 267 286 288 
3 288 286 289 
3 290 289 291 
3 286 292 291 
3 289 286 291 
3 272 290 265 
3 265 290 287 
3 272 288 290 
3 290 288 289 
3 274 284 278 
3 273 284 274 
3 277 279 285 
3 285 279 281 
3 275 285 281 
3 292 290 291 
3 281 266 293 
3 293 266 268 
3 270 293 268 
3 283 293 271 
3 271 293 270 
3 266 280 271 
3 281 283 275 
3 275 283 273 
3 267 288 272 
3 286 287 290 
3 286 290 292 
3 267 272 269 
3 263 266 264 
3 264 266 271 
3 281 293 283 
3 294 295 296 
3 297 298 299 
3 299 298 300 
3 301 299 300 
3 302 301 303 
3 301 300 303 
3 304 305 306 
3 306 305 307 
3 307 305 308 
3 308 305 309 
3 296 298 294 
3 297 294 298 
3 303 296 302 
3 295 302 296 
3 310 311 312 
3 312 311 297 
3 313 311 310 
3 313 314 311 
3 311 314 302 
3 315 304 314 
3 307 316 306 
3 308 316 307 
3 309 313 308 
3 308 313 310 
3 309 315 313 
3 313 315 314 
3 298 296 317 
3 317 296 318 
3 298 317 319 
3 319 317 320 
3 321 320 322 
3 317 323 322 
3 320 317 322 
3 303 321 296 
3 296 321 318 
3 303 319 321 
3 321 319 320 
3 305 315 309 
3 304 315 305 
3 308 310 316 
3 316 310 312 
3 306 316 312 
3 323 321 322 
3 312 297 324 
3 324 297 299 
3 301 324 299 
3 314 324 302 
3 302 324 301 
3 297 311 302 
3 312 314 306 
3 306 314 304 
3 298 319 303 
3 317 318 321 
3 317 321 323 
3 298 303 300 
3 294 297 295 
3 295 297 302 
3 312 324 314 
3 325 326 327 
3 328 329 330 
3 330 329 331 
3 332 330 331 
3 333 332 334 
3 332 331 334 
3 335 336 337 
3 337 336 338 
3 338 336 339 
3 339 336 340 
3 327 329 325 
3 328 325 329 
3 334 327 333 
3 326 333 327 
3 341 342 343 
3 343 342 328 
3 344 342 341 
3 344 345 342 
3 342 345 333 
3 346 335 345 
3 338 347 337 
3 339 347 338 
3 340 344 339 
3 339 344 341 
3 340 346 344 
3 344 346 345 
3 329 327 348 
3 348 327 349 
3 329 348 350 
3 350 348 351 
3 352 351 353 
3 348 354 353 
3 351 348 353 
3 334 352 327 
3 327 352 349 
3 334 350 352 
3 352 350 351 
3 336 346 340 
3 335 346 336 
3 339 341 347 
3 347 341 343 
3 337 347 343 
3 354 352 353 
3 343 328 355 
3 355 328 330 
3 332 355 330 
3 345 355 333 
3 333 355 332 
3 328 342 333 
3 343 345 337 
3 337 345 335 
3 329 350 334 
3 348 349 352 
3 348 352 354 
3 329 334 331 
3 325 328 326 
3 326 328 333 
3 343 355 345 
3 356 357 358 
3 359 360 361 
3 361 360 362 
3 363 361 362 
3 364 363 365 
3 363 362 365 
3 366 367 368 
3 368 367 369 
3 369 367 370 
3 370 367 371 
3 358 360 356 
3 359 356 360 
3 365 358 364 
3 357 364 358 
3 372 373 374 
3 374 373 359 
3 375 373 372 
3 375 376 373 
3 373 376 364 
3 377 366 376 
3 369 378 368 
3 370 378 369 
3 371 375 370 
3 370 375 372 
3 371 377 375 
3 375 377 376 
3 360 358 379 
3 379 358 380 
3 360 379 381 
3 381 379 382 
3 383 382 384 
3 379 385 384 
3 382 379 384 
3 365 383 358 
3 358 383 380 
3 365 381 383 
3 383 381 382 
3 367 377 371 
3 366 377 367 
3 370 372 378 
3 378 372 374 
3 368 378 374 
3 385 383 384 
3 374 359 386 
3 386 359 361 
3 363 386 361 
3 376 386 364 
3 364 386 363 
3 359 373 364 
3 374 376 368 
3 368 376 366 
3 360 381 365 
3 379 380 383 
3 379 383 385 
3 360 365 362 
3 356 359 357 
3 357 359 364 
3 374 386 376 
3 387 388 389 
3 389 388 390 
3 391 392 393 
3 394 393 392 
3 394 392 395 
3 395 392 396 
3 397 398 396 
3 398 395 396 
3 399 400 401 
3 401 400 402 
3 399 403 400 
3 400 403 404 
3 391 393 389 
3 393 387 389 
3 397 390 398 
3 388 398 390 
3 401 395 405 
3 405 395 398 
3 401 402 395 
3 395 402 394 
3 402 406 394 
3 394 406 393 
3 399 401 405 
3 403 407 404 
3 403 399 407 
3 407 399 405 
3 408 409 410 
3 389 390 408 
3 391 389 411 
3 411 389 408 
3 409 412 410 
3 411 408 410 
3 412 411 410 
3 397 409 390 
3 390 409 408 
3 404 407 400 
3 400 407 406 
3 402 400 406 
3 412 391 411 
3 397 412 409 
3 407 413 406 
3 406 413 393 
3 407 405 413 
3 413 405 398 
3 393 398 387 
3 387 398 388 
3 391 397 392 
3 392 397 396 
3 391 412 397 
3 393 413 398 
