ply
format ascii 1.0
comment VCGLIB generated
element vertex 311
property float x
property float y
property float z
property float nx
property float ny
property float nz
element face 400
property list uchar int vertex_indices
end_header
-8e-05 0.000725 0.019529 -2.563554 -2.536409 0.4175113 
0.000381 0.000792 0.01955 3.404245 -3.541879 0.7641519 
-0.000351 0.002293 0.025501 -1.138062 -3.302431 0.7297069 
0.000405 0.00165 0.02258 3.931721 -3.215393 0.628938 
0.00064 0.002483 0.025795 0.7831479 -1.692855 0.3813713 
-0.000351 0.002293 0.025501 0.1873736 -1.935896 0.4635314 
0.00064 0.002483 0.025795 0.1175605 -0.9664628 0.2283181 
0.000665 0.004281 0.033393 0.3291123 -3.85524 1.003124 
0.00097 0.005491 0.035062 1.07687 1.535305 -0.3312445 
-6.6e-05 0.005563 0.037596 0.2175849 -0.377073 0.6127181 
0.000903 0.004425 0.034068 1.82734 -1.222202 0.8582833 
4.9e-05 0.004015 0.030365 -0.2398683 2.890843 -0.7275785 
0.000457 0.002002 0.022477 -0.2414565 1.916705 -0.501628 
-0.000297 0.002708 0.025384 -0.05742455 0.9666313 -0.2496524 
-0.000297 0.002708 0.025384 -1.025045 1.587336 -0.5871837 
0.000457 0.002002 0.022477 1.779089 2.185852 -0.9619295 
-0.000137 0.001743 0.022496 -3.675142 2.847586 -1.093979 
0.000695 0.002896 0.025674 -0.184032 0.950074 -0.2519756 
0.000429 0.000993 0.019665 2.723707 2.129634 -0.4747953 
-0.000101 0.000485 0.016032 -2.932653 3.065308 -0.4008309 
0.000856 0.002508 0.024891 2.235696 -0.1441486 -0.241467 
0.000695 0.002896 0.025674 0.5898738 0.765206 -0.2578929 
-0.000481 0.002323 0.024804 -1.293608 -0.02876949 -0.1855783 
-0.00063 0.003348 0.029932 0.1357481 -1.93879 0.4718569 
-0.000586 0.004244 0.03359 0.1417387 -1.919344 0.5395931 
-0.000297 0.002708 0.025384 -0.7538057 2.728485 -0.9041616 
-0.000594 0.003759 0.029846 -1.513311 3.95436 -0.5547255 
4.9e-05 0.004015 0.030365 -0.721367 5.765268 -1.404996 
-0.002109 0.004996 0.035804 -0.5653849 0.9804447 -0.06069845 
-2e-05 0.005263 0.035745 -0.9992018 3.728745 -0.8639194 
0.00069 0.004688 0.033271 0.001588228 0.9741375 -0.2259505 
-2e-05 0.005263 0.035745 0.001588228 0.9741375 -0.2259505 
-0.000586 0.004244 0.03359 -0.1668146 -2.87867 0.8163049 
0.00069 0.004688 0.033271 0.5353328 3.89107 -0.6188745 
0.000856 0.002508 0.024891 0.5798732 -0.02743179 -0.3364853 
0.002707 0.0035 0.028 0.7861655 0.0004920363 -0.3491282 
0.00064 0.002483 0.025795 0.8348029 -2.820963 0.4967133 
0.000695 0.002896 0.025674 0.1533698 2.841564 -0.8536245 
0.002798 0.004167 0.030958 0.6495006 1.053649 -0.2041387 
0.000665 0.004281 0.033393 0.4741578 -3.820107 0.8425562 
0.002308 0.004679 0.033532 0.4229115 0.009538114 0.4925212 
-0.000481 0.002323 0.024804 -0.585723 -0.1521704 -0.4315386 
-0.000351 0.002293 0.025501 -0.2357913 -1.949111 0.2288698 
-0.002358 0.002736 0.027206 -1.045652 -0.1913871 -0.4276105 
-0.00063 0.003348 0.029932 -0.8614097 -2.765337 1.099932 
-0.002286 0.003445 0.03003 -0.1747246 0.1808303 0.9882964 
-6.6e-05 0.005563 0.037596 0.07580361 -0.9499871 0.3029495 
-0.000215 -0.000291 0.012359 -2.779003 -1.616204 0.2268751 
0.000326 -0.000234 0.012385 2.57625 -4.256223 0.4730284 
0.000362 -0.000458 0.00891 0.9401605 0.7902111 -0.2268571 
0.000394 0.000512 0.015652 2.601226 2.370067 -0.3246832 
-0.000187 7e-06 0.012331 -2.453927 3.10533 -0.4366988 
-0.000209 -0.000621 0.008898 -0.8902535 -0.9096231 -0.02298535 
-0.002221 0.003973 0.032045 -1.354313 -0.08284321 -0.5737886 
0.004336 -0.002219 0.012932 -1.819994 -2.523979 -0.1043749 
0.007983 -0.004809 0.016087 -1.609768 -3.740699 -2.79483 
0.006082 -0.003295 0.015161 -1.543714 1.272466 2.563432 
0.007991 -0.004743 0.016509 -2.356031 -0.679145 2.462109 
0.009962 -0.006869 0.017206 -1.73023 -1.7477 0.03972155 
0.008351 -0.004561 0.016442 2.032026 4.196555 1.728647 
0.010389 -0.006527 0.016766 1.685567 1.35945 -1.105116 
0.008342 -0.004627 0.01602 1.767786 0.4897737 -2.967571 
0.006468 -0.003226 0.014747 2.569536 1.802832 -1.516411 
0.009726 -0.006075 0.016535 -0.0226475 -1.066354 -2.574998 
0.009863 -0.005983 0.017724 -0.1192214 0.8658062 1.382435 
0.014659 -0.01357 0.01933 -1.001433 -0.9658726 1.477222 
0.013371 -0.012041 0.017466 -4.753951 -2.621576 -0.03663224 
0.01511 -0.015026 0.018556 1.037099 0.03522617 -0.1576374 
0.013832 -0.012377 0.016934 1.483631 0.05415786 -1.431328 
0.013957 -0.011832 0.01779 6.27999 2.510428 -1.517115 
0.014319 -0.014268 0.016211 -0.6835461 -0.06766623 -0.7394122 
0.009962 -0.006869 0.017206 -1.666485 -1.038834 -0.318522 
0.009726 -0.006075 0.016535 -0.2589074 0.2199842 -0.6578779 
0.011129 -0.008153 0.015288 0.5722429 0.5907677 -1.507722 
0.010389 -0.006527 0.016766 1.41978 1.215643 -0.6265204 
0.010389 -0.006527 0.016766 1.539943 1.259821 -0.0914029 
0.009863 -0.005983 0.017724 -0.0995751 0.3373875 0.4504141 
0.011818 -0.00806 0.019712 -0.06975305 0.3867849 0.685856 
0.009962 -0.006869 0.017206 -1.609696 -0.8730365 0.7772589 
0.012131 -0.009876 0.01761 -0.7852451 -0.5215788 0.3336851 
0.011818 -0.00806 0.019712 -0.384927 -0.08456945 1.053996 
0.012131 -0.009876 0.01761 -4.234914 -2.537968 0.3699112 
0.01373 -0.01055 0.019761 2.265414 1.15256 0.485808 
0.01267 -0.009657 0.017499 3.298073 2.088701 -0.8110802 
0.01267 -0.009657 0.017499 0.8150671 0.5709763 -0.09824319 
0.004782 -0.002103 0.012722 1.797739 0.6222199 -1.23343 
0.004612 -0.001929 0.013005 0.247438 3.280965 1.500668 
0.001116 -0.000111 0.008693 -0.0810588 1.248476 0.5072216 
0.001203 -0.0002 0.008394 -0.01925993 -0.8684244 -0.4523023 
0.013418 -0.012156 0.015766 -0.5199897 -1.140724 -0.5241412 
0.004008 0.000699 0.017751 2.73659 -1.831172 -0.9539084 
0.005551 0.001183 0.020471 3.08674 -2.801491 -1.955219 
0.003696 0.000604 0.018386 -1.383641 -0.8954102 0.8991843 
0.006621 0.001657 0.022789 -1.069897 -0.4587993 0.8157326 
0.007837 0.001651 0.022829 0.6019335 -1.614182 -0.2631819 
0.007874 0.002154 0.022428 0.1403825 1.602841 -0.6876156 
0.005532 0.00152 0.020472 -0.3424758 3.84493 -1.24962 
0.007181 0.001989 0.023046 -0.8174824 1.759755 0.2030703 
0.003982 0.001006 0.018163 0.520805 3.494714 -0.8404533 
0.007256 0.001857 0.021789 1.60306 0.03472841 -1.935506 
0.011038 0.002368 0.025722 -0.02087527 -0.9647851 0.2622097 
0.007837 0.001651 0.022829 -0.02087527 -0.9647851 0.2622097 
0.014299 0.002685 0.027148 -0.02087527 -0.9647851 0.2622097 
0.007181 0.001989 0.023046 -0.2186773 0.9756775 0.01528084 
0.011031 0.00281 0.025721 -0.2186773 0.9756775 0.01528084 
0.007874 0.002154 0.022428 -0.2186773 0.9756775 0.01528084 
0.014046 0.002898 0.024136 1.06717 -0.6516722 -1.466962 
0.01451 0.003197 0.026763 -0.4255385 5.86788 -0.3370968 
0.016573 0.003281 0.027546 0.5178462 4.902104 -0.6457222 
0.015422 0.003601 0.028615 -0.2052129 2.946829 0.623876 
0.01701 0.003094 0.026418 0.5182978 -0.01554686 -0.3720818 
0.018129 0.003064 0.029062 0.4447775 0.01766044 0.8702192 
0.007837 0.001651 0.022829 0.7642165 -4.853244 -0.1741442 
0.007256 0.001857 0.021789 0.2900765 -0.711927 -1.079353 
0.007874 0.002154 0.022428 -0.5487076 1.905621 -0.1022777 
0.010847 0.003002 0.022278 -0.2518017 3.136727 -0.7594613 
0.011031 0.00281 0.025721 -0.955687 4.830782 1.325381 
0.014299 0.002685 0.027148 0.5717633 -4.937777 -0.03005156 
0.007181 0.001989 0.023046 -0.8457563 1.757081 0.3021338 
0.006621 0.001657 0.022789 -0.570823 -0.1920725 0.2684552 
0.007951 0.001889 0.025783 -0.9739516 0.7207721 0.626115 
0.010717 0.002443 0.027244 1.006449 -1.009298 0.5288769 
0.011038 0.002368 0.025722 0.3549525 -1.974728 0.9570614 
0.012776 0.002722 0.02825 -1.334752 -0.01941644 1.840706 
0.002455 0.000463 0.014932 -1.780134 1.520846 0.3408913 
0.000518 -0.000517 0.008328 -0.2440297 -0.9492815 0.1589946 
0.000933 -0.00029 0.008275 0.3201838 1.704572 -0.3705997 
0.002835 0.000568 0.014806 0.8368952 3.184361 -0.686502 
0.001381 -0.001265 0.015163 -2.046128 0.4106067 0.5366378 
0.001789 -0.001424 0.015091 0.3235209 -4.593424 -0.7833448 
0.003204 -0.002329 0.021548 -1.354761 -2.565255 -0.03572735 
0.003581 -0.002327 0.021413 3.391202 -3.085373 -1.84882 
0.004722 -0.002782 0.023722 0.7751792 -1.286215 -0.6365124 
0.003204 -0.002329 0.021548 -0.1110375 -1.907504 -0.4015382 
0.004722 -0.002782 0.023722 0.1396883 -0.9453786 -0.2945276 
0.006399 -0.003886 0.028061 -0.2852349 -2.879659 -0.5582846 
0.00418 -0.002906 0.024449 -0.4249232 -1.934281 -0.263757 
0.010855 -0.005688 0.034587 0.445644 0.8393523 0.333957 
0.0091 -0.005603 0.034949 -0.5132933 -0.8672717 0.7282896 
0.010565 -0.005118 0.031756 0.6170458 -2.026244 -0.7436209 
0.004361 -0.0025 0.024513 0.08697778 2.951931 0.5217759 
0.003734 -0.001979 0.021468 0.0508216 1.971769 0.3269053 
0.003355 -0.001981 0.021602 0.05075385 0.9860907 0.1582695 
0.004907 -0.002376 0.023788 0.03622393 1.965841 0.3635064 
0.003734 -0.001979 0.021468 1.759004 0.36021 -0.6586313 
0.002791 -0.001528 0.018381 2.640208 2.547682 -0.4009383 
0.003355 -0.001981 0.021602 -1.062585 2.289067 0.6149031 
0.004907 -0.002376 0.023788 1.662365 -0.5934108 -0.9403681 
0.003355 -0.001981 0.021602 -1.464343 0.4036435 0.4225728 
0.003204 -0.002329 0.021548 -0.8752854 0.3240959 0.3589389 
0.00418 -0.002906 0.024449 -1.547767 -1.521744 0.05694877 
0.004722 -0.002782 0.023722 0.6437089 -1.934955 -1.477037 
0.005869 -0.003228 0.025731 1.460353 -3.979778 -1.511883 
0.006399 -0.003886 0.028061 -0.1985694 -3.843009 -0.9249524 
0.008086 -0.003454 0.026839 1.342499 2.160773 -0.7505621 
0.005978 -0.002836 0.025903 0.03615618 0.9801623 0.1948706 
0.005535 -0.004177 0.030826 -0.1741975 -0.9721552 -0.1567464 
0.005535 -0.004177 0.030826 -1.122982 0.2910852 0.6917187 
0.007507 -0.004645 0.033816 -0.2748372 1.187234 0.7038305 
0.009741 -0.004974 0.033236 1.156123 4.631301 1.166182 
0.004907 -0.002376 0.023788 0.5908598 0.9413809 -0.8003975 
0.006851 -0.002859 0.024655 1.404069 -0.4547351 -0.537011 
0.005978 -0.002836 0.025903 1.530077 4.6524 0.7252675 
0.008013 -0.004259 0.031463 0.7876558 5.708319 1.342631 
0.003807 -0.003248 0.02737 -0.8418076 1.050372 0.434263 
0.004361 -0.0025 0.024513 -0.1634592 1.93125 0.4739303 
0.000313 -0.000403 0.008881 -0.5559583 0.02971303 0.0459438 
0.000617 -0.000583 0.008998 0.6862324 -0.7166181 -0.2831976 
-0.00502 -0.000104 0.015259 2.805149 1.502989 1.981544 
-0.006764 0.000938 0.016251 1.053358 3.663724 -2.207269 
-0.008244 0.001523 0.017909 1.384016 0.03963739 1.799587 
-0.008384 0.001768 0.016796 -0.3910477 1.004475 -2.412271 
-0.008843 0.002402 0.017516 0.895336 1.428243 -0.1814578 
-0.00896 0.00178 0.017922 -0.8777241 -1.696194 0.2476685 
-0.009043 0.00195 0.017096 -1.559047 -1.692796 -1.090661 
-0.006884 0.000513 0.016602 -1.130845 -4.241557 1.663283 
-0.006978 0.000615 0.016203 -2.665649 -1.899795 -2.865242 
-0.005223 -0.000399 0.015212 -0.2246939 -3.608606 0.928315 
-0.005378 -0.000286 0.014876 -2.274766 -0.2531504 -2.133045 
-0.010263 0.002783 0.020038 1.335925 1.374484 0.5445422 
-0.008843 0.002402 0.017516 1.335925 1.374484 0.5445422 
-0.013835 0.006103 0.018889 0.6197896 0.7484741 0.2358971 
-0.010551 0.003548 0.015887 0.06742775 0.2557749 -1.52978 
-0.009043 0.00195 0.017096 -1.047447 -1.519745 -0.702235 
-0.014147 0.00574 0.018436 -3.592554 -4.191961 -1.638062 
-0.009043 0.00195 0.017096 -0.6100188 -0.7859916 -0.1004689 
-0.00896 0.00178 0.017922 -0.6100188 -0.7859916 -0.1004689 
-0.014147 0.00574 0.018436 -0.6100188 -0.7859916 -0.1004689 
-0.015161 0.006444 0.020354 -0.6968616 -0.8865626 0.6251788 
-0.013835 0.006103 0.018889 3.448195 4.687636 0.4070137 
-0.016672 0.007778 0.020163 -0.2043781 0.08151025 0.2574946 
-0.016107 0.007685 0.017833 0.1284557 0.2726005 -0.9938053 
-0.008384 0.001768 0.016796 0.2415589 -0.05258006 -0.6788232 
-0.008244 0.001523 0.017909 0.7161356 0.6260096 0.3086451 
-0.008244 0.001523 0.017909 -0.3246472 -0.9163222 0.2344309 
-0.010263 0.002783 0.020038 -0.3473726 -0.9778101 0.5945513 
-0.00896 0.00178 0.017922 -1.531272 -2.510608 0.2152962 
-0.001175 -0.000581 0.00811 1.019449 -0.5199726 0.4798016 
-0.004004 -3.8e-05 0.012812 -0.32051 3.484231 -0.3846058 
-0.00388 -0.000435 0.013025 2.095175 -2.559273 1.186649 
-0.003162 -0.000551 0.011023 -1.496381 -2.334643 -0.7664143 
-0.001344 -0.000601 0.007757 -0.7464186 0.2628841 -0.5167611 
-0.008843 0.002402 0.017516 1.257418 1.522418 -0.2473774 
-0.014452 0.006371 0.018077 0.1246027 0.4121203 -1.535808 
-0.003282 -0.001112 0.017045 -3.169606 1.848907 -1.101542 
-0.004273 -0.001514 0.019803 -0.05167204 3.963875 0.930056 
-0.00291 -0.001284 0.017744 2.588818 -0.3654096 1.158909 
-0.004492 -0.001633 0.019452 -2.881788 1.741119 -1.908612 
-0.006343 -0.002282 0.021413 -1.232106 2.347586 -0.2913601 
-0.005287 -0.002175 0.021532 2.033338 -0.1900777 1.324194 
-0.006206 -0.002805 0.021043 0.1216511 -1.583815 -0.6862074 
-0.004371 -0.001986 0.019478 0.1990762 -5.171944 -1.941203 
-0.005663 -0.002564 0.021719 1.160807 -1.506932 0.2805695 
-0.003169 -0.001428 0.017479 0.244721 -4.089828 -0.6609974 
-0.005763 -0.002418 0.02048 -1.514298 -0.4273486 -2.019302 
-0.006343 -0.002282 0.021413 -0.6079261 1.883568 0.08980028 
-0.009378 -0.003357 0.023415 -0.6079261 1.883568 0.08980028 
-0.008833 -0.003284 0.023772 -0.2336843 0.9589477 0.1606578 
-0.005663 -0.002564 0.021719 0.3712038 -0.9279769 0.03266083 
-0.008691 -0.003702 0.0238 0.3712038 -0.9279769 0.03266083 
-0.006206 -0.002805 0.021043 0.3712038 -0.9279769 0.03266083 
-0.009378 -0.003357 0.023415 -1.170091 3.791057 0.1547939 
-0.013622 -0.004873 0.025188 -1.571701 3.646652 -0.1568658 
-0.013293 -0.004861 0.027408 -0.2918489 0.9655948 0.4778563 
-0.015124 -0.005547 0.026659 -0.5917658 -0.1364912 -0.1459316 
-0.013608 -0.005014 0.024134 -1.192667 0.7129686 -0.9117931 
-0.013499 -0.005255 0.025214 1.400632 -5.689429 -0.0421309 
-0.006343 -0.002282 0.021413 -1.472884 4.641537 -0.2849327 
-0.005763 -0.002418 0.02048 -0.01430342 -0.01060283 -0.6826162 
-0.008562 -0.003535 0.020556 0.2929834 -1.999703 -1.203787 
-0.006206 -0.002805 0.021043 0.6440928 -1.830545 -0.3720412 
-0.008691 -0.003702 0.0238 1.584934 -4.641039 1.109673 
-0.005287 -0.002175 0.021532 0.6404672 0.3643669 0.3086756 
-0.006371 -0.002562 0.024238 1.168764 -0.4810253 0.6987535 
-0.005663 -0.002564 0.021719 1.171364 -1.524542 0.3304384 
-0.008833 -0.003284 0.023772 -0.695757 1.904033 0.9425877 
-0.008594 -0.003359 0.025287 -1.126754 0.6948209 0.4979621 
-0.013608 -0.005014 0.024134 -0.3742417 0.9246201 -0.07085756 
-0.000935 -0.000596 0.008029 0.04287636 -1.334035 -0.6962481 
-0.000762 -0.000331 0.008393 1.488699 1.195761 -0.1483878 
-0.00196 -0.000895 0.014542 1.525729 -0.6998322 0.3145708 
-0.002289 -0.001064 0.014367 0.8417431 -3.832276 -0.1532685 
-0.00069 -0.000575 0.008633 1.913901 -0.5690729 -0.1359991 
-0.010369 -0.003928 0.026066 0.9869556 0.3756568 1.124741 
-0.001773 0.00018 0.017868 1.51496 3.317278 0.1241265 
-0.002866 0.00051 0.020621 -1.289347 3.68642 -0.8477628 
-0.002529 0.000423 0.020825 2.263317 1.359475 0.6123893 
-0.003902 0.00061 0.022278 -1.125155 0.501425 -0.5048424 
-0.003571 0.00029 0.023546 0.01138037 -2.24783 0.2244613 
-0.003026 0.00016 0.020621 -2.691042 -2.011236 -0.7965042 
-0.001924 -0.000135 0.018278 3.105845 -4.106756 1.051544 
-0.001606 -0.00031 0.014639 -2.562195 -1.565835 -0.4620685 
-0.002529 0.000423 0.020825 0.1518109 1.888962 -0.2787916 
-0.004756 0.001164 0.024633 0.424515 2.850275 -0.3176587 
-0.003384 0.0007 0.023546 0.3243594 0.9459172 0.00562596 
-0.003384 0.0007 0.023546 0.7593553 1.847254 0.0720645 
-0.004756 0.001164 0.024633 0.4458419 4.224911 -0.1556681 
-0.003584 0.000647 0.027012 2.370529 2.638837 0.4543409 
-0.003902 0.00061 0.022278 -0.5356677 0.0215435 -0.4221842 
-0.009504 0.002842 0.032822 0.2727041 0.9613125 -0.03886715 
-0.008079 0.002408 0.032086 0.2727041 0.9613125 -0.03886715 
-0.008079 0.002408 0.032086 1.602507 3.644174 0.3032124 
-0.003571 0.00029 0.023546 -0.5834432 -1.894863 -0.07433302 
-0.004974 0.000679 0.024642 -0.7778546 -2.873788 -0.01179101 
-0.006757 0.001685 0.032703 0.8471904 0.7507329 0.4944126 
-0.004737 0.00096 0.029777 0.2252372 -1.075816 0.2949388 
-0.008179 0.002255 0.033854 0.0207077 -0.0008589029 0.4149842 
-0.009504 0.002842 0.032822 -0.5984666 0.2844927 -0.009666629 
-0.008468 0.002144 0.031522 -1.590232 -2.509475 -0.06796354 
-0.004974 0.000679 0.024642 -1.514918 -1.650091 -0.1784053 
-0.006909 0.001401 0.029928 -1.428663 -3.683287 0.1156775 
-0.006729 0.00159 0.025259 -1.88717 -1.39851 -1.115047 
-0.003902 0.00061 0.022278 -0.1464193 0.0461635 -0.2867646 
-0.00563 0.001161 0.023249 -1.028476 0.4789777 0.5646447 
-0.002529 0.000423 0.020825 0.7850298 -0.01491368 0.1344023 
-0.003571 0.00029 0.023546 0.3455313 -1.918416 0.1988939 
-0.004737 0.00096 0.029777 -0.4147353 -1.952286 0.1259756 
-0.006909 0.001401 0.029928 -0.5480806 -1.910131 0.1506957 
-0.008468 0.002144 0.031522 -0.3536692 -0.9312072 0.08815367 
-0.008179 0.002255 0.033854 -0.3536692 -0.9312072 0.08815367 
-0.001079 -9.4e-05 0.01474 3.157887 1.680252 0.4530894 
-0.000722 -0.000426 0.009476 -1.508299 2.105591 -0.3531296 
-0.000578 -0.000494 0.011772 2.779941 -2.564764 0.6093889 
-0.000183 -0.000575 0.008829 2.682994 1.513818 -0.7274467 
-0.000764 -0.000579 0.00842 0.1407846 -0.1504632 -0.7858804 
-0.000297 -0.00079 0.008827 0.3165352 -3.248846 -0.5088467 
-0.004937 0.000915 0.024092 -1.352007 0.5646781 0.05350134 
-0.000899 -0.001769 0.00069 -2.510303 -3.10276 -0.8265224 
0.001091 -0.00148 0.00069 3.303986 -2.707094 -0.9086365 
0.000524 -0.001127 0.004675 1.195122 -2.089732 0.3916109 
-0.000639 0.000338 -0.000457 -1.988486 0.7246882 -2.163844 
0.00048 0.0005 -0.000457 0.6740177 1.849251 -3.253817 
-0.000512 -0.001132 -0.000457 -0.6733999 -1.849787 -3.253959 
0.000605 -0.00097 -0.000457 1.988615 -0.7264312 -2.16524 
-0.000564 -0.001209 0.004643 -1.913317 -1.138717 0.336906 
-0.001124 0.000848 0.00069 -3.385493 3.483665 -0.6384432 
-0.000552 -6.2e-05 0.005453 -1.067766 0.9127156 0.3026104 
0.000537 1.6e-05 0.005484 1.758862 1.91125 0.6503558 
0.000868 0.001136 0.00069 2.584948 2.094335 -0.8605006 
-0.000564 -0.001209 0.004643 -1.31015 -1.464055 -0.5400385 
0.000524 -0.001127 0.004675 1.627408 -2.391544 -0.5118304 
-0.001239 -0.001155 0.008454 -2.251966 -3.598183 1.002545 
0.000537 1.6e-05 0.005484 1.140261 3.167645 -0.715 
0.001636 -0.000387 0.006907 2.95421 0.3930162 -0.5621693 
0.001314 0.00018 0.00856 2.253393 2.63502 0.7123142 
0.00128 -0.000864 0.008566 2.869159 -3.487189 1.491288 
-0.000552 -6.2e-05 0.005453 -1.50743 2.11042 -0.6078267 
-0.001214 -0.000102 0.008446 -3.002337 4.537052 1.308219 
-0.001611 -0.000705 0.006783 -2.986499 0.3254381 -0.4722926 
0.001074 -0.000318 0.009434 0.7928957 0.8634668 1.764907 
-0.00098 -0.000587 0.009328 -0.9449212 -0.8039979 1.846455 
3 0 1 2 
3 2 1 3 
3 3 4 2 
3 5 6 7 
3 8 9 10 
3 11 12 13 
3 14 15 16 
3 11 17 12 
3 15 18 16 
3 16 18 19 
3 1 18 3 
3 3 18 15 
3 20 15 21 
3 15 20 3 
3 3 20 4 
3 19 0 16 
3 16 0 2 
3 16 2 22 
3 16 22 14 
3 5 7 23 
3 23 7 24 
3 25 26 27 
3 28 29 27 
3 30 11 31 
3 28 32 9 
3 33 29 8 
3 8 29 9 
3 34 35 36 
3 34 37 35 
3 35 37 38 
3 36 35 38 
3 36 38 39 
3 39 38 40 
3 41 42 43 
3 41 43 25 
3 42 44 43 
3 43 44 45 
3 45 26 43 
3 43 26 25 
3 46 24 7 
3 9 39 10 
3 9 29 28 
3 47 48 0 
3 0 48 1 
3 48 49 50 
3 48 50 1 
3 1 50 18 
3 18 50 19 
3 50 49 51 
3 50 51 19 
3 52 47 51 
3 51 47 19 
3 47 0 19 
3 47 52 48 
3 48 52 49 
3 51 49 52 
3 37 27 38 
3 27 33 38 
3 38 33 40 
3 44 32 53 
3 53 32 28 
3 27 53 28 
3 27 26 53 
3 33 10 40 
3 10 39 40 
3 45 44 26 
3 44 53 26 
3 8 10 33 
3 54 55 56 
3 56 55 57 
3 55 58 57 
3 59 60 61 
3 59 61 62 
3 54 62 55 
3 55 62 61 
3 55 61 63 
3 63 61 60 
3 55 63 58 
3 56 59 62 
3 56 57 59 
3 59 57 64 
3 64 57 58 
3 59 64 60 
3 65 66 67 
3 68 69 67 
3 68 67 70 
3 71 72 73 
3 72 74 73 
3 75 76 77 
3 76 78 77 
3 78 79 77 
3 80 81 65 
3 81 66 65 
3 80 65 82 
3 83 82 69 
3 75 77 84 
3 83 80 82 
3 69 82 65 
3 67 66 70 
3 65 67 69 
3 54 85 62 
3 86 62 85 
3 86 85 87 
3 87 54 86 
3 54 56 86 
3 86 56 62 
3 87 88 54 
3 88 85 54 
3 87 85 88 
3 71 73 81 
3 66 81 89 
3 89 81 73 
3 74 83 73 
3 83 69 73 
3 68 66 89 
3 68 89 69 
3 69 89 73 
3 66 68 70 
3 90 91 92 
3 92 91 93 
3 91 94 93 
3 95 96 97 
3 97 96 93 
3 93 96 92 
3 92 96 98 
3 90 98 91 
3 91 98 96 
3 91 96 99 
3 99 96 95 
3 91 99 94 
3 100 101 102 
3 103 104 105 
3 106 107 108 
3 107 109 108 
3 106 108 110 
3 110 108 111 
3 112 113 106 
3 113 114 115 
3 113 115 106 
3 114 116 115 
3 116 107 115 
3 115 107 106 
3 117 106 110 
3 112 106 117 
3 118 119 120 
3 119 112 120 
3 120 112 121 
3 112 122 121 
3 120 116 118 
3 121 116 120 
3 123 111 109 
3 111 117 110 
3 111 108 109 
3 124 125 90 
3 125 126 90 
3 90 92 124 
3 90 126 127 
3 90 127 98 
3 92 98 124 
3 124 98 127 
3 127 126 124 
3 126 125 124 
3 122 117 123 
3 123 117 111 
3 116 123 107 
3 107 123 109 
3 116 122 123 
3 122 116 121 
3 128 129 130 
3 130 129 131 
3 131 132 130 
3 133 134 135 
3 136 133 135 
3 137 138 139 
3 140 141 142 
3 140 143 141 
3 144 145 146 
3 146 145 128 
3 129 145 131 
3 131 145 144 
3 131 144 147 
3 131 147 132 
3 128 130 146 
3 148 149 150 
3 151 152 153 
3 152 154 139 
3 143 140 155 
3 136 135 156 
3 157 153 138 
3 158 157 138 
3 139 159 137 
3 151 160 161 
3 162 163 154 
3 154 163 159 
3 154 159 139 
3 151 161 152 
3 148 164 165 
3 148 150 164 
3 164 150 157 
3 162 157 163 
3 163 157 158 
3 165 164 162 
3 162 164 157 
3 138 153 139 
3 137 159 138 
3 138 159 163 
3 138 163 158 
3 166 167 129 
3 166 129 128 
3 129 167 145 
3 145 167 166 
3 145 166 128 
3 153 152 139 
3 160 162 161 
3 162 152 161 
3 152 162 154 
3 168 169 170 
3 169 171 172 
3 170 169 172 
3 173 174 175 
3 175 174 176 
3 175 176 177 
3 177 176 178 
3 178 169 168 
3 169 178 176 
3 169 176 171 
3 171 176 174 
3 177 168 175 
3 175 168 170 
3 175 170 173 
3 179 180 181 
3 182 183 184 
3 185 186 187 
3 188 189 190 
3 189 191 190 
3 191 184 190 
3 192 183 182 
3 193 180 179 
3 194 195 196 
3 195 189 188 
3 196 195 188 
3 188 184 196 
3 190 184 188 
3 197 198 199 
3 198 168 199 
3 200 178 198 
3 198 178 168 
3 177 178 199 
3 199 178 200 
3 197 199 200 
3 177 199 168 
3 201 198 197 
3 201 200 198 
3 197 200 201 
3 192 182 202 
3 202 182 189 
3 182 184 203 
3 203 189 182 
3 189 203 191 
3 191 203 184 
3 204 205 206 
3 204 207 205 
3 207 208 205 
3 209 205 208 
3 210 211 212 
3 212 211 209 
3 209 211 206 
3 206 211 213 
3 207 204 211 
3 204 213 211 
3 214 211 210 
3 211 214 207 
3 207 214 208 
3 206 205 209 
3 215 216 217 
3 218 219 220 
3 221 222 223 
3 223 222 224 
3 225 226 224 
3 227 228 229 
3 228 230 229 
3 230 231 229 
3 231 226 229 
3 229 226 225 
3 227 229 225 
3 232 227 233 
3 232 233 234 
3 235 236 227 
3 227 236 233 
3 236 231 233 
3 233 231 234 
3 222 221 225 
3 237 216 215 
3 224 222 225 
3 224 226 223 
3 238 204 239 
3 239 204 240 
3 240 204 206 
3 204 238 241 
3 204 241 213 
3 206 213 240 
3 240 213 241 
3 242 241 238 
3 240 241 239 
3 239 241 242 
3 242 238 239 
3 235 221 243 
3 243 221 223 
3 231 243 226 
3 226 243 223 
3 235 243 231 
3 236 235 231 
3 244 245 246 
3 245 247 246 
3 248 247 249 
3 248 249 250 
3 251 245 244 
3 251 249 245 
3 245 249 247 
3 244 246 250 
3 250 246 248 
3 252 253 254 
3 255 256 257 
3 258 253 252 
3 259 260 253 
3 261 257 256 
3 262 263 258 
3 257 264 265 
3 257 261 264 
3 264 261 266 
3 267 268 266 
3 269 270 271 
3 271 270 268 
3 271 268 267 
3 272 273 256 
3 274 255 257 
3 274 257 275 
3 275 257 265 
3 263 276 277 
3 270 265 264 
3 263 262 276 
3 266 261 267 
3 278 277 279 
3 266 270 264 
3 280 281 244 
3 281 251 244 
3 250 249 251 
3 250 251 282 
3 283 280 282 
3 282 280 250 
3 280 244 250 
3 284 281 283 
3 281 280 283 
3 282 251 285 
3 285 251 281 
3 285 281 284 
3 284 283 285 
3 285 283 282 
3 256 271 267 
3 269 273 272 
3 269 286 273 
3 273 286 256 
3 286 269 271 
3 286 271 256 
3 287 288 289 
3 290 291 292 
3 292 291 293 
3 287 289 294 
3 295 294 296 
3 295 287 294 
3 297 298 295 
3 297 295 296 
3 288 297 289 
3 298 297 288 
3 299 300 301 
3 300 302 303 
3 302 304 303 
3 300 303 305 
3 302 306 307 
3 306 299 308 
3 299 301 308 
3 306 308 307 
3 303 304 305 
3 309 307 310 
3 310 307 301 
3 308 301 307 
3 310 305 309 
3 309 305 304 
3 300 305 301 
3 310 301 305 
3 304 302 307 
3 309 304 307 
3 295 298 291 
3 295 291 290 
3 287 295 290 
3 287 290 292 
3 298 288 293 
3 298 293 291 
3 288 287 292 
3 288 292 293 
